<svg width="113" height="113" viewBox="0 0 113 113" fill="none" xmlns="http://www.w3.org/2000/svg">
<g opacity="0.2">
<path fill-rule="evenodd" clip-rule="evenodd" d="M48.9245 24.7058C49.77 24.0009 50.746 23.4695 51.7968 23.142C52.8477 22.8144 53.9527 22.6971 55.0489 22.7967C56.1451 22.8963 57.211 23.2109 58.1856 23.7225C59.1602 24.2341 60.0244 24.9327 60.729 25.7784L79.349 48.1247C80.0847 48.9656 80.6448 49.9453 80.9964 51.0059C81.3479 52.0666 81.4838 53.1868 81.396 54.3007C81.3082 55.4147 80.9985 56.4998 80.4851 57.4923C79.9717 58.4847 79.2651 59.3645 78.4067 60.0799C77.5483 60.7952 76.5555 61.3316 75.4867 61.6576C74.4179 61.9836 73.2947 62.0925 72.1832 61.978C71.0717 61.8635 69.9944 61.5278 69.0145 60.9908C68.0346 60.4538 67.1721 59.7262 66.4775 58.8509L47.8519 36.5046C46.4301 34.7975 45.7445 32.5956 45.9456 30.3831C46.1467 28.1706 47.2182 26.1285 48.9245 24.7058Z" fill="url(#paint0_linear_109_1499)"/>
<path fill-rule="evenodd" clip-rule="evenodd" d="M48.9245 24.7058C49.77 24.0009 50.746 23.4695 51.7968 23.142C52.8477 22.8144 53.9527 22.6971 55.0489 22.7967C56.1451 22.8963 57.211 23.2109 58.1856 23.7225C59.1602 24.2341 60.0244 24.9327 60.729 25.7784L79.349 48.1247C80.0847 48.9656 80.6448 49.9453 80.9964 51.0059C81.3479 52.0666 81.4838 53.1868 81.396 54.3007C81.3082 55.4147 80.9985 56.4998 80.4851 57.4923C79.9717 58.4847 79.2651 59.3645 78.4067 60.0799C77.5483 60.7952 76.5555 61.3316 75.4867 61.6576C74.4179 61.9836 73.2947 62.0925 72.1832 61.978C71.0717 61.8635 69.9944 61.5278 69.0145 60.9908C68.0346 60.4538 67.1721 59.7262 66.4775 58.8509L47.8519 36.5046C46.4301 34.7975 45.7445 32.5956 45.9456 30.3831C46.1467 28.1706 47.2182 26.1285 48.9245 24.7058Z" fill="url(#paint1_linear_109_1499)"/>
<path fill-rule="evenodd" clip-rule="evenodd" d="M48.9242 82.2694C47.2179 80.8466 46.1464 78.8045 45.9453 76.592C45.7441 74.3795 46.4298 72.1776 47.8516 70.4705L66.4772 48.1242C67.9176 46.4777 69.9448 45.4598 72.1257 45.2879C74.3066 45.116 76.4682 45.8038 78.1488 47.2043C79.8294 48.6048 80.8957 50.6069 81.1199 52.7831C81.3441 54.9592 80.7084 57.1367 79.3487 58.8504L60.7286 81.1967C60.0241 82.0424 59.1598 82.741 58.1852 83.2526C57.2107 83.7642 56.1448 84.0788 55.0486 84.1784C53.9524 84.2781 52.8473 84.1607 51.7965 83.8332C50.7457 83.5056 49.7696 82.9742 48.9242 82.2694Z" fill="url(#paint2_linear_109_1499)"/>
<path fill-rule="evenodd" clip-rule="evenodd" d="M48.9242 82.2694C47.2179 80.8466 46.1464 78.8045 45.9453 76.592C45.7441 74.3795 46.4298 72.1776 47.8516 70.4705L66.4772 48.1242C67.9176 46.4777 69.9448 45.4598 72.1257 45.2879C74.3066 45.116 76.4682 45.8038 78.1488 47.2043C79.8294 48.6048 80.8957 50.6069 81.1199 52.7831C81.3441 54.9592 80.7084 57.1367 79.3487 58.8504L60.7286 81.1967C60.0241 82.0424 59.1598 82.741 58.1852 83.2526C57.2107 83.7642 56.1448 84.0788 55.0486 84.1784C53.9524 84.2781 52.8473 84.1607 51.7965 83.8332C50.7457 83.5056 49.7696 82.9742 48.9242 82.2694Z" fill="url(#paint3_linear_109_1499)"/>
<path fill-rule="evenodd" clip-rule="evenodd" d="M70.1211 53.4867C70.1211 55.7092 69.2382 57.8406 67.6667 59.4121C66.0952 60.9837 63.9637 61.8665 61.7412 61.8665L17.0487 61.8666C14.8262 61.8666 12.6948 60.9837 11.1232 59.4122C9.5517 57.8406 8.66882 55.7092 8.66882 53.4867C8.66882 51.2642 9.5517 49.1328 11.1232 47.5612C12.6948 45.9897 14.8262 45.1068 17.0487 45.1068L61.7412 45.1068C63.9637 45.1068 66.0952 45.9897 67.6667 47.5612C69.2382 49.1328 70.1211 51.2642 70.1211 53.4867Z" fill="url(#paint4_linear_109_1499)"/>
<path fill-rule="evenodd" clip-rule="evenodd" d="M70.1211 53.4867C70.1211 55.7092 69.2382 57.8406 67.6667 59.4121C66.0952 60.9837 63.9637 61.8665 61.7412 61.8665L17.0487 61.8666C14.8262 61.8666 12.6948 60.9837 11.1232 59.4122C9.5517 57.8406 8.66882 55.7092 8.66882 53.4867C8.66882 51.2642 9.5517 49.1328 11.1232 47.5612C12.6948 45.9897 14.8262 45.1068 17.0487 45.1068L61.7412 45.1068C63.9637 45.1068 66.0952 45.9897 67.6667 47.5612C69.2382 49.1328 70.1211 51.2642 70.1211 53.4867Z" fill="url(#paint5_linear_109_1499)"/>
</g>
<path fill-rule="evenodd" clip-rule="evenodd" d="M63.6778 31.7894C64.2469 31.3155 64.9808 31.0869 65.7183 31.154C66.4558 31.221 67.1365 31.5782 67.6108 32.147L86.2308 54.4932C86.6841 55.0645 86.896 55.7903 86.8212 56.5157C86.7465 57.2411 86.3911 57.9085 85.8309 58.3753C85.2707 58.8421 84.5501 59.0714 83.8232 59.0141C83.0962 58.9568 82.4205 58.6175 81.9403 58.0686L63.3203 35.7224C62.8464 35.1533 62.6178 34.4194 62.6848 33.6819C62.7519 32.9444 63.1091 32.2637 63.6778 31.7894Z" fill="url(#paint6_linear_109_1499)"/>
<path fill-rule="evenodd" clip-rule="evenodd" d="M63.6778 31.7894C64.2469 31.3155 64.9808 31.0869 65.7183 31.154C66.4558 31.221 67.1365 31.5782 67.6108 32.147L86.2308 54.4932C86.6841 55.0645 86.896 55.7903 86.8212 56.5157C86.7465 57.2411 86.3911 57.9085 85.8309 58.3753C85.2707 58.8421 84.5501 59.0714 83.8232 59.0141C83.0962 58.9568 82.4205 58.6175 81.9403 58.0686L63.3203 35.7224C62.8464 35.1533 62.6178 34.4194 62.6848 33.6819C62.7519 32.9444 63.1091 32.2637 63.6778 31.7894Z" fill="url(#paint7_linear_109_1499)"/>
<path fill-rule="evenodd" clip-rule="evenodd" d="M63.6778 80.7726C63.1091 80.2984 62.7519 79.6177 62.6848 78.8802C62.6178 78.1427 62.8464 77.4087 63.3203 76.8397L81.9403 54.4934C82.4205 53.9446 83.0962 53.6052 83.8232 53.5479C84.5501 53.4906 85.2707 53.7199 85.8309 54.1867C86.3911 54.6536 86.7465 55.321 86.8212 56.0463C86.896 56.7717 86.6841 57.4975 86.2308 58.0688L67.6108 80.4151C67.1365 80.9838 66.4558 81.341 65.7183 81.408C64.9808 81.4751 64.2469 81.2465 63.6778 80.7726Z" fill="url(#paint8_linear_109_1499)"/>
<path fill-rule="evenodd" clip-rule="evenodd" d="M63.6778 80.7726C63.1091 80.2984 62.7519 79.6177 62.6848 78.8802C62.6178 78.1427 62.8464 77.4087 63.3203 76.8397L81.9403 54.4934C82.4205 53.9446 83.0962 53.6052 83.8232 53.5479C84.5501 53.4906 85.2707 53.7199 85.8309 54.1867C86.3911 54.6536 86.7465 55.321 86.8212 56.0463C86.896 56.7717 86.6841 57.4975 86.2308 58.0688L67.6108 80.4151C67.1365 80.9838 66.4558 81.341 65.7183 81.408C64.9808 81.4751 64.2469 81.2465 63.6778 80.7726Z" fill="url(#paint9_linear_109_1499)"/>
<path fill-rule="evenodd" clip-rule="evenodd" d="M84.0859 56.28C84.0859 57.0208 83.7916 57.7313 83.2678 58.2551C82.744 58.779 82.0335 59.0732 81.2927 59.0732L28.2202 59.0732C27.4794 59.0732 26.7689 58.779 26.2451 58.2551C25.7212 57.7313 25.427 57.0208 25.427 56.28C25.427 55.5391 25.7212 54.8287 26.2451 54.3048C26.7689 53.781 27.4794 53.4867 28.2202 53.4867L81.2927 53.4867C82.0335 53.4867 82.744 53.781 83.2678 54.3048C83.7916 54.8286 84.0859 55.5391 84.0859 56.28Z" fill="url(#paint10_linear_109_1499)"/>
<path fill-rule="evenodd" clip-rule="evenodd" d="M84.0859 56.28C84.0859 57.0208 83.7916 57.7313 83.2678 58.2551C82.744 58.779 82.0335 59.0732 81.2927 59.0732L28.2202 59.0732C27.4794 59.0732 26.7689 58.779 26.2451 58.2551C25.7212 57.7313 25.427 57.0208 25.427 56.28C25.427 55.5391 25.7212 54.8287 26.2451 54.3048C26.7689 53.781 27.4794 53.4867 28.2202 53.4867L81.2927 53.4867C82.0335 53.4867 82.744 53.781 83.2678 54.3048C83.7916 54.8286 84.0859 55.5391 84.0859 56.28Z" fill="url(#paint11_linear_109_1499)"/>
<defs>
<linearGradient id="paint0_linear_109_1499" x1="81.4219" y1="62.0221" x2="42.3589" y2="26.6895" gradientUnits="userSpaceOnUse">
<stop stop-color="#FBBF24"/>
<stop offset="1" stop-color="#F97316"/>
</linearGradient>
<linearGradient id="paint1_linear_109_1499" x1="81.4219" y1="62.0221" x2="42.3589" y2="26.6896" gradientUnits="userSpaceOnUse">
<stop stop-color="#83D5FC"/>
<stop offset="1" stop-color="#0578AE"/>
</linearGradient>
<linearGradient id="paint2_linear_109_1499" x1="81.1641" y1="84.2128" x2="42.4062" y2="49.1342" gradientUnits="userSpaceOnUse">
<stop stop-color="#FBBF24"/>
<stop offset="1" stop-color="#F97316"/>
</linearGradient>
<linearGradient id="paint3_linear_109_1499" x1="81.1641" y1="84.2128" x2="42.4061" y2="49.1343" gradientUnits="userSpaceOnUse">
<stop stop-color="#83D5FC"/>
<stop offset="1" stop-color="#0578AE"/>
</linearGradient>
<linearGradient id="paint4_linear_109_1499" x1="70.1211" y1="61.8665" x2="61.6123" y2="30.6677" gradientUnits="userSpaceOnUse">
<stop stop-color="#FBBF24"/>
<stop offset="1" stop-color="#F97316"/>
</linearGradient>
<linearGradient id="paint5_linear_109_1499" x1="70.1211" y1="61.8665" x2="61.6123" y2="30.6677" gradientUnits="userSpaceOnUse">
<stop stop-color="#83D5FC"/>
<stop offset="1" stop-color="#0578AE"/>
</linearGradient>
<linearGradient id="paint6_linear_109_1499" x1="86.8359" y1="59.0227" x2="59.2388" y2="35.1055" gradientUnits="userSpaceOnUse">
<stop stop-color="#FBBF24"/>
<stop offset="1" stop-color="#F97316"/>
</linearGradient>
<linearGradient id="paint7_linear_109_1499" x1="86.8359" y1="59.0227" x2="59.2388" y2="35.1056" gradientUnits="userSpaceOnUse">
<stop stop-color="#83D5FC"/>
<stop offset="1" stop-color="#0578AE"/>
</linearGradient>
<linearGradient id="paint8_linear_109_1499" x1="86.8359" y1="81.4195" x2="59.2388" y2="57.5023" gradientUnits="userSpaceOnUse">
<stop stop-color="#FBBF24"/>
<stop offset="1" stop-color="#F97316"/>
</linearGradient>
<linearGradient id="paint9_linear_109_1499" x1="86.8359" y1="81.4195" x2="59.2388" y2="57.5024" gradientUnits="userSpaceOnUse">
<stop stop-color="#83D5FC"/>
<stop offset="1" stop-color="#0578AE"/>
</linearGradient>
<linearGradient id="paint10_linear_109_1499" x1="84.0859" y1="59.0732" x2="83.0314" y2="48.0005" gradientUnits="userSpaceOnUse">
<stop stop-color="#FBBF24"/>
<stop offset="1" stop-color="#F97316"/>
</linearGradient>
<linearGradient id="paint11_linear_109_1499" x1="84.0859" y1="59.0732" x2="83.0314" y2="48.0005" gradientUnits="userSpaceOnUse">
<stop stop-color="#83D5FC"/>
<stop offset="1" stop-color="#0578AE"/>
</linearGradient>
</defs>
</svg>
