<?xml version="1.0" encoding="utf-8"?>
<!-- Generator: Adobe Illustrator 26.3.1, SVG Export Plug-In . SVG Version: 6.00 Build 0)  -->
<svg version="1.1" id="Слой_1" xmlns="http://www.w3.org/2000/svg" xmlns:xlink="http://www.w3.org/1999/xlink" x="0px" y="0px"
	 viewBox="0 0 500 500" style="enable-background:new 0 0 500 500;" xml:space="preserve">
<g>
	<path d="M272.3,227.1h-44.9V272h44.9V227.1z M268.4,268.1h-37v-37h37V268.1z"/>
	<path d="M365.6,275.8c-6.8,0-12.5,5.1-13.4,11.7h-17.3L320,272.6h-16v-21.3h30.4c0.9,5.3,5.5,9.3,11.1,9.3
		c6.2,0,11.3-5.1,11.3-11.3s-5.1-11.3-11.3-11.3c-5.5,0-10.1,4-11.1,9.3H304v-21.5h16l14.9-14.9h17.3c1,6.6,6.6,11.7,13.4,11.7
		c7.5,0,13.6-6.1,13.6-13.6c0-7.5-6.1-13.6-13.6-13.6c-6.8,0-12.5,5.1-13.4,11.7h-19l-14.9,14.9H304v-23.8l20.3-20.3
		c1.5,0.7,3.1,1.1,4.8,1.1c6.2,0,11.3-5.1,11.3-11.3s-5.1-11.3-11.3-11.3s-11.3,5.1-11.3,11.3c0,3,1.2,5.8,3.2,7.8l-20,20h-24v-14.6
		L292,166v-19c6.6-1,11.7-6.6,11.7-13.4c0-7.5-6.1-13.6-13.6-13.6c-7.5,0-13.6,6.1-13.6,13.6c0,6.8,5.1,12.5,11.7,13.4v17.3
		l-14.9,14.9v16.2h-21.3v-30.6c5.3-0.9,9.3-5.5,9.3-11.1c0-6.2-5.1-11.3-11.3-11.3c-6.2,0-11.3,5.1-11.3,11.3c0,5.5,4,10.1,9.3,11.1
		v30.6h-21.5v-16.2l-14.9-14.9V147c6.6-1,11.7-6.6,11.7-13.4c0-7.5-6.1-13.6-13.6-13.6c-7.5,0-13.6,6.1-13.6,13.6
		c0,6.8,5.1,12.5,11.7,13.4v19l14.9,14.9v14.6h-24l-20-20c2-2,3.2-4.8,3.2-7.8c0-6.2-5.1-11.3-11.3-11.3s-11.3,5.1-11.3,11.3
		s5.1,11.3,11.3,11.3c1.7,0,3.4-0.4,4.8-1.1l20.5,20.5V222h-14.4l-14.9-14.9h-19c-1-6.6-6.6-11.7-13.4-11.7
		c-7.5,0-13.6,6.1-13.6,13.6c0,7.5,6.1,13.6,13.6,13.6c6.8,0,12.5-5.1,13.4-11.7h17.3l14.9,14.9h16.1v21.3h-30.4
		c-0.9-5.3-5.5-9.3-11.1-9.3c-6.2,0-11.3,5.1-11.3,11.3s5.1,11.3,11.3,11.3c5.5,0,10.1-4,11.1-9.3h30.4v21.5h-16.1l-14.9,14.9h-17.3
		c-1-6.6-6.6-11.7-13.4-11.7c-7.5,0-13.6,6.1-13.6,13.6c0,7.5,6.1,13.6,13.6,13.6c6.8,0,12.5-5.1,13.4-11.7h19l14.9-14.9h14.4v24.7
		l-20.1,20.1c-1.5-0.7-3.1-1.1-4.8-1.1c-6.2,0-11.3,5.1-11.3,11.3s5.1,11.3,11.3,11.3c6.2,0,11.3-5.1,11.3-11.3c0-3-1.2-5.8-3.2-7.8
		l20-20h24v14.6L208,333.1v19c-6.6,1-11.7,6.6-11.7,13.4c0,7.5,6.1,13.6,13.6,13.6c7.5,0,13.6-6.1,13.6-13.6
		c0-6.8-5.1-12.5-11.7-13.4v-17.3l14.9-14.9v-16.2h21.3v30.6c-5.3,0.9-9.3,5.5-9.3,11.1c0,6.2,5.1,11.3,11.3,11.3
		s11.3-5.1,11.3-11.3c0-5.5-4-10.1-9.3-11.1v-30.6h21.5v16.2l14.9,14.9v17.3c-6.6,1-11.7,6.6-11.7,13.4c0,7.5,6.1,13.6,13.6,13.6
		c7.5,0,13.6-6.1,13.6-13.6c0-6.8-5.1-12.5-11.7-13.4v-19l-14.9-14.9v-14.6h24l20,20c-0.7,1.5-1.1,3.1-1.1,4.8
		c0,6.2,5.1,11.3,11.3,11.3s11.3-5.1,11.3-11.3s-5.1-11.3-11.3-11.3c-3,0-5.8,1.2-7.8,3.2L304,300.7v-24.2h14.4l14.9,14.9h19
		c1,6.6,6.6,11.7,13.4,11.7c7.5,0,13.6-6.1,13.6-13.6S373.1,275.8,365.6,275.8z M345.4,241.9c4.1,0,7.4,3.3,7.4,7.4
		s-3.3,7.4-7.4,7.4c-4.1,0-7.4-3.3-7.4-7.4S341.3,241.9,345.4,241.9z M365.6,199.3c5.4,0,9.7,4.4,9.7,9.7c0,5.4-4.4,9.7-9.7,9.7
		c-5.4,0-9.7-4.4-9.7-9.7C355.9,203.6,360.3,199.3,365.6,199.3z M280.3,133.6c0-5.4,4.4-9.7,9.7-9.7s9.7,4.4,9.7,9.7
		c0,5.4-4.4,9.7-9.7,9.7S280.3,138.9,280.3,133.6z M242.5,153.8c0-4.1,3.3-7.4,7.4-7.4s7.4,3.3,7.4,7.4c0,4.1-3.3,7.4-7.4,7.4
		S242.5,157.9,242.5,153.8z M199.9,133.6c0-5.4,4.4-9.7,9.7-9.7c5.4,0,9.7,4.4,9.7,9.7c0,5.4-4.4,9.7-9.7,9.7
		C204.3,143.3,199.9,138.9,199.9,133.6z M134.1,218.8c-5.4,0-9.7-4.4-9.7-9.7c0-5.4,4.4-9.7,9.7-9.7c5.4,0,9.7,4.4,9.7,9.7
		C143.8,214.4,139.4,218.8,134.1,218.8z M154.3,256.6c-4.1,0-7.4-3.3-7.4-7.4c0-4.1,3.3-7.4,7.4-7.4s7.4,3.3,7.4,7.4
		C161.6,253.3,158.3,256.6,154.3,256.6z M134.1,299.2c-5.4,0-9.7-4.4-9.7-9.7c0-5.4,4.4-9.7,9.7-9.7c5.4,0,9.7,4.4,9.7,9.7
		C143.8,294.8,139.4,299.2,134.1,299.2z M219.6,365.5c0,5.4-4.4,9.7-9.7,9.7c-5.4,0-9.7-4.4-9.7-9.7s4.4-9.7,9.7-9.7
		C215.3,355.8,219.6,360.2,219.6,365.5z M257.4,345.3c0,4.1-3.3,7.4-7.4,7.4s-7.4-3.3-7.4-7.4c0-4.1,3.3-7.4,7.4-7.4
		S257.4,341.3,257.4,345.3z M300,365.5c0,5.4-4.4,9.7-9.7,9.7c-5.4,0-9.7-4.4-9.7-9.7s4.4-9.7,9.7-9.7
		C295.7,355.8,300,360.2,300,365.5z M329.2,160.3c4.1,0,7.4,3.3,7.4,7.4s-3.3,7.4-7.4,7.4c-4.1,0-7.4-3.3-7.4-7.4
		S325.1,160.3,329.2,160.3z M163.1,167.6c0-4.1,3.3-7.4,7.4-7.4s7.4,3.3,7.4,7.4s-3.3,7.4-7.4,7.4S163.1,171.7,163.1,167.6z
		 M170.8,338.8c-4.1,0-7.4-3.3-7.4-7.4s3.3-7.4,7.4-7.4s7.4,3.3,7.4,7.4S174.9,338.8,170.8,338.8z M300,299.7H199.7V199.4H300V299.7
		z M331.6,321.2c4.1,0,7.4,3.3,7.4,7.4s-3.3,7.4-7.4,7.4s-7.4-3.3-7.4-7.4S327.5,321.2,331.6,321.2z M365.6,299.1
		c-5.4,0-9.7-4.4-9.7-9.7c0-5.4,4.4-9.7,9.7-9.7c5.4,0,9.7,4.4,9.7,9.7C375.3,294.7,371,299.1,365.6,299.1z"/>
</g>
</svg>
