<svg width="335" height="256" viewBox="0 0 335 256" fill="none" xmlns="http://www.w3.org/2000/svg">
<g filter="url(#filter0_d_147_1194)">
<rect x="115.457" y="4.54213" width="104.674" height="104.674" rx="52.3371" fill="url(#paint0_linear_147_1194)" shape-rendering="crispEdges"/>
<rect x="116.111" y="5.19634" width="103.366" height="103.366" rx="51.6828" stroke="#F1F1F1" stroke-width="1.30843" shape-rendering="crispEdges"/>
<g clip-path="url(#clip0_147_1194)">
<path fill-rule="evenodd" clip-rule="evenodd" d="M147.352 38.0141C147.352 36.7615 147.849 35.5603 148.735 34.6747C149.62 33.789 150.822 33.2915 152.074 33.2915H177.913L188.281 43.6591V75.7949C188.281 77.0474 187.783 78.2486 186.898 79.1343C186.012 80.0199 184.811 80.5175 183.558 80.5175H152.074C150.822 80.5175 149.62 80.0199 148.735 79.1343C147.849 78.2486 147.352 77.0474 147.352 75.7949V38.0141ZM156.797 45.8756L172.539 45.8851V49.0335L156.797 49.024V45.8756ZM178.836 55.3145H156.797V58.4629H178.836V55.3145ZM178.836 64.7786L156.797 64.7534V67.9018L178.836 67.9239V64.7786Z" fill="black" fill-opacity="0.5"/>
</g>
</g>
<g filter="url(#filter1_d_147_1194)">
<rect x="188.711" y="64.3833" width="104.674" height="104.674" rx="52.3371" fill="url(#paint1_linear_147_1194)" shape-rendering="crispEdges"/>
<rect x="189.365" y="65.0375" width="103.366" height="103.366" rx="51.6828" stroke="#F1F1F1" stroke-width="1.30843" shape-rendering="crispEdges"/>
<path d="M231.816 114.702C234.705 111.813 239.744 111.813 242.634 114.702L244.437 116.505L248.043 112.899L246.24 111.096C243.835 108.689 240.632 107.36 237.225 107.36C233.818 107.36 230.615 108.689 228.21 111.096L222.798 116.505C220.413 118.9 219.074 122.142 219.074 125.521C219.074 128.901 220.413 132.143 222.798 134.538C223.981 135.723 225.386 136.662 226.934 137.302C228.481 137.942 230.139 138.27 231.813 138.266C233.488 138.27 235.147 137.942 236.694 137.303C238.242 136.663 239.648 135.723 240.831 134.538L242.634 132.735L239.028 129.129L237.225 130.932C235.788 132.362 233.842 133.166 231.815 133.166C229.787 133.166 227.841 132.362 226.404 130.932C224.972 129.495 224.168 127.55 224.168 125.521C224.168 123.493 224.972 121.548 226.404 120.111L231.816 114.702Z" fill="black" fill-opacity="0.5"/>
<path d="M240.833 98.4727L239.03 100.276L242.636 103.882L244.439 102.079C245.876 100.648 247.821 99.8448 249.849 99.8448C251.877 99.8448 253.822 100.648 255.26 102.079C256.692 103.515 257.496 105.461 257.496 107.489C257.496 109.517 256.692 111.463 255.26 112.899L249.848 118.308C246.959 121.198 241.919 121.198 239.03 118.308L237.227 116.505L233.621 120.111L235.424 121.914C237.829 124.322 241.032 125.65 244.439 125.65C247.846 125.65 251.049 124.322 253.454 121.914L258.866 116.505C261.251 114.111 262.59 110.869 262.59 107.489C262.59 104.109 261.251 100.867 258.866 98.4727C256.472 96.0852 253.23 94.7444 249.849 94.7444C246.469 94.7444 243.226 96.0852 240.833 98.4727Z" fill="black" fill-opacity="0.5"/>
</g>
<g filter="url(#filter2_d_147_1194)">
<rect x="114.711" y="142.133" width="104.674" height="104.674" rx="52.3371" fill="url(#paint2_linear_147_1194)" shape-rendering="crispEdges"/>
<rect x="115.365" y="142.787" width="103.366" height="103.366" rx="51.6828" stroke="#F1F1F1" stroke-width="1.30843" shape-rendering="crispEdges"/>
<g clip-path="url(#clip1_147_1194)">
<path d="M149.134 170.882C145.83 170.882 143.145 173.556 143.145 176.845V212.622C143.145 215.911 145.83 218.585 149.134 218.585H156.621V208.15C156.621 204.861 159.307 202.187 162.61 202.187H179.082V186.768C179.082 185.184 178.455 183.665 177.331 182.547L167.355 172.624C166.232 171.506 164.716 170.882 163.125 170.882H149.134ZM173.607 187.28H164.856C163.612 187.28 162.61 186.283 162.61 185.044V176.333L173.607 187.28ZM162.61 206.287C161.581 206.287 160.739 207.125 160.739 208.15V220.076C160.739 221.101 161.581 221.939 162.61 221.939C163.64 221.939 164.482 221.101 164.482 220.076V217.467H165.605C168.703 217.467 171.22 214.961 171.22 211.877C171.22 208.793 168.703 206.287 165.605 206.287H162.61ZM165.605 213.74H164.482V210.014H165.605C166.635 210.014 167.477 210.852 167.477 211.877C167.477 212.902 166.635 213.74 165.605 213.74ZM174.589 206.287C173.56 206.287 172.718 207.125 172.718 208.15V220.076C172.718 221.101 173.56 221.939 174.589 221.939H177.584C180.27 221.939 182.451 219.768 182.451 217.094V211.132C182.451 208.458 180.27 206.287 177.584 206.287H174.589ZM176.461 218.213V210.014H177.584C178.202 210.014 178.707 210.517 178.707 211.132V217.094C178.707 217.709 178.202 218.213 177.584 218.213H176.461ZM184.697 208.15V220.076C184.697 221.101 185.539 221.939 186.568 221.939C187.598 221.939 188.44 221.101 188.44 220.076V215.976H191.061C192.09 215.976 192.932 215.138 192.932 214.113C192.932 213.088 192.09 212.25 191.061 212.25H188.44V210.014H191.061C192.09 210.014 192.932 209.175 192.932 208.15C192.932 207.125 192.09 206.287 191.061 206.287H186.568C185.539 206.287 184.697 207.125 184.697 208.15Z" fill="black" fill-opacity="0.5"/>
</g>
</g>
<g filter="url(#filter3_d_147_1194)">
<rect x="43.3828" y="64.4021" width="104.674" height="104.674" rx="52.3371" fill="url(#paint3_linear_147_1194)" shape-rendering="crispEdges"/>
<rect x="44.037" y="65.0564" width="103.366" height="103.366" rx="51.6828" stroke="#F1F1F1" stroke-width="1.30843" shape-rendering="crispEdges"/>
<g clip-path="url(#clip2_147_1194)">
<path d="M119.775 104.804C119.486 103.739 118.924 102.768 118.144 101.988C117.364 101.208 116.393 100.645 115.328 100.357C111.429 99.2938 95.7369 99.2938 95.7369 99.2938C95.7369 99.2938 80.0441 99.326 76.1451 100.389C75.0801 100.678 74.1091 101.24 73.329 102.02C72.5488 102.8 71.9867 103.771 71.6985 104.836C70.5192 111.764 70.0617 122.32 71.7309 128.971C72.0191 130.036 72.5813 131.007 73.3614 131.787C74.1415 132.567 75.1125 133.129 76.1775 133.418C80.0764 134.481 95.7689 134.481 95.7689 134.481C95.7689 134.481 111.461 134.481 115.36 133.418C116.425 133.129 117.396 132.567 118.176 131.787C118.956 131.007 119.519 130.036 119.807 128.971C121.051 122.033 121.434 111.484 119.775 104.804Z" fill="#FF0000"/>
<path d="M90.7422 124.427L103.76 116.887L90.7422 109.347V124.427Z" fill="white"/>
</g>
</g>
<g filter="url(#filter4_dd_147_1194)">
<path d="M167.321 57.4846H167.32C130.749 57.4846 101.102 87.1318 101.102 123.703V123.704C101.102 160.275 130.749 189.922 167.32 189.922H167.321C203.892 189.922 233.539 160.275 233.539 123.704V123.703C233.539 87.1318 203.892 57.4846 167.321 57.4846Z" fill="url(#paint4_linear_147_1194)"/>
<path d="M167.321 58.3124H167.321C131.206 58.3124 101.93 87.5889 101.93 123.703V123.704C101.93 159.818 131.206 189.095 167.321 189.095H167.321C203.435 189.095 232.712 159.818 232.712 123.704V123.703C232.712 87.5889 203.435 58.3124 167.321 58.3124Z" stroke="url(#paint5_linear_147_1194)" stroke-width="1.65547"/>
<path d="M178.225 87.3738C174.542 86.219 170.704 85.633 166.844 85.6362C145.891 85.6362 128.906 102.621 128.906 123.574C128.906 144.527 145.891 161.512 166.844 161.512C187.797 161.512 204.782 144.527 204.782 123.574C204.785 119.714 204.199 115.876 203.044 112.193" stroke="url(#paint6_linear_147_1194)" stroke-width="5.69068" stroke-linecap="round" stroke-linejoin="round"/>
<path d="M142.184 152.027L144.308 148.309C145.967 145.405 148.364 142.991 151.258 141.312C154.15 139.633 157.435 138.749 160.781 138.749H172.906C176.25 138.75 179.534 139.634 182.426 141.313C185.319 142.992 187.715 145.406 189.374 148.309L191.499 152.027M178.225 115.986C178.225 119.005 177.025 121.9 174.891 124.034C172.757 126.168 169.861 127.368 166.843 127.368C163.825 127.368 160.929 126.168 158.795 124.034C156.661 121.9 155.462 119.005 155.462 115.986C155.462 112.968 156.661 110.073 158.795 107.939C160.929 105.805 163.825 104.605 166.843 104.605C169.861 104.605 172.757 105.805 174.891 107.939C177.025 110.073 178.225 112.968 178.225 115.986ZM193.301 85.7158C193.323 85.6096 193.475 85.6096 193.498 85.7158C194.063 88.4753 195.426 91.008 197.417 92.9996C199.409 94.9913 201.941 96.3541 204.701 96.9189C204.807 96.9417 204.807 97.0934 204.701 97.1162C201.941 97.681 199.409 99.0439 197.417 101.035C195.426 103.028 194.063 105.56 193.498 108.319C193.475 108.425 193.323 108.425 193.301 108.319C192.736 105.56 191.373 103.028 189.382 101.035C187.39 99.0439 184.858 97.681 182.098 97.1162C181.992 97.0934 181.992 96.9417 182.098 96.9189C184.858 96.3541 187.39 94.9913 189.382 92.9996C191.373 91.008 192.736 88.4753 193.301 85.7158Z" stroke="url(#paint7_linear_147_1194)" stroke-width="5.69068" stroke-linecap="round" stroke-linejoin="round"/>
</g>
<defs>
<filter id="filter0_d_147_1194" x="109.915" y="-2.6226e-06" width="117.76" height="117.758" filterUnits="userSpaceOnUse" color-interpolation-filters="sRGB">
<feFlood flood-opacity="0" result="BackgroundImageFix"/>
<feColorMatrix in="SourceAlpha" type="matrix" values="0 0 0 0 0 0 0 0 0 0 0 0 0 0 0 0 0 0 127 0" result="hardAlpha"/>
<feMorphology radius="1.30843" operator="erode" in="SourceAlpha" result="effect1_dropShadow_147_1194"/>
<feOffset dx="1" dy="2"/>
<feGaussianBlur stdDeviation="3.92528"/>
<feComposite in2="hardAlpha" operator="out"/>
<feColorMatrix type="matrix" values="0 0 0 0 0 0 0 0 0 0 0 0 0 0 0 0 0 0 0.12 0"/>
<feBlend mode="normal" in2="BackgroundImageFix" result="effect1_dropShadow_147_1194"/>
<feBlend mode="normal" in="SourceGraphic" in2="effect1_dropShadow_147_1194" result="shape"/>
</filter>
<filter id="filter1_d_147_1194" x="183.169" y="59.8411" width="117.76" height="117.758" filterUnits="userSpaceOnUse" color-interpolation-filters="sRGB">
<feFlood flood-opacity="0" result="BackgroundImageFix"/>
<feColorMatrix in="SourceAlpha" type="matrix" values="0 0 0 0 0 0 0 0 0 0 0 0 0 0 0 0 0 0 127 0" result="hardAlpha"/>
<feMorphology radius="1.30843" operator="erode" in="SourceAlpha" result="effect1_dropShadow_147_1194"/>
<feOffset dx="1" dy="2"/>
<feGaussianBlur stdDeviation="3.92528"/>
<feComposite in2="hardAlpha" operator="out"/>
<feColorMatrix type="matrix" values="0 0 0 0 0 0 0 0 0 0 0 0 0 0 0 0 0 0 0.12 0"/>
<feBlend mode="normal" in2="BackgroundImageFix" result="effect1_dropShadow_147_1194"/>
<feBlend mode="normal" in="SourceGraphic" in2="effect1_dropShadow_147_1194" result="shape"/>
</filter>
<filter id="filter2_d_147_1194" x="109.169" y="137.59" width="117.76" height="117.758" filterUnits="userSpaceOnUse" color-interpolation-filters="sRGB">
<feFlood flood-opacity="0" result="BackgroundImageFix"/>
<feColorMatrix in="SourceAlpha" type="matrix" values="0 0 0 0 0 0 0 0 0 0 0 0 0 0 0 0 0 0 127 0" result="hardAlpha"/>
<feMorphology radius="1.30843" operator="erode" in="SourceAlpha" result="effect1_dropShadow_147_1194"/>
<feOffset dx="1" dy="2"/>
<feGaussianBlur stdDeviation="3.92528"/>
<feComposite in2="hardAlpha" operator="out"/>
<feColorMatrix type="matrix" values="0 0 0 0 0 0 0 0 0 0 0 0 0 0 0 0 0 0 0.12 0"/>
<feBlend mode="normal" in2="BackgroundImageFix" result="effect1_dropShadow_147_1194"/>
<feBlend mode="normal" in="SourceGraphic" in2="effect1_dropShadow_147_1194" result="shape"/>
</filter>
<filter id="filter3_d_147_1194" x="37.8407" y="59.86" width="117.76" height="117.758" filterUnits="userSpaceOnUse" color-interpolation-filters="sRGB">
<feFlood flood-opacity="0" result="BackgroundImageFix"/>
<feColorMatrix in="SourceAlpha" type="matrix" values="0 0 0 0 0 0 0 0 0 0 0 0 0 0 0 0 0 0 127 0" result="hardAlpha"/>
<feMorphology radius="1.30843" operator="erode" in="SourceAlpha" result="effect1_dropShadow_147_1194"/>
<feOffset dx="1" dy="2"/>
<feGaussianBlur stdDeviation="3.92528"/>
<feComposite in2="hardAlpha" operator="out"/>
<feColorMatrix type="matrix" values="0 0 0 0 0 0 0 0 0 0 0 0 0 0 0 0 0 0 0.12 0"/>
<feBlend mode="normal" in2="BackgroundImageFix" result="effect1_dropShadow_147_1194"/>
<feBlend mode="normal" in="SourceGraphic" in2="effect1_dropShadow_147_1194" result="shape"/>
</filter>
<filter id="filter4_dd_147_1194" x="81.2359" y="37.619" width="172.169" height="172.169" filterUnits="userSpaceOnUse" color-interpolation-filters="sRGB">
<feFlood flood-opacity="0" result="BackgroundImageFix"/>
<feColorMatrix in="SourceAlpha" type="matrix" values="0 0 0 0 0 0 0 0 0 0 0 0 0 0 0 0 0 0 127 0" result="hardAlpha"/>
<feOffset dy="3.31094"/>
<feGaussianBlur stdDeviation="3.31094"/>
<feComposite in2="hardAlpha" operator="out"/>
<feColorMatrix type="matrix" values="0 0 0 0 0 0 0 0 0 0 0 0 0 0 0 0 0 0 0.1 0"/>
<feBlend mode="normal" in2="BackgroundImageFix" result="effect1_dropShadow_147_1194"/>
<feColorMatrix in="SourceAlpha" type="matrix" values="0 0 0 0 0 0 0 0 0 0 0 0 0 0 0 0 0 0 127 0" result="hardAlpha"/>
<feOffset dy="6.62187"/>
<feGaussianBlur stdDeviation="4.9664"/>
<feComposite in2="hardAlpha" operator="out"/>
<feColorMatrix type="matrix" values="0 0 0 0 0 0 0 0 0 0 0 0 0 0 0 0 0 0 0.1 0"/>
<feBlend mode="normal" in2="effect1_dropShadow_147_1194" result="effect2_dropShadow_147_1194"/>
<feBlend mode="normal" in="SourceGraphic" in2="effect2_dropShadow_147_1194" result="shape"/>
</filter>
<linearGradient id="paint0_linear_147_1194" x1="167.794" y1="4.54213" x2="167.794" y2="109.216" gradientUnits="userSpaceOnUse">
<stop stop-color="white"/>
<stop offset="1" stop-color="#E6E6E6"/>
</linearGradient>
<linearGradient id="paint1_linear_147_1194" x1="241.048" y1="64.3833" x2="241.048" y2="169.057" gradientUnits="userSpaceOnUse">
<stop stop-color="white"/>
<stop offset="1" stop-color="#E6E6E6"/>
</linearGradient>
<linearGradient id="paint2_linear_147_1194" x1="167.048" y1="142.133" x2="167.048" y2="246.806" gradientUnits="userSpaceOnUse">
<stop stop-color="white"/>
<stop offset="1" stop-color="#E6E6E6"/>
</linearGradient>
<linearGradient id="paint3_linear_147_1194" x1="95.7195" y1="64.4021" x2="95.7195" y2="169.076" gradientUnits="userSpaceOnUse">
<stop stop-color="white"/>
<stop offset="1" stop-color="#E6E6E6"/>
</linearGradient>
<linearGradient id="paint4_linear_147_1194" x1="167.32" y1="57.4846" x2="167.32" y2="189.922" gradientUnits="userSpaceOnUse">
<stop stop-color="white"/>
<stop offset="1" stop-color="#E6E6E6"/>
</linearGradient>
<linearGradient id="paint5_linear_147_1194" x1="101.272" y1="57.6557" x2="233.469" y2="189.852" gradientUnits="userSpaceOnUse">
<stop stop-color="white"/>
<stop offset="1" stop-color="#CFCFCF" stop-opacity="0.5"/>
</linearGradient>
<linearGradient id="paint6_linear_147_1194" x1="128.906" y1="85.6362" x2="204.782" y2="161.512" gradientUnits="userSpaceOnUse">
<stop stop-color="#83D5FC"/>
<stop offset="1" stop-color="#0578AE"/>
</linearGradient>
<linearGradient id="paint7_linear_147_1194" x1="142.184" y1="85.6362" x2="208.46" y2="148.125" gradientUnits="userSpaceOnUse">
<stop stop-color="#83D5FC"/>
<stop offset="1" stop-color="#0578AE"/>
</linearGradient>
<clipPath id="clip0_147_1194">
<rect width="47.226" height="47.226" fill="white" transform="translate(144.207 33.2917)"/>
</clipPath>
<clipPath id="clip1_147_1194">
<rect width="59.895" height="53.24" fill="white" transform="translate(136.938 170.882)"/>
</clipPath>
<clipPath id="clip2_147_1194">
<rect width="50.2436" height="35.3275" fill="white" transform="translate(70.6406 99.2935)"/>
</clipPath>
</defs>
</svg>
