<svg width="390" height="378" viewBox="0 0 390 378" fill="none" xmlns="http://www.w3.org/2000/svg">
<path d="M162.645 32.6C162.645 21.5109 162.645 15.9664 164.803 11.731C166.701 8.00536 169.73 4.97635 173.456 3.07805C177.691 0.919983 183.235 0.919983 194.325 0.919983H363.565C368.493 0.919983 370.957 0.919983 372.84 1.87913C374.495 2.72281 375.842 4.06904 376.685 5.72487C377.645 7.60729 377.645 10.0715 377.645 15V44.8C377.645 52.1927 377.645 55.889 376.206 58.7127C374.94 61.1964 372.921 63.2157 370.437 64.4813C367.614 65.92 363.917 65.92 356.525 65.92H194.325C183.235 65.92 177.691 65.92 173.456 63.7619C169.73 61.8636 166.701 58.8346 164.803 55.109C162.645 50.8735 162.645 45.329 162.645 34.24V32.6Z" fill="#CCF3FE"/>
<path d="M274.098 26.52V13.3442H275.742V26.52H274.098ZM283.089 26.52V16.7043H284.678V18.1744H284.815C285.064 17.657 285.424 17.2552 285.892 16.9691C286.367 16.6769 286.967 16.5308 287.691 16.5308C288.793 16.5308 289.639 16.8474 290.229 17.4804C290.82 18.1074 291.115 19.0022 291.115 20.1649V26.52H289.526V20.5393C289.526 19.6566 289.341 19.0022 288.969 18.5761C288.598 18.15 288.02 17.937 287.235 17.937C286.717 17.937 286.267 18.0496 285.883 18.2748C285.5 18.5001 285.201 18.8196 284.988 19.2336C284.781 19.6414 284.678 20.1345 284.678 20.7128V26.52H283.089ZM297.478 26.6935C296.547 26.6935 295.743 26.4865 295.067 26.0726C294.398 25.6586 293.88 25.0743 293.515 24.3195C293.156 23.5646 292.976 22.6729 292.976 21.6441V21.635C292.976 20.6245 293.156 19.7358 293.515 18.9688C293.88 18.2018 294.395 17.6052 295.058 17.1791C295.722 16.7469 296.495 16.5308 297.378 16.5308C298.272 16.5308 299.039 16.7378 299.679 17.1517C300.318 17.5596 300.808 18.1348 301.149 18.8775C301.496 19.614 301.669 20.4723 301.669 21.4524V22.0641H293.798V20.7949H300.856L300.071 21.9546V21.3337C300.071 20.5606 299.955 19.9245 299.724 19.4253C299.499 18.9262 299.182 18.5548 298.775 18.3113C298.367 18.0679 297.898 17.9461 297.368 17.9461C296.845 17.9461 296.373 18.0739 295.953 18.3296C295.539 18.5853 295.21 18.9657 294.967 19.471C294.723 19.9762 294.602 20.5971 294.602 21.3337V21.9546C294.602 22.6546 294.72 23.2511 294.958 23.7442C295.195 24.2373 295.533 24.6177 295.971 24.8856C296.41 25.1473 296.924 25.2782 297.514 25.2782C297.959 25.2782 298.342 25.2173 298.665 25.0956C298.994 24.9738 299.265 24.8186 299.478 24.6299C299.691 24.4412 299.843 24.2464 299.934 24.0455L299.962 23.9633H301.55L301.532 24.0364C301.447 24.3712 301.295 24.6969 301.076 25.0134C300.862 25.3299 300.586 25.616 300.245 25.8717C299.904 26.1213 299.502 26.3222 299.039 26.4743C298.577 26.6204 298.056 26.6935 297.478 26.6935ZM307.639 26.6935C306.708 26.6935 305.904 26.4865 305.229 26.0726C304.559 25.6586 304.042 25.0743 303.676 24.3195C303.317 23.5646 303.138 22.6729 303.138 21.6441V21.635C303.138 20.6245 303.317 19.7358 303.676 18.9688C304.042 18.2018 304.556 17.6052 305.22 17.1791C305.883 16.7469 306.656 16.5308 307.539 16.5308C308.434 16.5308 309.201 16.7378 309.84 17.1517C310.479 17.5596 310.969 18.1348 311.31 18.8775C311.657 19.614 311.83 20.4723 311.83 21.4524V22.0641H303.959V20.7949H311.018L310.232 21.9546V21.3337C310.232 20.5606 310.117 19.9245 309.885 19.4253C309.66 18.9262 309.344 18.5548 308.936 18.3113C308.528 18.0679 308.059 17.9461 307.53 17.9461C307.006 17.9461 306.534 18.0739 306.114 18.3296C305.7 18.5853 305.372 18.9657 305.128 19.471C304.885 19.9762 304.763 20.5971 304.763 21.3337V21.9546C304.763 22.6546 304.882 23.2511 305.119 23.7442C305.357 24.2373 305.694 24.6177 306.133 24.8856C306.571 25.1473 307.085 25.2782 307.676 25.2782C308.12 25.2782 308.504 25.2173 308.826 25.0956C309.155 24.9738 309.426 24.8186 309.639 24.6299C309.852 24.4412 310.004 24.2464 310.095 24.0455L310.123 23.9633H311.712L311.693 24.0364C311.608 24.3712 311.456 24.6969 311.237 25.0134C311.024 25.3299 310.747 25.616 310.406 25.8717C310.065 26.1213 309.663 26.3222 309.201 26.4743C308.738 26.6204 308.218 26.6935 307.639 26.6935ZM317.426 26.6935C316.598 26.6935 315.874 26.4835 315.253 26.0634C314.632 25.6434 314.151 25.053 313.81 24.2921C313.469 23.5312 313.299 22.6394 313.299 21.6167V21.5985C313.299 20.5758 313.469 19.684 313.81 18.9231C314.151 18.1622 314.629 17.5748 315.244 17.1609C315.865 16.7408 316.589 16.5308 317.417 16.5308C317.867 16.5308 318.291 16.6039 318.686 16.75C319.088 16.89 319.444 17.0878 319.754 17.3435C320.065 17.5991 320.308 17.9035 320.485 18.2566H320.622V12.8146H322.211V26.52H320.622V24.9495H320.485C320.284 25.3147 320.031 25.6282 319.727 25.89C319.423 26.1456 319.076 26.3435 318.686 26.4835C318.303 26.6235 317.883 26.6935 317.426 26.6935ZM317.782 25.2873C318.373 25.2873 318.884 25.1382 319.316 24.8399C319.748 24.5416 320.08 24.1186 320.311 23.5707C320.543 23.0229 320.658 22.3715 320.658 21.6167V21.5985C320.658 20.8436 320.543 20.1953 320.311 19.6536C320.08 19.1057 319.748 18.6827 319.316 18.3844C318.884 18.0861 318.373 17.937 317.782 17.937C317.192 17.937 316.68 18.0861 316.248 18.3844C315.822 18.6766 315.493 19.0966 315.262 19.6445C315.037 20.1862 314.924 20.8376 314.924 21.5985V21.6167C314.924 22.3776 315.037 23.032 315.262 23.5799C315.493 24.1277 315.822 24.5508 316.248 24.849C316.68 25.1412 317.192 25.2873 317.782 25.2873ZM329.531 26.52V12.8146H331.12V18.1835H331.257C331.506 17.66 331.865 17.2552 332.334 16.9691C332.809 16.6769 333.408 16.5308 334.133 16.5308C334.863 16.5308 335.484 16.6739 335.996 16.96C336.507 17.2461 336.896 17.6631 337.164 18.2109C337.438 18.7527 337.575 19.4131 337.575 20.1923V26.52H335.986V20.5667C335.986 19.6779 335.798 19.0175 335.42 18.5853C335.043 18.1531 334.462 17.937 333.676 17.937C333.159 17.937 332.708 18.0496 332.325 18.2748C331.941 18.5001 331.643 18.8196 331.43 19.2336C331.223 19.6475 331.12 20.1406 331.12 20.7128V26.52H329.531ZM343.938 26.6935C343.007 26.6935 342.203 26.4865 341.527 26.0726C340.858 25.6586 340.34 25.0743 339.975 24.3195C339.616 23.5646 339.436 22.6729 339.436 21.6441V21.635C339.436 20.6245 339.616 19.7358 339.975 18.9688C340.34 18.2018 340.855 17.6052 341.518 17.1791C342.182 16.7469 342.955 16.5308 343.838 16.5308C344.732 16.5308 345.499 16.7378 346.139 17.1517C346.778 17.5596 347.268 18.1348 347.609 18.8775C347.956 19.614 348.129 20.4723 348.129 21.4524V22.0641H340.258V20.7949H347.316L346.531 21.9546V21.3337C346.531 20.5606 346.415 19.9245 346.184 19.4253C345.959 18.9262 345.642 18.5548 345.235 18.3113C344.827 18.0679 344.358 17.9461 343.828 17.9461C343.305 17.9461 342.833 18.0739 342.413 18.3296C341.999 18.5853 341.67 18.9657 341.427 19.471C341.183 19.9762 341.062 20.5971 341.062 21.3337V21.9546C341.062 22.6546 341.18 23.2511 341.418 23.7442C341.655 24.2373 341.993 24.6177 342.431 24.8856C342.87 25.1473 343.384 25.2782 343.974 25.2782C344.419 25.2782 344.802 25.2173 345.125 25.0956C345.454 24.9738 345.725 24.8186 345.938 24.6299C346.151 24.4412 346.303 24.2464 346.394 24.0455L346.422 23.9633H348.01L347.992 24.0364C347.907 24.3712 347.755 24.6969 347.536 25.0134C347.322 25.3299 347.046 25.616 346.705 25.8717C346.364 26.1213 345.962 26.3222 345.499 26.4743C345.037 26.6204 344.516 26.6935 343.938 26.6935ZM350.182 26.52V12.8146H351.771V26.52H350.182ZM354.299 29.798V16.7043H355.887V18.2748H356.024C356.225 17.9096 356.478 17.5991 356.782 17.3435C357.087 17.0817 357.434 16.8808 357.823 16.7408C358.213 16.6008 358.636 16.5308 359.092 16.5308C359.926 16.5308 360.651 16.7408 361.266 17.1609C361.88 17.5809 362.358 18.1713 362.699 18.9322C363.04 19.6931 363.21 20.5849 363.21 21.6076V21.6167C363.21 22.6455 363.04 23.5403 362.699 24.3012C362.358 25.056 361.88 25.6434 361.266 26.0634C360.651 26.4835 359.926 26.6935 359.092 26.6935C358.642 26.6935 358.216 26.6235 357.814 26.4835C357.418 26.3374 357.068 26.1365 356.764 25.8808C356.46 25.6252 356.213 25.3208 356.024 24.9677H355.887V29.798H354.299ZM358.727 25.2873C359.33 25.2873 359.841 25.1412 360.261 24.849C360.687 24.5508 361.013 24.1277 361.238 23.5799C361.469 23.032 361.585 22.3776 361.585 21.6167V21.6076C361.585 20.8406 361.469 20.1862 361.238 19.6445C361.013 19.0966 360.687 18.6766 360.261 18.3844C359.841 18.0861 359.33 17.937 358.727 17.937C358.137 17.937 357.625 18.0861 357.193 18.3844C356.767 18.6827 356.435 19.1057 356.198 19.6536C355.967 20.1953 355.851 20.8467 355.851 21.6076V21.6167C355.851 22.3715 355.967 23.0229 356.198 23.5707C356.435 24.1186 356.767 24.5416 357.193 24.8399C357.625 25.1382 358.137 25.2873 358.727 25.2873Z" fill="black"/>
<path d="M310.132 55.32V46.6408H310.02L307.458 48.4982V47.1715L310.139 45.2444H311.389V55.32H310.132ZM318.453 55.32V53.2322H313.544V52.0871C313.819 51.6309 314.098 51.1701 314.382 50.7046C314.666 50.2345 314.953 49.7666 315.241 49.3011C315.534 48.831 315.828 48.3655 316.121 47.9047C316.414 47.4438 316.705 46.99 316.994 46.5431C317.287 46.0962 317.576 45.6633 317.86 45.2444H319.682V52.1081H321.113V53.2322H319.682V55.32H318.453ZM314.829 52.1151H318.46V46.4104H318.376C318.148 46.7502 317.915 47.104 317.678 47.4717C317.441 47.8348 317.199 48.2072 316.952 48.5889C316.71 48.9706 316.468 49.3547 316.226 49.741C315.984 50.1274 315.744 50.5138 315.506 50.9001C315.274 51.2818 315.048 51.6589 314.829 52.0313V52.1151ZM323.604 53.8886C323.357 53.8886 323.143 53.8002 322.962 53.6233C322.785 53.4417 322.696 53.2276 322.696 52.9809C322.696 52.7295 322.785 52.5154 322.962 52.3385C323.143 52.1616 323.357 52.0732 323.604 52.0732C323.856 52.0732 324.07 52.1616 324.247 52.3385C324.423 52.5154 324.512 52.7295 324.512 52.9809C324.512 53.2276 324.423 53.4417 324.247 53.6233C324.07 53.8002 323.856 53.8886 323.604 53.8886ZM323.604 48.4842C323.357 48.4842 323.143 48.3958 322.962 48.2189C322.785 48.0373 322.696 47.8232 322.696 47.5765C322.696 47.3251 322.785 47.111 322.962 46.9341C323.143 46.7572 323.357 46.6688 323.604 46.6688C323.856 46.6688 324.07 46.7572 324.247 46.9341C324.423 47.111 324.512 47.3251 324.512 47.5765C324.512 47.8232 324.423 48.0373 324.247 48.2189C324.07 48.3958 323.856 48.4842 323.604 48.4842ZM329.949 55.5574C329.325 55.5574 328.769 55.434 328.28 55.1873C327.792 54.9406 327.398 54.6055 327.1 54.1819C326.807 53.7536 326.635 53.2718 326.584 52.7365L326.577 52.6597H327.785L327.792 52.7155C327.834 53.0367 327.95 53.33 328.141 53.5953C328.336 53.856 328.59 54.0632 328.902 54.2168C329.218 54.3704 329.572 54.4472 329.963 54.4472C330.41 54.4472 330.803 54.3494 331.143 54.1539C331.483 53.9538 331.748 53.6791 331.939 53.33C332.13 52.9809 332.226 52.5806 332.226 52.129V52.1151C332.226 51.6682 332.128 51.2725 331.932 50.928C331.741 50.5789 331.478 50.3066 331.143 50.1111C330.808 49.9156 330.422 49.8178 329.984 49.8178C329.649 49.8178 329.339 49.869 329.056 49.9715C328.776 50.0739 328.527 50.2275 328.308 50.4323C328.22 50.5161 328.136 50.6069 328.057 50.7046C327.983 50.8024 327.913 50.9118 327.848 51.0328H326.758L327.289 45.2444H332.896V46.3685H328.28L327.938 49.7759H328.05C328.199 49.5479 328.383 49.357 328.602 49.2034C328.82 49.0498 329.065 48.9334 329.335 48.8543C329.609 48.7705 329.898 48.7286 330.201 48.7286C330.834 48.7286 331.395 48.8752 331.883 49.1685C332.372 49.4571 332.756 49.8551 333.035 50.3625C333.315 50.8652 333.454 51.4424 333.454 52.0941V52.1081C333.454 52.783 333.303 53.3812 333.001 53.9026C332.703 54.4193 332.291 54.8242 331.765 55.1175C331.239 55.4108 330.634 55.5574 329.949 55.5574ZM338.473 55.4876C337.761 55.4876 337.13 55.3642 336.581 55.1175C336.031 54.8708 335.598 54.531 335.282 54.0981C334.97 53.6605 334.814 53.1601 334.814 52.5968V52.5829C334.814 52.1686 334.905 51.7846 335.086 51.4308C335.268 51.077 335.522 50.7768 335.847 50.5301C336.173 50.2787 336.55 50.1041 336.979 50.0064V49.9784C336.429 49.8062 335.992 49.5223 335.666 49.1266C335.34 48.7309 335.177 48.2677 335.177 47.7371V47.7231C335.177 47.2157 335.319 46.7642 335.603 46.3685C335.887 45.9682 336.278 45.654 336.776 45.4259C337.274 45.1932 337.84 45.0768 338.473 45.0768C339.111 45.0768 339.676 45.1932 340.17 45.4259C340.668 45.654 341.059 45.9682 341.343 46.3685C341.627 46.7642 341.769 47.2157 341.769 47.7231V47.7371C341.769 48.2677 341.606 48.7309 341.28 49.1266C340.959 49.5223 340.521 49.8062 339.967 49.9784V50.0064C340.4 50.1041 340.777 50.2787 341.098 50.5301C341.424 50.7768 341.678 51.077 341.859 51.4308C342.041 51.7846 342.132 52.1686 342.132 52.5829V52.5968C342.132 53.1601 341.976 53.6605 341.664 54.0981C341.352 54.531 340.919 54.8708 340.365 55.1175C339.816 55.3642 339.185 55.4876 338.473 55.4876ZM338.473 54.3913C338.938 54.3913 339.348 54.3122 339.702 54.1539C340.06 53.991 340.342 53.7699 340.547 53.4906C340.751 53.2066 340.854 52.8831 340.854 52.52V52.5061C340.854 52.1383 340.751 51.8125 340.547 51.5285C340.346 51.2446 340.067 51.0211 339.709 50.8582C339.35 50.6953 338.938 50.6138 338.473 50.6138C338.007 50.6138 337.595 50.6953 337.237 50.8582C336.879 51.0211 336.597 51.2446 336.392 51.5285C336.192 51.8125 336.092 52.1383 336.092 52.5061V52.52C336.092 52.8831 336.194 53.2066 336.399 53.4906C336.604 53.7699 336.886 53.991 337.244 54.1539C337.602 54.3122 338.012 54.3913 338.473 54.3913ZM338.473 49.5106C338.878 49.5106 339.234 49.4408 339.541 49.3011C339.848 49.1568 340.088 48.959 340.26 48.7076C340.433 48.4563 340.519 48.1677 340.519 47.8418V47.8279C340.519 47.502 340.433 47.2134 340.26 46.962C340.088 46.7107 339.848 46.5152 339.541 46.3755C339.234 46.2312 338.878 46.1591 338.473 46.1591C338.068 46.1591 337.712 46.2312 337.405 46.3755C337.097 46.5152 336.858 46.7107 336.685 46.962C336.513 47.2134 336.427 47.502 336.427 47.8279V47.8418C336.427 48.1677 336.513 48.4563 336.685 48.7076C336.858 48.959 337.097 49.1568 337.405 49.3011C337.712 49.4408 338.068 49.5106 338.473 49.5106Z" fill="#8F8FA0"/>
<g opacity="0.8">
<path d="M357.684 44.3312C357.97 43.9772 358.491 43.9233 358.845 44.2101C359.198 44.497 359.252 45.0164 358.966 45.3703L351.838 54.1701C351.691 54.3511 351.474 54.4622 351.241 54.4748C351.008 54.4872 350.781 54.4007 350.615 54.2365L347.294 50.9357C346.971 50.6147 346.969 50.093 347.29 49.7697C347.611 49.4465 348.133 49.4447 348.456 49.7658L351.13 52.4211L357.684 44.3312ZM363.204 44.3088C363.504 43.9654 364.025 43.9291 364.368 44.2287C364.711 44.5281 364.746 45.0494 364.447 45.3927L356.769 54.1935C356.619 54.3641 356.406 54.4659 356.18 54.4748C355.953 54.4835 355.731 54.3983 355.569 54.2394L354.448 53.1398C354.123 52.8209 354.118 52.2982 354.437 51.9728C354.756 51.6478 355.277 51.6432 355.603 51.9621L356.1 52.4494L363.204 44.3088Z" fill="#9C9CA3"/>
</g>
<path d="M383.824 68.25C378.145 69.361 372.375 66.4427 370.461 64.502C372.167 59.923 360.067 49.4603 367.76 49.1478C369.539 49.0757 370.87 44.3538 377.482 47.59C377.562 49.0034 377.738 53.9002 377.772 54.7337C378.24 66.2742 384.896 67.5423 383.824 68.25Z" fill="#CCF3FE"/>
<path d="M64.7539 88.8C64.7539 83.8715 64.7539 81.4073 65.713 79.5249C66.5567 77.869 67.903 76.5228 69.5588 75.6791C71.4412 74.72 73.9054 74.72 78.8339 74.72H192.954C202.674 74.72 210.554 82.5998 210.554 92.32C210.554 102.04 202.674 109.92 192.954 109.92H82.3539C76.1933 109.92 73.113 109.92 70.76 108.721C68.6902 107.666 67.0074 105.984 65.9528 103.914C64.7539 101.561 64.7539 98.4806 64.7539 92.32V88.8Z" fill="#F5F5F5"/>
<path d="M75.2074 97.72V84.5442H76.8509V97.72H75.2074ZM88.2526 101.181C87.4613 101.181 86.7704 101.068 86.1799 100.843C85.5894 100.624 85.1177 100.313 84.7646 99.9114C84.4176 99.5096 84.2015 99.044 84.1163 98.5144L84.1346 98.4961H85.769L85.7781 98.5144C85.8694 98.8796 86.1281 99.1809 86.5543 99.4183C86.9865 99.6557 87.5526 99.7744 88.2526 99.7744C89.1292 99.7744 89.814 99.5736 90.307 99.1718C90.8001 98.77 91.0466 98.207 91.0466 97.4826V95.556H90.9097C90.7027 95.9151 90.444 96.2225 90.1336 96.4782C89.8292 96.7339 89.4822 96.9286 89.0926 97.0626C88.7031 97.1904 88.283 97.2543 87.8326 97.2543C86.9865 97.2543 86.256 97.0534 85.6412 96.6517C85.0264 96.2438 84.5485 95.6838 84.2076 94.9716C83.8728 94.2594 83.7054 93.4407 83.7054 92.5154V92.4971C83.7054 91.5719 83.8759 90.7531 84.2168 90.0409C84.5576 89.3226 85.0355 88.7596 85.6503 88.3517C86.2712 87.9378 87.0108 87.7308 87.8691 87.7308C88.3256 87.7308 88.7487 87.8039 89.1383 87.95C89.5279 88.0961 89.8718 88.303 90.1701 88.5709C90.4744 88.8387 90.7271 89.1583 90.9279 89.5296H91.0284V87.9043H92.6171V97.5739C92.6171 98.3044 92.4406 98.9405 92.0876 99.4822C91.7345 100.024 91.2293 100.441 90.5718 100.733C89.9144 101.031 89.1413 101.181 88.2526 101.181ZM88.1795 95.8482C88.7822 95.8482 89.2996 95.7082 89.7318 95.4281C90.164 95.142 90.4957 94.7494 90.7271 94.2503C90.9645 93.745 91.0832 93.1667 91.0832 92.5154V92.4971C91.0832 91.8397 90.9645 91.2584 90.7271 90.7531C90.4957 90.2479 90.164 89.8522 89.7318 89.5661C89.2996 89.28 88.7822 89.137 88.1795 89.137C87.5708 89.137 87.0534 89.28 86.6273 89.5661C86.2073 89.8522 85.8847 90.2479 85.6594 90.7531C85.4403 91.2584 85.3307 91.8397 85.3307 92.4971V92.5154C85.3307 93.1728 85.4403 93.7511 85.6594 94.2503C85.8847 94.7494 86.2073 95.142 86.6273 95.4281C87.0534 95.7082 87.5708 95.8482 88.1795 95.8482ZM99.0895 97.8935C98.1643 97.8935 97.3608 97.6895 96.679 97.2817C96.0033 96.8678 95.4798 96.2834 95.1085 95.5286C94.7432 94.7677 94.5606 93.8637 94.5606 92.8167V92.7985C94.5606 91.7514 94.7432 90.8505 95.1085 90.0957C95.4798 89.3348 96.0033 88.7504 96.679 88.3426C97.3608 87.9347 98.1643 87.7308 99.0895 87.7308C100.021 87.7308 100.824 87.9347 101.5 88.3426C102.176 88.7504 102.696 89.3348 103.061 90.0957C103.433 90.8505 103.618 91.7514 103.618 92.7985V92.8167C103.618 93.8637 103.433 94.7677 103.061 95.5286C102.696 96.2834 102.176 96.8678 101.5 97.2817C100.83 97.6895 100.027 97.8935 99.0895 97.8935ZM99.0895 96.4873C99.7104 96.4873 100.234 96.3412 100.66 96.049C101.092 95.7569 101.421 95.3399 101.646 94.7981C101.877 94.2503 101.993 93.5898 101.993 92.8167V92.7985C101.993 92.0254 101.877 91.3649 101.646 90.8171C101.421 90.2692 101.092 89.8522 100.66 89.5661C100.228 89.28 99.7044 89.137 99.0895 89.137C98.4747 89.137 97.9512 89.2831 97.519 89.5753C97.0929 89.8614 96.7642 90.2783 96.5329 90.8262C96.3016 91.368 96.1859 92.0254 96.1859 92.7985V92.8167C96.1859 93.5898 96.3016 94.2503 96.5329 94.7981C96.7642 95.3399 97.0929 95.7569 97.519 96.049C97.9512 96.3412 98.4747 96.4873 99.0895 96.4873ZM109.032 97.8022C108.033 97.8022 107.306 97.5982 106.849 97.1904C106.399 96.7826 106.174 96.1099 106.174 95.1725V89.2192H104.631V87.9043H106.174V85.3568H107.817V87.9043H109.945V89.2192H107.817V94.7981C107.817 95.3764 107.927 95.7903 108.146 96.0399C108.365 96.2834 108.727 96.4051 109.233 96.4051C109.366 96.4051 109.482 96.4021 109.58 96.396C109.683 96.3899 109.805 96.3808 109.945 96.3686V97.7109C109.799 97.7352 109.65 97.7565 109.497 97.7748C109.345 97.793 109.19 97.8022 109.032 97.8022ZM117.365 101.153C117.256 101.153 117.137 101.147 117.009 101.135C116.881 101.129 116.763 101.117 116.653 101.098V99.7927C116.744 99.811 116.848 99.8231 116.964 99.8292C117.079 99.8353 117.189 99.8383 117.292 99.8383C117.749 99.8383 118.12 99.7227 118.406 99.4914C118.698 99.2661 118.936 98.8735 119.118 98.3135L119.301 97.7291L115.667 87.9043H117.365L120.369 96.9347L119.767 95.9851H120.488L119.885 96.9347L122.88 87.9043H124.551L120.726 98.3226C120.458 99.047 120.175 99.6131 119.876 100.021C119.584 100.435 119.237 100.727 118.835 100.898C118.44 101.068 117.95 101.153 117.365 101.153ZM129.818 97.8935C128.893 97.8935 128.09 97.6895 127.408 97.2817C126.732 96.8678 126.209 96.2834 125.837 95.5286C125.472 94.7677 125.29 93.8637 125.29 92.8167V92.7985C125.29 91.7514 125.472 90.8505 125.837 90.0957C126.209 89.3348 126.732 88.7504 127.408 88.3426C128.09 87.9347 128.893 87.7308 129.818 87.7308C130.75 87.7308 131.553 87.9347 132.229 88.3426C132.905 88.7504 133.425 89.3348 133.79 90.0957C134.162 90.8505 134.347 91.7514 134.347 92.7985V92.8167C134.347 93.8637 134.162 94.7677 133.79 95.5286C133.425 96.2834 132.905 96.8678 132.229 97.2817C131.559 97.6895 130.756 97.8935 129.818 97.8935ZM129.818 96.4873C130.439 96.4873 130.963 96.3412 131.389 96.049C131.821 95.7569 132.15 95.3399 132.375 94.7981C132.606 94.2503 132.722 93.5898 132.722 92.8167V92.7985C132.722 92.0254 132.606 91.3649 132.375 90.8171C132.15 90.2692 131.821 89.8522 131.389 89.5661C130.957 89.28 130.433 89.137 129.818 89.137C129.204 89.137 128.68 89.2831 128.248 89.5753C127.822 89.8614 127.493 90.2783 127.262 90.8262C127.031 91.368 126.915 92.0254 126.915 92.7985V92.8167C126.915 93.5898 127.031 94.2503 127.262 94.7981C127.493 95.3399 127.822 95.7569 128.248 96.049C128.68 96.3412 129.204 96.4873 129.818 96.4873ZM139.587 97.8935C138.844 97.8935 138.221 97.7535 137.715 97.4735C137.216 97.1874 136.839 96.7734 136.583 96.2317C136.333 95.6838 136.209 95.0264 136.209 94.2594V87.9043H137.797V93.885C137.797 94.7616 137.968 95.416 138.309 95.8482C138.656 96.2743 139.219 96.4873 139.998 96.4873C140.43 96.4873 140.811 96.4234 141.139 96.2956C141.468 96.1677 141.745 95.9851 141.97 95.7477C142.195 95.5042 142.363 95.212 142.472 94.8712C142.588 94.5303 142.646 94.1437 142.646 93.7115V87.9043H144.235V97.72H142.646V96.259H142.509C142.351 96.5999 142.135 96.8952 141.861 97.1447C141.587 97.3882 141.258 97.5739 140.875 97.7017C140.497 97.8296 140.068 97.8935 139.587 97.8935ZM147.95 97.8113C147.627 97.8113 147.35 97.6956 147.119 97.4643C146.887 97.233 146.772 96.9591 146.772 96.6425C146.772 96.3138 146.887 96.0369 147.119 95.8116C147.35 95.5803 147.627 95.4647 147.95 95.4647C148.272 95.4647 148.546 95.5803 148.771 95.8116C149.003 96.0369 149.118 96.3138 149.118 96.6425C149.118 96.9591 149.003 97.233 148.771 97.4643C148.546 97.6956 148.272 97.8113 147.95 97.8113Z" fill="black"/>
<path d="M166.144 102.82V94.1408H166.032L163.469 95.9982V94.6715L166.151 92.7443H167.4V102.82H166.144ZM174.465 102.82V100.732H169.556V99.5871C169.831 99.1309 170.11 98.6701 170.394 98.2046C170.678 97.7344 170.964 97.2666 171.253 96.8011C171.546 96.331 171.839 95.8655 172.133 95.4046C172.426 94.9438 172.717 94.4899 173.005 94.0431C173.299 93.5962 173.587 93.1633 173.871 92.7443H175.694V99.6081H177.125V100.732H175.694V102.82H174.465ZM170.841 99.615H174.472V93.9104H174.388C174.16 94.2502 173.927 94.604 173.69 94.9717C173.452 95.3348 173.21 95.7072 172.964 96.0889C172.721 96.4706 172.479 96.8547 172.237 97.241C171.995 97.6274 171.756 98.0137 171.518 98.4001C171.285 98.7818 171.06 99.1589 170.841 99.5313V99.615ZM179.616 101.389C179.369 101.389 179.155 101.3 178.973 101.123C178.797 100.942 178.708 100.728 178.708 100.481C178.708 100.229 178.797 100.015 178.973 99.8385C179.155 99.6616 179.369 99.5732 179.616 99.5732C179.867 99.5732 180.081 99.6616 180.258 99.8385C180.435 100.015 180.524 100.229 180.524 100.481C180.524 100.728 180.435 100.942 180.258 101.123C180.081 101.3 179.867 101.389 179.616 101.389ZM179.616 95.9842C179.369 95.9842 179.155 95.8957 178.973 95.7189C178.797 95.5373 178.708 95.3232 178.708 95.0765C178.708 94.8251 178.797 94.611 178.973 94.4341C179.155 94.2572 179.369 94.1688 179.616 94.1688C179.867 94.1688 180.081 94.2572 180.258 94.4341C180.435 94.611 180.524 94.8251 180.524 95.0765C180.524 95.3232 180.435 95.5373 180.258 95.7189C180.081 95.8957 179.867 95.9842 179.616 95.9842ZM185.961 103.057C185.337 103.057 184.781 102.934 184.292 102.687C183.803 102.441 183.41 102.105 183.112 101.682C182.819 101.254 182.647 100.772 182.595 100.236L182.588 100.16H183.796L183.803 100.216C183.845 100.537 183.962 100.83 184.153 101.095C184.348 101.356 184.602 101.563 184.914 101.717C185.23 101.87 185.584 101.947 185.975 101.947C186.422 101.947 186.815 101.849 187.155 101.654C187.495 101.454 187.76 101.179 187.951 100.83C188.142 100.481 188.237 100.081 188.237 99.629V99.615C188.237 99.1682 188.139 98.7725 187.944 98.428C187.753 98.0789 187.49 97.8066 187.155 97.6111C186.82 97.4156 186.433 97.3178 185.996 97.3178C185.661 97.3178 185.351 97.369 185.067 97.4714C184.788 97.5739 184.539 97.7275 184.32 97.9323C184.232 98.0161 184.148 98.1068 184.069 98.2046C183.994 98.3023 183.924 98.4117 183.859 98.5328H182.77L183.301 92.7443H188.908V93.8685H184.292L183.95 97.2759H184.062C184.211 97.0478 184.395 96.857 184.613 96.7034C184.832 96.5498 185.077 96.4334 185.347 96.3543C185.621 96.2705 185.91 96.2286 186.212 96.2286C186.845 96.2286 187.406 96.3752 187.895 96.6685C188.384 96.9571 188.768 97.3551 189.047 97.8625C189.327 98.3652 189.466 98.9424 189.466 99.5941V99.6081C189.466 100.283 189.315 100.881 189.012 101.403C188.714 101.919 188.302 102.324 187.776 102.617C187.25 102.911 186.645 103.057 185.961 103.057ZM194.338 92.5069C194.799 92.5069 195.253 92.5954 195.7 92.7723C196.151 92.9492 196.558 93.2354 196.921 93.6311C197.289 94.0268 197.582 94.5505 197.801 95.2022C198.02 95.8492 198.129 96.6475 198.129 97.5971V97.6111C198.129 98.7562 197.976 99.7361 197.669 100.551C197.361 101.361 196.919 101.982 196.342 102.415C195.765 102.843 195.069 103.057 194.254 103.057C193.691 103.057 193.181 102.955 192.725 102.75C192.273 102.541 191.896 102.25 191.594 101.877C191.291 101.505 191.082 101.072 190.965 100.579L190.944 100.488H192.208L192.236 100.565C192.339 100.844 192.483 101.086 192.669 101.291C192.86 101.496 193.088 101.654 193.353 101.766C193.623 101.877 193.928 101.933 194.268 101.933C194.878 101.933 195.374 101.756 195.755 101.403C196.137 101.044 196.421 100.569 196.607 99.9781C196.793 99.387 196.898 98.7422 196.921 98.044C196.926 97.9788 196.928 97.916 196.928 97.8555C196.928 97.7903 196.928 97.7275 196.928 97.6669L196.628 95.9912C196.628 95.5489 196.526 95.1486 196.321 94.7902C196.121 94.4318 195.848 94.1478 195.504 93.9383C195.164 93.7242 194.78 93.6171 194.352 93.6171C193.933 93.6171 193.551 93.7219 193.207 93.9314C192.862 94.1362 192.588 94.4155 192.383 94.7692C192.178 95.1184 192.076 95.5117 192.076 95.9493V95.9632C192.076 96.4101 192.173 96.8081 192.369 97.1572C192.564 97.5017 192.832 97.774 193.172 97.9742C193.512 98.1697 193.898 98.2674 194.331 98.2674C194.769 98.2674 195.16 98.1697 195.504 97.9742C195.848 97.7787 196.121 97.511 196.321 97.1712C196.526 96.8267 196.628 96.4357 196.628 95.9982V95.9912H197.04V97.8066H196.796C196.675 98.0812 196.489 98.3373 196.237 98.5747C195.99 98.8121 195.688 99.0029 195.329 99.1472C194.976 99.2915 194.571 99.3637 194.115 99.3637C193.486 99.3637 192.923 99.217 192.425 98.9238C191.927 98.6305 191.533 98.2302 191.245 97.7228C190.956 97.2108 190.812 96.6336 190.812 95.9912V95.9772C190.812 95.3069 190.963 94.7111 191.266 94.1897C191.573 93.6637 191.992 93.2517 192.523 92.9538C193.058 92.6559 193.663 92.5069 194.338 92.5069Z" fill="#9C9CA3"/>
<path d="M162.645 150.4C162.645 139.311 162.645 133.766 164.803 129.531C166.701 125.805 169.73 122.776 173.456 120.878C177.691 118.72 183.235 118.72 194.325 118.72H363.565C368.493 118.72 370.957 118.72 372.84 119.679C374.495 120.523 375.842 121.869 376.685 123.525C377.645 125.407 377.645 127.872 377.645 132.8V162.6C377.645 169.993 377.645 173.689 376.206 176.513C374.94 178.996 372.921 181.016 370.437 182.281C367.614 183.72 363.917 183.72 356.525 183.72H194.325C183.235 183.72 177.691 183.72 173.456 181.562C169.73 179.664 166.701 176.635 164.803 172.909C162.645 168.674 162.645 163.129 162.645 152.04V150.4Z" fill="#CCF3FE"/>
<path d="M308.513 144.32V132.623H304.276V131.144H314.393V132.623H310.156V144.32H308.513ZM316.309 144.32V130.615H317.898V135.984H318.035C318.285 135.46 318.644 135.055 319.112 134.769C319.587 134.477 320.187 134.331 320.911 134.331C321.642 134.331 322.263 134.474 322.774 134.76C323.285 135.046 323.675 135.463 323.943 136.011C324.217 136.553 324.354 137.213 324.354 137.992V144.32H322.765V138.367C322.765 137.478 322.576 136.817 322.199 136.385C321.821 135.953 321.24 135.737 320.455 135.737C319.937 135.737 319.487 135.85 319.103 136.075C318.72 136.3 318.422 136.62 318.209 137.034C318.002 137.447 317.898 137.941 317.898 138.513V144.32H316.309ZM329.42 144.493C328.799 144.493 328.239 144.375 327.74 144.137C327.247 143.9 326.857 143.562 326.571 143.124C326.285 142.686 326.142 142.171 326.142 141.581V141.562C326.142 140.978 326.282 140.479 326.562 140.065C326.842 139.651 327.247 139.325 327.776 139.088C328.312 138.851 328.96 138.711 329.721 138.668L333.328 138.449V139.718L329.913 139.928C329.17 139.971 328.625 140.126 328.278 140.394C327.938 140.662 327.767 141.039 327.767 141.526V141.544C327.767 142.037 327.953 142.424 328.324 142.704C328.702 142.978 329.176 143.115 329.749 143.115C330.29 143.115 330.768 143.008 331.182 142.795C331.602 142.576 331.931 142.281 332.168 141.909C332.412 141.538 332.533 141.121 332.533 140.659V137.609C332.533 137 332.348 136.537 331.976 136.221C331.611 135.898 331.063 135.737 330.333 135.737C329.742 135.737 329.259 135.843 328.881 136.057C328.504 136.27 328.251 136.571 328.123 136.961L328.114 136.988H326.534L326.544 136.933C326.623 136.416 326.833 135.962 327.174 135.573C327.515 135.183 327.959 134.879 328.507 134.66C329.055 134.44 329.682 134.331 330.388 134.331C331.185 134.331 331.861 134.462 332.415 134.723C332.975 134.985 333.398 135.36 333.684 135.847C333.976 136.334 334.122 136.915 334.122 137.591V144.32H332.533V142.859H332.396C332.19 143.206 331.937 143.504 331.639 143.754C331.346 143.997 331.015 144.183 330.643 144.311C330.272 144.433 329.864 144.493 329.42 144.493ZM336.504 144.32V134.504H338.093V135.974H338.23C338.479 135.457 338.838 135.055 339.307 134.769C339.782 134.477 340.382 134.331 341.106 134.331C342.208 134.331 343.054 134.647 343.644 135.28C344.235 135.907 344.53 136.802 344.53 137.965V144.32H342.941V138.339C342.941 137.457 342.756 136.802 342.384 136.376C342.013 135.95 341.435 135.737 340.649 135.737C340.132 135.737 339.682 135.85 339.298 136.075C338.915 136.3 338.616 136.62 338.403 137.034C338.196 137.441 338.093 137.934 338.093 138.513V144.32H336.504ZM346.985 144.32V130.615H348.574V144.32H346.985ZM353.166 144.32L349.341 139.517L350.5 138.504L355.157 144.32H353.166ZM348.354 140.805L348.291 138.796H348.711L352.956 134.504H354.883L350.217 139.015L349.852 139.362L348.354 140.805ZM359.529 144.493C358.799 144.493 358.154 144.384 357.594 144.165C357.033 143.94 356.586 143.626 356.251 143.224C355.916 142.816 355.719 142.342 355.658 141.8V141.791H357.283V141.8C357.411 142.214 357.67 142.546 358.059 142.795C358.449 143.045 358.957 143.169 359.584 143.169C360.028 143.169 360.418 143.106 360.753 142.978C361.088 142.85 361.349 142.673 361.538 142.448C361.733 142.217 361.83 141.952 361.83 141.654V141.636C361.83 141.301 361.699 141.018 361.438 140.786C361.176 140.555 360.741 140.366 360.132 140.22L358.616 139.855C358.001 139.709 357.496 139.52 357.1 139.289C356.705 139.051 356.413 138.762 356.224 138.421C356.035 138.074 355.941 137.667 355.941 137.198V137.189C355.941 136.641 356.099 136.154 356.416 135.728C356.732 135.296 357.164 134.955 357.712 134.705C358.266 134.456 358.89 134.331 359.584 134.331C360.272 134.331 360.881 134.44 361.41 134.66C361.946 134.879 362.375 135.186 362.698 135.582C363.02 135.977 363.218 136.443 363.291 136.979V136.988H361.73C361.632 136.592 361.398 136.273 361.027 136.029C360.655 135.78 360.171 135.655 359.575 135.655C359.185 135.655 358.838 135.719 358.534 135.847C358.236 135.968 357.998 136.139 357.822 136.358C357.651 136.571 357.566 136.824 357.566 137.116V137.134C357.566 137.353 357.621 137.548 357.73 137.718C357.846 137.889 358.026 138.038 358.269 138.166C358.513 138.294 358.823 138.406 359.201 138.504L360.716 138.869C361.648 139.094 362.335 139.417 362.78 139.837C363.23 140.257 363.456 140.817 363.456 141.517V141.535C363.456 142.119 363.282 142.634 362.935 143.078C362.594 143.523 362.128 143.87 361.538 144.119C360.948 144.369 360.278 144.493 359.529 144.493Z" fill="black"/>
<path d="M311.132 173.12V164.441H311.02L308.458 166.298V164.971L311.139 163.044H312.389V173.12H311.132ZM318.161 173.357C317.538 173.357 316.981 173.234 316.493 172.987C316.004 172.741 315.61 172.405 315.312 171.982C315.019 171.554 314.847 171.072 314.796 170.536L314.789 170.46H315.997L316.004 170.516C316.046 170.837 316.162 171.13 316.353 171.395C316.548 171.656 316.802 171.863 317.114 172.017C317.43 172.17 317.784 172.247 318.175 172.247C318.622 172.247 319.015 172.149 319.355 171.954C319.695 171.754 319.96 171.479 320.151 171.13C320.342 170.781 320.438 170.381 320.438 169.929V169.915C320.438 169.468 320.34 169.072 320.144 168.728C319.953 168.379 319.69 168.107 319.355 167.911C319.02 167.716 318.634 167.618 318.196 167.618C317.861 167.618 317.552 167.669 317.268 167.771C316.988 167.874 316.739 168.027 316.52 168.232C316.432 168.316 316.348 168.407 316.269 168.505C316.195 168.602 316.125 168.712 316.06 168.833H314.97L315.501 163.044H321.108V164.168H316.493L316.15 167.576H316.262C316.411 167.348 316.595 167.157 316.814 167.003C317.032 166.85 317.277 166.733 317.547 166.654C317.821 166.57 318.11 166.529 318.413 166.529C319.046 166.529 319.607 166.675 320.095 166.968C320.584 167.257 320.968 167.655 321.248 168.162C321.527 168.665 321.666 169.242 321.666 169.894V169.908C321.666 170.583 321.515 171.181 321.213 171.703C320.915 172.219 320.503 172.624 319.977 172.917C319.451 173.211 318.846 173.357 318.161 173.357ZM324.241 171.689C323.994 171.689 323.78 171.6 323.599 171.423C323.422 171.242 323.333 171.028 323.333 170.781C323.333 170.529 323.422 170.315 323.599 170.138C323.78 169.962 323.994 169.873 324.241 169.873C324.492 169.873 324.707 169.962 324.883 170.138C325.06 170.315 325.149 170.529 325.149 170.781C325.149 171.028 325.06 171.242 324.883 171.423C324.707 171.6 324.492 171.689 324.241 171.689ZM324.241 166.284C323.994 166.284 323.78 166.196 323.599 166.019C323.422 165.837 323.333 165.623 323.333 165.376C323.333 165.125 323.422 164.911 323.599 164.734C323.78 164.557 323.994 164.469 324.241 164.469C324.492 164.469 324.707 164.557 324.883 164.734C325.06 164.911 325.149 165.125 325.149 165.376C325.149 165.623 325.06 165.837 324.883 166.019C324.707 166.196 324.492 166.284 324.241 166.284ZM330.412 173.357C329.667 173.357 329.029 173.143 328.498 172.715C327.972 172.287 327.567 171.679 327.283 170.893C327 170.101 326.858 169.166 326.858 168.086V168.072C326.858 166.992 327 166.058 327.283 165.272C327.567 164.485 327.972 163.878 328.498 163.449C329.029 163.021 329.667 162.807 330.412 162.807C331.156 162.807 331.794 163.021 332.325 163.449C332.855 163.878 333.263 164.485 333.547 165.272C333.835 166.058 333.98 166.992 333.98 168.072V168.086C333.98 169.166 333.835 170.101 333.547 170.893C333.263 171.679 332.855 172.287 332.325 172.715C331.794 173.143 331.156 173.357 330.412 173.357ZM330.412 172.261C330.896 172.261 331.308 172.091 331.647 171.751C331.992 171.412 332.255 170.93 332.437 170.306C332.623 169.682 332.716 168.942 332.716 168.086V168.072C332.716 167.215 332.623 166.477 332.437 165.858C332.255 165.234 331.992 164.755 331.647 164.42C331.308 164.08 330.896 163.91 330.412 163.91C329.932 163.91 329.52 164.08 329.176 164.42C328.836 164.755 328.575 165.234 328.394 165.858C328.212 166.477 328.121 167.215 328.121 168.072V168.086C328.121 168.942 328.212 169.682 328.394 170.306C328.575 170.93 328.836 171.412 329.176 171.751C329.52 172.091 329.932 172.261 330.412 172.261ZM338.97 173.357C338.225 173.357 337.588 173.143 337.057 172.715C336.531 172.287 336.126 171.679 335.842 170.893C335.558 170.101 335.416 169.166 335.416 168.086V168.072C335.416 166.992 335.558 166.058 335.842 165.272C336.126 164.485 336.531 163.878 337.057 163.449C337.588 163.021 338.225 162.807 338.97 162.807C339.715 162.807 340.353 163.021 340.883 163.449C341.414 163.878 341.821 164.485 342.105 165.272C342.394 166.058 342.538 166.992 342.538 168.072V168.086C342.538 169.166 342.394 170.101 342.105 170.893C341.821 171.679 341.414 172.287 340.883 172.715C340.353 173.143 339.715 173.357 338.97 173.357ZM338.97 172.261C339.454 172.261 339.866 172.091 340.206 171.751C340.55 171.412 340.813 170.93 340.995 170.306C341.181 169.682 341.274 168.942 341.274 168.086V168.072C341.274 167.215 341.181 166.477 340.995 165.858C340.813 165.234 340.55 164.755 340.206 164.42C339.866 164.08 339.454 163.91 338.97 163.91C338.491 163.91 338.079 164.08 337.734 164.42C337.394 164.755 337.134 165.234 336.952 165.858C336.771 166.477 336.68 167.215 336.68 168.072V168.086C336.68 168.942 336.771 169.682 336.952 170.306C337.134 170.93 337.394 171.412 337.734 171.751C338.079 172.091 338.491 172.261 338.97 172.261Z" fill="#8F8FA0"/>
<g opacity="0.8">
<path d="M357.684 162.131C357.97 161.777 358.491 161.723 358.845 162.01C359.198 162.297 359.252 162.816 358.966 163.17L351.838 171.97C351.691 172.151 351.474 172.262 351.241 172.275C351.008 172.287 350.781 172.201 350.615 172.036L347.294 168.736C346.971 168.415 346.969 167.893 347.29 167.57C347.611 167.246 348.133 167.245 348.456 167.566L351.13 170.221L357.684 162.131ZM363.204 162.109C363.504 161.765 364.025 161.729 364.368 162.029C364.711 162.328 364.746 162.849 364.447 163.193L356.769 171.994C356.619 172.164 356.406 172.266 356.18 172.275C355.953 172.284 355.731 172.198 355.569 172.039L354.448 170.94C354.123 170.621 354.118 170.098 354.437 169.773C354.756 169.448 355.277 169.443 355.603 169.762L356.1 170.249L363.204 162.109Z" fill="#9C9CA3"/>
</g>
<path d="M383.824 186.05C378.145 187.161 372.375 184.243 370.461 182.302C372.167 177.723 360.067 167.26 367.76 166.948C369.539 166.876 370.87 162.154 377.482 165.39C377.562 166.803 377.738 171.7 377.772 172.534C378.24 184.074 384.896 185.342 383.824 186.05Z" fill="#CCF3FE"/>
<path d="M64.7539 205.596C64.7539 201.612 64.7539 199.62 65.387 198.043C66.2814 195.814 68.0478 194.047 70.2766 193.153C71.8541 192.52 73.846 192.52 77.8298 192.52H141.954C151.674 192.52 159.554 200.4 159.554 210.12C159.554 219.84 151.674 227.72 141.954 227.72H80.5539C76.0848 227.72 73.8503 227.72 72.0574 227.08C68.9489 225.971 66.5027 223.525 65.3936 220.417C64.7539 218.624 64.7539 216.389 64.7539 211.92V205.596Z" fill="#F5F5F5"/>
<path d="M75.2074 215.52V202.344H76.8053L84.4387 213.292L83.2699 212.607H84.1008V202.344H85.7261V215.52H84.1282L76.4857 204.599L77.6636 205.284H76.8327V215.52H75.2074ZM88.3727 218.798V205.704H89.9615V207.275H90.0984C90.2993 206.91 90.5519 206.599 90.8563 206.343C91.1606 206.082 91.5076 205.881 91.8972 205.741C92.2868 205.601 92.7098 205.531 93.1664 205.531C94.0003 205.531 94.7247 205.741 95.3395 206.161C95.9543 206.581 96.4322 207.171 96.7731 207.932C97.114 208.693 97.2844 209.585 97.2844 210.608V210.617C97.2844 211.645 97.114 212.54 96.7731 213.301C96.4322 214.056 95.9543 214.643 95.3395 215.063C94.7247 215.483 94.0003 215.693 93.1664 215.693C92.7159 215.693 92.2898 215.623 91.8881 215.483C91.4924 215.337 91.1424 215.136 90.838 214.881C90.5337 214.625 90.2871 214.321 90.0984 213.968H89.9615V218.798H88.3727ZM92.8012 214.287C93.4038 214.287 93.9151 214.141 94.3351 213.849C94.7612 213.551 95.0869 213.128 95.3121 212.58C95.5435 212.032 95.6591 211.378 95.6591 210.617V210.608C95.6591 209.841 95.5435 209.186 95.3121 208.644C95.0869 208.097 94.7612 207.677 94.3351 207.384C93.9151 207.086 93.4038 206.937 92.8012 206.937C92.2107 206.937 91.6994 207.086 91.2672 207.384C90.8411 207.683 90.5093 208.106 90.2719 208.654C90.0406 209.195 89.9249 209.847 89.9249 210.608V210.617C89.9249 211.372 90.0406 212.023 90.2719 212.571C90.5093 213.119 90.8411 213.542 91.2672 213.84C91.6994 214.138 92.2107 214.287 92.8012 214.287ZM100.305 215.611C99.9827 215.611 99.7057 215.496 99.4744 215.264C99.2431 215.033 99.1275 214.759 99.1275 214.443C99.1275 214.114 99.2431 213.837 99.4744 213.612C99.7057 213.38 99.9827 213.265 100.305 213.265C100.628 213.265 100.902 213.38 101.127 213.612C101.358 213.837 101.474 214.114 101.474 214.443C101.474 214.759 101.358 215.033 101.127 215.264C100.902 215.496 100.628 215.611 100.305 215.611Z" fill="black"/>
<path d="M118.144 220.62V211.941H118.032L115.469 213.798V212.472L118.151 210.544H119.4V220.62H118.144ZM125.173 220.857C124.549 220.857 123.993 220.734 123.504 220.487C123.015 220.241 122.622 219.905 122.324 219.482C122.031 219.054 121.859 218.572 121.807 218.036L121.801 217.96H123.008L123.015 218.016C123.057 218.337 123.174 218.63 123.365 218.895C123.56 219.156 123.814 219.363 124.126 219.517C124.442 219.67 124.796 219.747 125.187 219.747C125.634 219.747 126.027 219.649 126.367 219.454C126.707 219.254 126.972 218.979 127.163 218.63C127.354 218.281 127.449 217.881 127.449 217.429V217.415C127.449 216.968 127.352 216.573 127.156 216.228C126.965 215.879 126.702 215.607 126.367 215.411C126.032 215.216 125.646 215.118 125.208 215.118C124.873 215.118 124.563 215.169 124.279 215.271C124 215.374 123.751 215.527 123.532 215.732C123.444 215.816 123.36 215.907 123.281 216.005C123.206 216.102 123.136 216.212 123.071 216.333H121.982L122.513 210.544H128.12V211.669H123.504L123.162 215.076H123.274C123.423 214.848 123.607 214.657 123.825 214.503C124.044 214.35 124.289 214.233 124.559 214.154C124.833 214.07 125.122 214.029 125.424 214.029C126.057 214.029 126.618 214.175 127.107 214.468C127.596 214.757 127.98 215.155 128.259 215.662C128.539 216.165 128.678 216.742 128.678 217.394V217.408C128.678 218.083 128.527 218.681 128.224 219.203C127.926 219.719 127.514 220.124 126.988 220.418C126.462 220.711 125.857 220.857 125.173 220.857ZM131.253 219.189C131.006 219.189 130.792 219.1 130.61 218.923C130.434 218.742 130.345 218.528 130.345 218.281C130.345 218.03 130.434 217.815 130.61 217.639C130.792 217.462 131.006 217.373 131.253 217.373C131.504 217.373 131.718 217.462 131.895 217.639C132.072 217.815 132.161 218.03 132.161 218.281C132.161 218.528 132.072 218.742 131.895 218.923C131.718 219.1 131.504 219.189 131.253 219.189ZM131.253 213.784C131.006 213.784 130.792 213.696 130.61 213.519C130.434 213.337 130.345 213.123 130.345 212.876C130.345 212.625 130.434 212.411 130.61 212.234C130.792 212.057 131.006 211.969 131.253 211.969C131.504 211.969 131.718 212.057 131.895 212.234C132.072 212.411 132.161 212.625 132.161 212.876C132.161 213.123 132.072 213.337 131.895 213.519C131.718 213.696 131.504 213.784 131.253 213.784ZM137.423 220.857C136.679 220.857 136.041 220.643 135.51 220.215C134.984 219.787 134.579 219.179 134.295 218.393C134.011 217.601 133.869 216.666 133.869 215.586V215.572C133.869 214.492 134.011 213.558 134.295 212.772C134.579 211.985 134.984 211.378 135.51 210.949C136.041 210.521 136.679 210.307 137.423 210.307C138.168 210.307 138.806 210.521 139.337 210.949C139.867 211.378 140.274 211.985 140.558 212.772C140.847 213.558 140.991 214.492 140.991 215.572V215.586C140.991 216.666 140.847 217.601 140.558 218.393C140.274 219.179 139.867 219.787 139.337 220.215C138.806 220.643 138.168 220.857 137.423 220.857ZM137.423 219.761C137.907 219.761 138.319 219.591 138.659 219.251C139.004 218.912 139.267 218.43 139.448 217.806C139.634 217.182 139.728 216.442 139.728 215.586V215.572C139.728 214.715 139.634 213.977 139.448 213.358C139.267 212.735 139.004 212.255 138.659 211.92C138.319 211.58 137.907 211.41 137.423 211.41C136.944 211.41 136.532 211.58 136.187 211.92C135.848 212.255 135.587 212.735 135.405 213.358C135.224 213.977 135.133 214.715 135.133 215.572V215.586C135.133 216.442 135.224 217.182 135.405 217.806C135.587 218.43 135.848 218.912 136.187 219.251C136.532 219.591 136.944 219.761 137.423 219.761ZM145.074 220.62V211.941H144.962L142.4 213.798V212.472L145.081 210.544H146.331V220.62H145.074Z" fill="#9C9CA3"/>
<path d="M211.379 292.672C209.52 292.672 207.899 292.207 206.515 291.278C205.152 290.348 204.099 289.027 203.356 287.313C202.612 285.599 202.241 283.565 202.241 281.21C202.241 278.856 202.612 276.822 203.356 275.108C204.099 273.374 205.152 272.042 206.515 271.112C207.899 270.162 209.52 269.687 211.379 269.687C213.279 269.687 214.91 270.162 216.273 271.112C217.636 272.042 218.689 273.363 219.432 275.077C220.176 276.791 220.548 278.836 220.548 281.21C220.548 283.565 220.176 285.599 219.432 287.313C218.689 289.027 217.636 290.348 216.273 291.278C214.91 292.207 213.279 292.672 211.379 292.672ZM211.379 289.171C212.989 289.171 214.228 288.5 215.096 287.158C215.963 285.795 216.397 283.812 216.397 281.21C216.397 279.476 216.201 278.01 215.808 276.812C215.416 275.614 214.848 274.716 214.105 274.117C213.382 273.497 212.473 273.188 211.379 273.188C210.325 273.188 209.427 273.497 208.684 274.117C207.94 274.716 207.372 275.614 206.98 276.812C206.588 278.01 206.392 279.476 206.392 281.21C206.392 283.812 206.825 285.795 207.693 287.158C208.56 288.5 209.789 289.171 211.379 289.171ZM231.808 292.672C229.185 292.672 227.162 292.073 225.737 290.875C224.312 289.657 223.548 288.025 223.445 285.981L227.564 285.795C227.688 286.972 228.122 287.829 228.865 288.366C229.629 288.903 230.61 289.171 231.808 289.171C232.613 289.171 233.347 289.058 234.007 288.831C234.668 288.583 235.195 288.211 235.587 287.715C235.98 287.22 236.176 286.58 236.176 285.795C236.176 284.597 235.773 283.709 234.968 283.131C234.162 282.553 233.088 282.264 231.746 282.264H229.826V279.073H231.746C232.799 279.073 233.677 278.856 234.379 278.423C235.102 277.968 235.463 277.215 235.463 276.161C235.463 275.211 235.164 274.478 234.565 273.962C233.987 273.446 233.078 273.188 231.839 273.188C230.621 273.188 229.702 273.435 229.082 273.931C228.463 274.427 228.091 275.077 227.967 275.883L223.847 275.666C224.074 273.848 224.869 272.403 226.232 271.329C227.616 270.235 229.485 269.687 231.839 269.687C233.491 269.687 234.895 269.935 236.052 270.431C237.208 270.926 238.086 271.629 238.685 272.537C239.304 273.446 239.614 274.53 239.614 275.79C239.614 277.111 239.18 278.195 238.313 279.042C237.446 279.889 236.207 280.457 234.596 280.746V280.219C236.393 280.467 237.797 281.107 238.809 282.14C239.821 283.152 240.326 284.442 240.326 286.012C240.326 287.416 239.975 288.614 239.273 289.605C238.571 290.596 237.58 291.36 236.3 291.897C235.019 292.413 233.522 292.672 231.808 292.672Z" fill="black" fill-opacity="0.5"/>
<path d="M60.6962 353.664V334.42H73.1911V337.103H62.0785L63.6234 335.504V344.34L62.0785 342.958H72.7032V345.56H62.0785L63.6234 344.178V353.664H60.6962ZM79.9737 353.989C78.4739 353.989 77.2723 353.646 76.3688 352.959C75.4834 352.273 75.0407 351.306 75.0407 350.059C75.0407 348.812 75.4112 347.846 76.152 347.159C76.9109 346.454 78.0764 345.948 79.6484 345.641L84.6085 344.693C84.6085 343.572 84.3464 342.741 83.8224 342.199C83.2984 341.639 82.5214 341.359 81.4915 341.359C80.57 341.359 79.8472 341.567 79.3232 341.982C78.7992 342.38 78.4378 342.976 78.239 343.771L75.2847 343.581C75.5557 342.136 76.2243 340.997 77.2904 340.166C78.3745 339.335 79.7749 338.919 81.4915 338.919C83.443 338.919 84.9247 339.443 85.9366 340.491C86.9665 341.521 87.4815 342.976 87.4815 344.855V350.466C87.4815 350.809 87.5357 351.053 87.6441 351.198C87.7706 351.324 87.9694 351.387 88.2404 351.387H88.7554V353.664C88.665 353.682 88.5205 353.7 88.3217 353.718C88.1229 353.736 87.9151 353.745 87.6983 353.745C87.084 353.745 86.5509 353.646 86.0992 353.447C85.6655 353.248 85.3403 352.923 85.1234 352.471C84.9066 352.002 84.7982 351.378 84.7982 350.601L85.0963 350.737C84.9518 351.369 84.6356 351.929 84.1477 352.417C83.6779 352.905 83.0726 353.294 82.3317 353.583C81.6089 353.854 80.8229 353.989 79.9737 353.989ZM80.4344 351.712C81.3018 351.712 82.0426 351.55 82.657 351.225C83.2713 350.881 83.7502 350.411 84.0935 349.815C84.4368 349.219 84.6085 348.541 84.6085 347.782V346.861L80.3802 347.674C79.5129 347.837 78.8985 348.099 78.5372 348.46C78.1938 348.803 78.0222 349.246 78.0222 349.788C78.0222 350.402 78.23 350.881 78.6456 351.225C79.0792 351.55 79.6755 351.712 80.4344 351.712ZM91.1812 353.664V339.245H93.8103L93.9187 343.093L93.5663 342.904C93.729 341.964 94.0361 341.205 94.4879 340.627C94.9396 340.049 95.4907 339.624 96.1412 339.353C96.7917 339.064 97.4964 338.919 98.2553 338.919C99.3395 338.919 100.234 339.163 100.939 339.651C101.661 340.121 102.203 340.772 102.565 341.603C102.944 342.416 103.134 343.346 103.134 344.394V353.664H100.261V345.262C100.261 344.412 100.171 343.699 99.99 343.121C99.8093 342.542 99.5111 342.1 99.0955 341.792C98.68 341.485 98.1379 341.332 97.4693 341.332C96.4574 341.332 95.6353 341.666 95.0028 342.334C94.3704 343.003 94.0542 343.979 94.0542 345.262V353.664H91.1812ZM112.433 353.989C111.078 353.989 109.931 353.781 108.991 353.366C108.07 352.95 107.356 352.381 106.85 351.658C106.344 350.917 106.055 350.068 105.983 349.11L108.937 348.975C109.082 349.77 109.425 350.402 109.967 350.872C110.509 351.342 111.331 351.577 112.433 351.577C113.337 351.577 114.051 351.432 114.575 351.143C115.099 350.854 115.361 350.393 115.361 349.761C115.361 349.418 115.27 349.129 115.09 348.894C114.927 348.641 114.602 348.433 114.114 348.27C113.626 348.09 112.903 347.918 111.946 347.755C110.518 347.484 109.398 347.168 108.585 346.807C107.772 346.445 107.193 345.985 106.85 345.424C106.507 344.864 106.335 344.187 106.335 343.392C106.335 342.072 106.823 340.997 107.799 340.166C108.792 339.335 110.22 338.919 112.081 338.919C113.328 338.919 114.376 339.136 115.225 339.57C116.074 339.985 116.734 340.555 117.204 341.277C117.692 341.982 117.999 342.777 118.125 343.663L115.171 343.825C115.081 343.319 114.9 342.886 114.629 342.524C114.376 342.145 114.033 341.856 113.599 341.657C113.165 341.44 112.65 341.332 112.054 341.332C111.132 341.332 110.446 341.512 109.994 341.874C109.542 342.235 109.317 342.705 109.317 343.283C109.317 343.717 109.416 344.069 109.615 344.34C109.831 344.611 110.175 344.837 110.645 345.018C111.114 345.18 111.738 345.325 112.515 345.451C114.015 345.704 115.189 346.021 116.038 346.4C116.888 346.761 117.484 347.213 117.827 347.755C118.17 348.297 118.342 348.957 118.342 349.734C118.342 350.637 118.089 351.405 117.583 352.038C117.077 352.67 116.382 353.158 115.496 353.501C114.611 353.827 113.59 353.989 112.433 353.989ZM134.041 353.989C132.668 353.989 131.466 353.682 130.436 353.068C129.406 352.453 128.611 351.577 128.051 350.439C127.491 349.3 127.211 347.972 127.211 346.454C127.211 344.936 127.491 343.617 128.051 342.497C128.611 341.359 129.406 340.482 130.436 339.868C131.466 339.236 132.668 338.919 134.041 338.919C135.215 338.919 136.254 339.127 137.158 339.543C138.079 339.94 138.82 340.528 139.38 341.305C139.959 342.082 140.329 343.03 140.492 344.15L137.483 344.313C137.339 343.373 136.959 342.66 136.345 342.172C135.73 341.666 134.962 341.413 134.041 341.413C132.83 341.413 131.882 341.865 131.195 342.768C130.526 343.654 130.192 344.882 130.192 346.454C130.192 348.026 130.526 349.264 131.195 350.168C131.882 351.053 132.83 351.496 134.041 351.496C134.962 351.496 135.73 351.243 136.345 350.737C136.959 350.213 137.339 349.427 137.483 348.379L140.492 348.541C140.329 349.644 139.959 350.601 139.38 351.414C138.82 352.227 138.079 352.86 137.158 353.312C136.254 353.763 135.215 353.989 134.041 353.989ZM147.443 353.989C145.943 353.989 144.741 353.646 143.838 352.959C142.952 352.273 142.51 351.306 142.51 350.059C142.51 348.812 142.88 347.846 143.621 347.159C144.38 346.454 145.545 345.948 147.117 345.641L152.077 344.693C152.077 343.572 151.815 342.741 151.291 342.199C150.767 341.639 149.99 341.359 148.96 341.359C148.039 341.359 147.316 341.567 146.792 341.982C146.268 342.38 145.907 342.976 145.708 343.771L142.754 343.581C143.025 342.136 143.693 340.997 144.759 340.166C145.843 339.335 147.244 338.919 148.96 338.919C150.912 338.919 152.394 339.443 153.405 340.491C154.435 341.521 154.95 342.976 154.95 344.855V350.466C154.95 350.809 155.005 351.053 155.113 351.198C155.239 351.324 155.438 351.387 155.709 351.387H156.224V353.664C156.134 353.682 155.989 353.7 155.791 353.718C155.592 353.736 155.384 353.745 155.167 353.745C154.553 353.745 154.02 353.646 153.568 353.447C153.134 353.248 152.809 352.923 152.592 352.471C152.375 352.002 152.267 351.378 152.267 350.601L152.565 350.737C152.421 351.369 152.104 351.929 151.617 352.417C151.147 352.905 150.541 353.294 149.801 353.583C149.078 353.854 148.292 353.989 147.443 353.989ZM147.903 351.712C148.771 351.712 149.511 351.55 150.126 351.225C150.74 350.881 151.219 350.411 151.562 349.815C151.906 349.219 152.077 348.541 152.077 347.782V346.861L147.849 347.674C146.982 347.837 146.367 348.099 146.006 348.46C145.663 348.803 145.491 349.246 145.491 349.788C145.491 350.402 145.699 350.881 146.114 351.225C146.548 351.55 147.144 351.712 147.903 351.712ZM158.65 353.664V339.245H161.279L161.388 343.093L161.035 342.904C161.198 341.964 161.505 341.205 161.957 340.627C162.408 340.049 162.96 339.624 163.61 339.353C164.261 339.064 164.965 338.919 165.724 338.919C166.808 338.919 167.703 339.163 168.407 339.651C169.13 340.121 169.672 340.772 170.034 341.603C170.413 342.416 170.603 343.346 170.603 344.394V353.664H167.73V345.262C167.73 344.412 167.64 343.699 167.459 343.121C167.278 342.542 166.98 342.1 166.564 341.792C166.149 341.485 165.607 341.332 164.938 341.332C163.926 341.332 163.104 341.666 162.472 342.334C161.839 343.003 161.523 343.979 161.523 345.262V353.664H158.65ZM186.811 353.989C185.455 353.989 184.308 353.781 183.368 353.366C182.447 352.95 181.733 352.381 181.227 351.658C180.721 350.917 180.432 350.068 180.36 349.11L183.314 348.975C183.459 349.77 183.802 350.402 184.344 350.872C184.886 351.342 185.708 351.577 186.811 351.577C187.714 351.577 188.428 351.432 188.952 351.143C189.476 350.854 189.738 350.393 189.738 349.761C189.738 349.418 189.648 349.129 189.467 348.894C189.304 348.641 188.979 348.433 188.491 348.27C188.003 348.09 187.28 347.918 186.323 347.755C184.895 347.484 183.775 347.168 182.962 346.807C182.149 346.445 181.571 345.985 181.227 345.424C180.884 344.864 180.712 344.187 180.712 343.392C180.712 342.072 181.2 340.997 182.176 340.166C183.17 339.335 184.597 338.919 186.458 338.919C187.705 338.919 188.753 339.136 189.602 339.57C190.452 339.985 191.111 340.555 191.581 341.277C192.069 341.982 192.376 342.777 192.502 343.663L189.548 343.825C189.458 343.319 189.277 342.886 189.006 342.524C188.753 342.145 188.41 341.856 187.976 341.657C187.542 341.44 187.027 341.332 186.431 341.332C185.51 341.332 184.823 341.512 184.371 341.874C183.92 342.235 183.694 342.705 183.694 343.283C183.694 343.717 183.793 344.069 183.992 344.34C184.209 344.611 184.552 344.837 185.022 345.018C185.492 345.18 186.115 345.325 186.892 345.451C188.392 345.704 189.566 346.021 190.415 346.4C191.265 346.761 191.861 347.213 192.204 347.755C192.548 348.297 192.719 348.957 192.719 349.734C192.719 350.637 192.466 351.405 191.96 352.038C191.454 352.67 190.759 353.158 189.873 353.501C188.988 353.827 187.967 353.989 186.811 353.989ZM200.627 353.664C199.253 353.664 198.242 353.348 197.591 352.715C196.941 352.083 196.615 351.098 196.615 349.761V335.857H199.488V349.544C199.488 350.213 199.633 350.673 199.922 350.926C200.211 351.179 200.654 351.306 201.25 351.306H203.31V353.664H200.627ZM194.42 341.603V339.245H203.31V341.603H194.42ZM210.015 353.989C208.515 353.989 207.313 353.646 206.41 352.959C205.524 352.273 205.082 351.306 205.082 350.059C205.082 348.812 205.452 347.846 206.193 347.159C206.952 346.454 208.117 345.948 209.689 345.641L214.649 344.693C214.649 343.572 214.387 342.741 213.863 342.199C213.339 341.639 212.562 341.359 211.532 341.359C210.611 341.359 209.888 341.567 209.364 341.982C208.84 342.38 208.479 342.976 208.28 343.771L205.326 343.581C205.597 342.136 206.265 340.997 207.331 340.166C208.416 339.335 209.816 338.919 211.532 338.919C213.484 338.919 214.966 339.443 215.978 340.491C217.007 341.521 217.522 342.976 217.522 344.855V350.466C217.522 350.809 217.577 351.053 217.685 351.198C217.812 351.324 218.01 351.387 218.281 351.387H218.796V353.664C218.706 353.682 218.561 353.7 218.363 353.718C218.164 353.736 217.956 353.745 217.739 353.745C217.125 353.745 216.592 353.646 216.14 353.447C215.706 353.248 215.381 352.923 215.164 352.471C214.948 352.002 214.839 351.378 214.839 350.601L215.137 350.737C214.993 351.369 214.677 351.929 214.189 352.417C213.719 352.905 213.114 353.294 212.373 353.583C211.65 353.854 210.864 353.989 210.015 353.989ZM210.475 351.712C211.343 351.712 212.084 351.55 212.698 351.225C213.312 350.881 213.791 350.411 214.134 349.815C214.478 349.219 214.649 348.541 214.649 347.782V346.861L210.421 347.674C209.554 347.837 208.94 348.099 208.578 348.46C208.235 348.803 208.063 349.246 208.063 349.788C208.063 350.402 208.271 350.881 208.687 351.225C209.12 351.55 209.716 351.712 210.475 351.712ZM221.222 353.664V339.245H223.851L223.96 343.066L223.716 342.985C223.914 341.684 224.312 340.735 224.908 340.139C225.523 339.543 226.345 339.245 227.375 339.245H228.757V341.82H227.375C226.652 341.82 226.047 341.937 225.559 342.172C225.071 342.407 224.7 342.768 224.448 343.256C224.213 343.744 224.095 344.376 224.095 345.153V353.664H221.222ZM236.227 353.664C234.854 353.664 233.842 353.348 233.192 352.715C232.541 352.083 232.216 351.098 232.216 349.761V335.857H235.089V349.544C235.089 350.213 235.233 350.673 235.522 350.926C235.812 351.179 236.254 351.306 236.851 351.306H238.91V353.664H236.227ZM230.02 341.603V339.245H238.91V341.603H230.02ZM248.406 353.664V339.245H251.279V353.664H248.406ZM248.351 337.158V334.285H251.333V337.158H248.351ZM255.579 353.664V339.245H258.208L258.316 343.093L257.964 342.904C258.126 341.964 258.434 341.205 258.885 340.627C259.337 340.049 259.888 339.624 260.539 339.353C261.189 339.064 261.894 338.919 262.653 338.919C263.737 338.919 264.631 339.163 265.336 339.651C266.059 340.121 266.601 340.772 266.962 341.603C267.342 342.416 267.531 343.346 267.531 344.394V353.664H264.658V345.262C264.658 344.412 264.568 343.699 264.387 343.121C264.207 342.542 263.909 342.1 263.493 341.792C263.077 341.485 262.535 341.332 261.867 341.332C260.855 341.332 260.033 341.666 259.4 342.334C258.768 343.003 258.452 343.979 258.452 345.262V353.664H255.579ZM276.089 353.664C274.716 353.664 273.704 353.348 273.053 352.715C272.403 352.083 272.078 351.098 272.078 349.761V335.857H274.951V349.544C274.951 350.213 275.095 350.673 275.384 350.926C275.674 351.179 276.116 351.306 276.713 351.306H278.772V353.664H276.089ZM269.882 341.603V339.245H278.772V341.603H269.882ZM287.216 353.989C285.806 353.989 284.586 353.682 283.556 353.068C282.545 352.453 281.759 351.577 281.198 350.439C280.656 349.3 280.385 347.972 280.385 346.454C280.385 344.936 280.656 343.617 281.198 342.497C281.759 341.359 282.545 340.482 283.556 339.868C284.568 339.236 285.761 338.919 287.134 338.919C288.435 338.919 289.583 339.227 290.576 339.841C291.57 340.437 292.338 341.305 292.88 342.443C293.44 343.581 293.72 344.955 293.72 346.563V347.295H283.367C283.439 348.704 283.809 349.761 284.478 350.466C285.165 351.17 286.086 351.523 287.243 351.523C288.092 351.523 288.797 351.324 289.357 350.926C289.917 350.529 290.305 349.996 290.522 349.327L293.504 349.517C293.124 350.854 292.374 351.938 291.254 352.77C290.152 353.583 288.806 353.989 287.216 353.989ZM283.367 345.126H290.685C290.594 343.843 290.224 342.895 289.574 342.28C288.941 341.666 288.128 341.359 287.134 341.359C286.104 341.359 285.255 341.684 284.586 342.334C283.936 342.967 283.529 343.897 283.367 345.126ZM296.632 353.664V339.245H299.261L299.369 343.066L299.125 342.985C299.324 341.684 299.721 340.735 300.318 340.139C300.932 339.543 301.754 339.245 302.784 339.245H304.167V341.82H302.784C302.061 341.82 301.456 341.937 300.968 342.172C300.48 342.407 300.11 342.768 299.857 343.256C299.622 343.744 299.505 344.376 299.505 345.153V353.664H296.632ZM310.305 353.989C308.805 353.989 307.603 353.646 306.7 352.959C305.815 352.273 305.372 351.306 305.372 350.059C305.372 348.812 305.742 347.846 306.483 347.159C307.242 346.454 308.407 345.948 309.979 345.641L314.94 344.693C314.94 343.572 314.678 342.741 314.154 342.199C313.629 341.639 312.853 341.359 311.823 341.359C310.901 341.359 310.178 341.567 309.654 341.982C309.13 342.38 308.769 342.976 308.57 343.771L305.616 343.581C305.887 342.136 306.555 340.997 307.621 340.166C308.706 339.335 310.106 338.919 311.823 338.919C313.774 338.919 315.256 339.443 316.268 340.491C317.298 341.521 317.813 342.976 317.813 344.855V350.466C317.813 350.809 317.867 351.053 317.975 351.198C318.102 351.324 318.3 351.387 318.571 351.387H319.086V353.664C318.996 353.682 318.852 353.7 318.653 353.718C318.454 353.736 318.246 353.745 318.029 353.745C317.415 353.745 316.882 353.646 316.43 353.447C315.997 353.248 315.671 352.923 315.455 352.471C315.238 352.002 315.129 351.378 315.129 350.601L315.427 350.737C315.283 351.369 314.967 351.929 314.479 352.417C314.009 352.905 313.404 353.294 312.663 353.583C311.94 353.854 311.154 353.989 310.305 353.989ZM310.766 351.712C311.633 351.712 312.374 351.55 312.988 351.225C313.602 350.881 314.081 350.411 314.425 349.815C314.768 349.219 314.94 348.541 314.94 347.782V346.861L310.711 347.674C309.844 347.837 309.23 348.099 308.868 348.46C308.525 348.803 308.353 349.246 308.353 349.788C308.353 350.402 308.561 350.881 308.977 351.225C309.41 351.55 310.007 351.712 310.766 351.712ZM327.342 353.989C325.969 353.989 324.767 353.682 323.737 353.068C322.707 352.453 321.912 351.577 321.352 350.439C320.792 349.3 320.512 347.972 320.512 346.454C320.512 344.936 320.792 343.617 321.352 342.497C321.912 341.359 322.707 340.482 323.737 339.868C324.767 339.236 325.969 338.919 327.342 338.919C328.517 338.919 329.556 339.127 330.459 339.543C331.381 339.94 332.121 340.528 332.682 341.305C333.26 342.082 333.63 343.03 333.793 344.15L330.784 344.313C330.64 343.373 330.26 342.66 329.646 342.172C329.032 341.666 328.264 341.413 327.342 341.413C326.131 341.413 325.183 341.865 324.496 342.768C323.828 343.654 323.493 344.882 323.493 346.454C323.493 348.026 323.828 349.264 324.496 350.168C325.183 351.053 326.131 351.496 327.342 351.496C328.264 351.496 329.032 351.243 329.646 350.737C330.26 350.213 330.64 349.427 330.784 348.379L333.793 348.541C333.63 349.644 333.26 350.601 332.682 351.414C332.121 352.227 331.381 352.86 330.459 353.312C329.556 353.763 328.517 353.989 327.342 353.989ZM341.414 353.664C340.041 353.664 339.029 353.348 338.378 352.715C337.728 352.083 337.403 351.098 337.403 349.761V335.857H340.276V349.544C340.276 350.213 340.42 350.673 340.709 350.926C340.998 351.179 341.441 351.306 342.037 351.306H344.097V353.664H341.414ZM335.207 341.603V339.245H344.097V341.603H335.207ZM346.843 353.664V339.245H349.716V353.664H346.843ZM346.789 337.158V334.285H349.77V337.158H346.789ZM354.016 353.664V339.245H356.645L356.753 343.093L356.401 342.904C356.564 341.964 356.871 341.205 357.323 340.627C357.774 340.049 358.325 339.624 358.976 339.353C359.626 339.064 360.331 338.919 361.09 338.919C362.174 338.919 363.069 339.163 363.773 339.651C364.496 340.121 365.038 340.772 365.4 341.603C365.779 342.416 365.969 343.346 365.969 344.394V353.664H363.096V345.262C363.096 344.412 363.005 343.699 362.825 343.121C362.644 342.542 362.346 342.1 361.93 341.792C361.515 341.485 360.973 341.332 360.304 341.332C359.292 341.332 358.47 341.666 357.838 342.334C357.205 343.003 356.889 343.979 356.889 345.262V353.664H354.016ZM375.512 358.055C374.374 358.055 373.371 357.883 372.504 357.54C371.636 357.197 370.922 356.709 370.362 356.076C369.802 355.462 369.423 354.739 369.224 353.908L372.205 353.718C372.404 354.314 372.747 354.784 373.235 355.128C373.741 355.489 374.5 355.67 375.512 355.67C376.705 355.67 377.617 355.417 378.25 354.911C378.9 354.405 379.225 353.637 379.225 352.607V350.52C378.882 351.261 378.331 351.848 377.572 352.282C376.813 352.715 375.964 352.932 375.024 352.932C373.814 352.932 372.738 352.634 371.799 352.038C370.859 351.441 370.127 350.619 369.603 349.571C369.079 348.523 368.817 347.313 368.817 345.939C368.817 344.548 369.07 343.328 369.576 342.28C370.1 341.232 370.823 340.41 371.745 339.814C372.684 339.218 373.741 338.919 374.916 338.919C375.946 338.919 376.849 339.154 377.626 339.624C378.421 340.094 378.99 340.726 379.334 341.521V339.245H382.098V352.526C382.098 353.718 381.827 354.721 381.285 355.534C380.761 356.365 380.002 356.989 379.008 357.404C378.033 357.838 376.867 358.055 375.512 358.055ZM375.485 350.493C376.605 350.493 377.5 350.086 378.168 349.273C378.855 348.46 379.207 347.34 379.225 345.912C379.243 344.973 379.099 344.169 378.792 343.5C378.484 342.813 378.042 342.289 377.464 341.928C376.903 341.548 376.244 341.359 375.485 341.359C374.31 341.359 373.398 341.774 372.747 342.606C372.115 343.419 371.799 344.521 371.799 345.912C371.799 347.322 372.124 348.442 372.775 349.273C373.443 350.086 374.347 350.493 375.485 350.493Z" fill="black"/>
</svg>
