<svg width="336" height="379" viewBox="0 0 336 379" fill="none" xmlns="http://www.w3.org/2000/svg">
<g filter="url(#filter0_d_109_1487)">
<rect x="115.746" y="5.15887" width="104.674" height="104.674" rx="52.3371" fill="white" fill-opacity="0.6" shape-rendering="crispEdges"/>
<rect x="116.4" y="5.81309" width="103.366" height="103.366" rx="51.6828" stroke="white" stroke-opacity="0.5" stroke-width="1.30843" shape-rendering="crispEdges"/>
<g clip-path="url(#clip0_109_1487)">
<path fill-rule="evenodd" clip-rule="evenodd" d="M147.641 38.6308C147.641 37.3783 148.138 36.1771 149.024 35.2914C149.91 34.4058 151.111 33.9082 152.363 33.9082H178.202L188.57 44.2759V76.4116C188.57 77.6641 188.072 78.8653 187.187 79.751C186.301 80.6367 185.1 81.1342 183.847 81.1342H152.363C151.111 81.1342 149.91 80.6367 149.024 79.751C148.138 78.8653 147.641 77.6641 147.641 76.4116V38.6308ZM157.086 46.4924L172.828 46.5018V49.6502L157.086 49.6408V46.4924ZM179.125 55.9313H157.086V59.0797H179.125V55.9313ZM179.125 65.3954L157.086 65.3702V68.5186L179.125 68.5406V65.3954Z" fill="black" fill-opacity="0.5"/>
</g>
</g>
<g filter="url(#filter1_d_109_1487)">
<rect x="189" y="65" width="104.674" height="104.674" rx="52.3371" fill="white" fill-opacity="0.6" shape-rendering="crispEdges"/>
<rect x="189.654" y="65.6542" width="103.366" height="103.366" rx="51.6828" stroke="white" stroke-opacity="0.5" stroke-width="1.30843" shape-rendering="crispEdges"/>
<path d="M232.105 115.319C234.994 112.43 240.033 112.43 242.923 115.319L244.726 117.122L248.332 113.516L246.529 111.713C244.124 109.306 240.921 107.977 237.514 107.977C234.107 107.977 230.904 109.306 228.499 111.713L223.087 117.122C220.702 119.517 219.363 122.759 219.363 126.138C219.363 129.518 220.702 132.76 223.087 135.154C224.27 136.339 225.675 137.279 227.223 137.919C228.77 138.559 230.428 138.886 232.102 138.883C233.777 138.887 235.436 138.559 236.983 137.919C238.531 137.279 239.937 136.34 241.12 135.154L242.923 133.351L239.317 129.746L237.514 131.548C236.077 132.979 234.131 133.782 232.104 133.782C230.076 133.782 228.13 132.979 226.693 131.548C225.261 130.112 224.457 128.166 224.457 126.138C224.457 124.11 225.261 122.164 226.693 120.728L232.105 115.319Z" fill="black" fill-opacity="0.5"/>
<path d="M241.122 99.0895L239.319 100.892L242.925 104.498L244.728 102.695C246.165 101.265 248.111 100.462 250.138 100.462C252.166 100.462 254.112 101.265 255.549 102.695C256.981 104.132 257.785 106.077 257.785 108.106C257.785 110.134 256.981 112.08 255.549 113.516L250.137 118.925C247.248 121.814 242.209 121.814 239.319 118.925L237.516 117.122L233.91 120.728L235.713 122.531C238.118 124.938 241.321 126.267 244.728 126.267C248.135 126.267 251.338 124.938 253.743 122.531L259.155 117.122C261.54 114.727 262.879 111.485 262.879 108.106C262.879 104.726 261.54 101.484 259.155 99.0895C256.761 96.702 253.519 95.3612 250.138 95.3612C246.758 95.3612 243.515 96.702 241.122 99.0895Z" fill="black" fill-opacity="0.5"/>
</g>
<g filter="url(#filter2_d_109_1487)">
<rect x="115" y="142.749" width="104.674" height="104.674" rx="52.3371" fill="white" fill-opacity="0.6" shape-rendering="crispEdges"/>
<rect x="115.654" y="143.403" width="103.366" height="103.366" rx="51.6828" stroke="white" stroke-opacity="0.5" stroke-width="1.30843" shape-rendering="crispEdges"/>
<g clip-path="url(#clip1_109_1487)">
<path d="M149.423 171.499C146.12 171.499 143.434 174.173 143.434 177.462V213.239C143.434 216.528 146.12 219.202 149.423 219.202H156.91V208.767C156.91 205.478 159.596 202.804 162.899 202.804H179.371V187.384C179.371 185.8 178.744 184.282 177.621 183.164L167.644 173.241C166.521 172.123 165.005 171.499 163.414 171.499H149.423ZM173.896 187.897H165.146C163.901 187.897 162.899 186.9 162.899 185.661V176.949L173.896 187.897ZM162.899 206.904C161.87 206.904 161.028 207.742 161.028 208.767V220.693C161.028 221.718 161.87 222.556 162.899 222.556C163.929 222.556 164.771 221.718 164.771 220.693V218.084H165.894C168.992 218.084 171.509 215.578 171.509 212.494C171.509 209.41 168.992 206.904 165.894 206.904H162.899ZM165.894 214.357H164.771V210.63H165.894C166.924 210.63 167.766 211.469 167.766 212.494C167.766 213.519 166.924 214.357 165.894 214.357ZM174.878 206.904C173.849 206.904 173.007 207.742 173.007 208.767V220.693C173.007 221.718 173.849 222.556 174.878 222.556H177.873C180.559 222.556 182.74 220.385 182.74 217.711V211.748C182.74 209.074 180.559 206.904 177.873 206.904H174.878ZM176.75 218.829V210.63H177.873C178.491 210.63 178.996 211.133 178.996 211.748V217.711C178.996 218.326 178.491 218.829 177.873 218.829H176.75ZM184.986 208.767V220.693C184.986 221.718 185.828 222.556 186.857 222.556C187.887 222.556 188.729 221.718 188.729 220.693V216.593H191.35C192.379 216.593 193.221 215.755 193.221 214.73C193.221 213.705 192.379 212.866 191.35 212.866H188.729V210.63H191.35C192.379 210.63 193.221 209.792 193.221 208.767C193.221 207.742 192.379 206.904 191.35 206.904H186.857C185.828 206.904 184.986 207.742 184.986 208.767Z" fill="black" fill-opacity="0.5"/>
</g>
</g>
<g filter="url(#filter3_d_109_1487)">
<rect x="43.6719" y="65.0189" width="104.674" height="104.674" rx="52.3371" fill="white" fill-opacity="0.6" shape-rendering="crispEdges"/>
<rect x="44.3261" y="65.6731" width="103.366" height="103.366" rx="51.6828" stroke="white" stroke-opacity="0.5" stroke-width="1.30843" shape-rendering="crispEdges"/>
<g clip-path="url(#clip2_109_1487)">
<path d="M120.064 105.421C119.775 104.356 119.213 103.385 118.433 102.605C117.653 101.824 116.682 101.262 115.617 100.974C111.718 99.9106 96.026 99.9106 96.026 99.9106C96.026 99.9106 80.3331 99.9428 76.4341 101.006C75.3691 101.294 74.3982 101.857 73.618 102.637C72.8379 103.417 72.2757 104.388 71.9876 105.453C70.8082 112.381 70.3507 122.937 72.02 129.588C72.3082 130.653 72.8703 131.624 73.6505 132.404C74.4306 133.184 75.4015 133.746 76.4665 134.034C80.3655 135.098 96.058 135.098 96.058 135.098C96.058 135.098 111.75 135.098 115.649 134.034C116.714 133.746 117.685 133.184 118.465 132.404C119.245 131.624 119.808 130.653 120.096 129.588C121.34 122.65 121.723 112.1 120.064 105.421Z" fill="#FF0000"/>
<path d="M91.0312 125.044L104.049 117.504L91.0312 109.964V125.044Z" fill="white"/>
</g>
</g>
<g filter="url(#filter4_dd_109_1487)">
<path d="M167.61 58.1014H167.609C131.038 58.1014 101.391 87.7485 101.391 124.32V124.32C101.391 160.892 131.038 190.539 167.609 190.539H167.61C204.181 190.539 233.828 160.892 233.828 124.32V124.32C233.828 87.7485 204.181 58.1014 167.61 58.1014Z" fill="url(#paint0_linear_109_1487)"/>
<path d="M167.61 58.9291H167.61C131.495 58.9291 102.219 88.2057 102.219 124.32V124.32C102.219 160.435 131.495 189.711 167.61 189.711H167.61C203.725 189.711 233.001 160.435 233.001 124.32V124.32C233.001 88.2057 203.725 58.9291 167.61 58.9291Z" stroke="url(#paint1_linear_109_1487)" stroke-width="1.65547"/>
<path d="M178.514 87.9905C174.831 86.8357 170.993 86.2497 167.133 86.2529C146.18 86.2529 129.195 103.238 129.195 124.191C129.195 145.143 146.18 162.128 167.133 162.128C188.086 162.128 205.071 145.143 205.071 124.191C205.074 120.331 204.488 116.492 203.333 112.81" stroke="url(#paint2_linear_109_1487)" stroke-width="5.69068" stroke-linecap="round" stroke-linejoin="round"/>
<path d="M142.473 152.644L144.597 148.926C146.256 146.021 148.653 143.608 151.547 141.929C154.439 140.249 157.724 139.366 161.07 139.366H173.195C176.539 139.367 179.823 140.251 182.716 141.93C185.608 143.609 188.004 146.022 189.663 148.926L191.788 152.644M178.514 116.603C178.514 119.622 177.314 122.516 175.18 124.651C173.046 126.785 170.15 127.984 167.132 127.984C164.114 127.984 161.218 126.785 159.084 124.651C156.95 122.516 155.751 119.622 155.751 116.603C155.751 113.584 156.95 110.69 159.084 108.556C161.218 106.421 164.114 105.222 167.132 105.222C170.15 105.222 173.046 106.421 175.18 108.556C177.314 110.69 178.514 113.584 178.514 116.603ZM193.59 86.3326C193.613 86.2264 193.765 86.2264 193.787 86.3326C194.352 89.092 195.715 91.6248 197.706 93.6163C199.698 95.608 202.23 96.9709 204.99 97.5356C205.096 97.5584 205.096 97.7101 204.99 97.7329C202.23 98.2978 199.698 99.6606 197.706 101.652C195.715 103.644 194.352 106.177 193.787 108.936C193.765 109.042 193.613 109.042 193.59 108.936C193.025 106.177 191.662 103.644 189.671 101.652C187.679 99.6606 185.147 98.2978 182.387 97.7329C182.281 97.7101 182.281 97.5584 182.387 97.5356C185.147 96.9709 187.679 95.608 189.671 93.6163C191.662 91.6248 193.025 89.092 193.59 86.3326Z" stroke="url(#paint3_linear_109_1487)" stroke-width="5.69068" stroke-linecap="round" stroke-linejoin="round"/>
</g>
<path d="M160.914 296.648C159.055 296.648 157.434 296.183 156.051 295.254C154.688 294.324 153.634 293.003 152.891 291.289C152.148 289.575 151.776 287.541 151.776 285.186C151.776 282.832 152.148 280.798 152.891 279.084C153.634 277.35 154.688 276.018 156.051 275.088C157.434 274.138 159.055 273.663 160.914 273.663C162.814 273.663 164.445 274.138 165.808 275.088C167.171 276.018 168.224 277.339 168.968 279.053C169.711 280.767 170.083 282.812 170.083 285.186C170.083 287.541 169.711 289.575 168.968 291.289C168.224 293.003 167.171 294.324 165.808 295.254C164.445 296.183 162.814 296.648 160.914 296.648ZM160.914 293.147C162.525 293.147 163.764 292.476 164.631 291.134C165.498 289.771 165.932 287.788 165.932 285.186C165.932 283.452 165.736 281.986 165.343 280.788C164.951 279.59 164.383 278.692 163.64 278.093C162.917 277.473 162.008 277.164 160.914 277.164C159.861 277.164 158.962 277.473 158.219 278.093C157.475 278.692 156.908 279.59 156.515 280.788C156.123 281.986 155.927 283.452 155.927 285.186C155.927 287.788 156.36 289.771 157.228 291.134C158.095 292.476 159.324 293.147 160.914 293.147ZM177.44 296.152V281.067H172.732V278H174.621C175.509 278 176.222 277.886 176.759 277.659C177.296 277.432 177.678 277.04 177.905 276.482C178.153 275.904 178.277 275.13 178.277 274.159H181.467V296.152H177.44Z" fill="black" fill-opacity="0.5"/>
<path d="M16.9189 341.64V322.396H23.8304C26.1433 322.396 27.887 322.812 29.0615 323.643C30.236 324.474 30.8232 325.793 30.8232 327.6C30.8232 328.413 30.6516 329.127 30.3083 329.741C29.9649 330.356 29.459 330.844 28.7904 331.205C28.1399 331.548 27.363 331.729 26.4595 331.747L26.4324 331.639C28.0767 331.675 29.3506 332.126 30.254 332.994C31.1756 333.843 31.6364 334.963 31.6364 336.355C31.6364 338.107 31.0491 339.426 29.8746 340.312C28.7001 341.197 27.0287 341.64 24.8604 341.64H16.9189ZM19.8461 339.011H24.779C25.9897 339.011 26.9293 338.767 27.5979 338.279C28.2845 337.773 28.6278 337.041 28.6278 336.084C28.6278 335.144 28.2845 334.412 27.5979 333.888C26.9293 333.364 25.9897 333.102 24.779 333.102H19.8461V339.011ZM19.8461 330.609H23.7762C25.0591 330.609 26.0529 330.365 26.7576 329.877C27.4623 329.389 27.8147 328.702 27.8147 327.817C27.8147 326.877 27.4714 326.182 26.7847 325.73C26.1162 325.26 25.1133 325.025 23.7762 325.025H19.8461V330.609ZM41.1111 341.965C39.7378 341.965 38.5362 341.658 37.5063 341.044C36.4763 340.429 35.6813 339.553 35.1211 338.415C34.561 337.276 34.2809 335.948 34.2809 334.43C34.2809 332.894 34.561 331.566 35.1211 330.446C35.6813 329.326 36.4763 328.458 37.5063 327.844C38.5362 327.212 39.7378 326.895 41.1111 326.895C42.4844 326.895 43.686 327.212 44.7159 327.844C45.7459 328.458 46.5409 329.326 47.1011 330.446C47.6612 331.566 47.9413 332.894 47.9413 334.43C47.9413 335.948 47.6612 337.276 47.1011 338.415C46.5409 339.553 45.7459 340.429 44.7159 341.044C43.686 341.658 42.4844 341.965 41.1111 341.965ZM41.1111 339.472C42.3398 339.472 43.2885 339.029 43.957 338.144C44.6256 337.24 44.9599 336.002 44.9599 334.43C44.9599 332.858 44.6256 331.63 43.957 330.744C43.2885 329.841 42.3398 329.389 41.1111 329.389C39.9005 329.389 38.9518 329.841 38.2652 330.744C37.5966 331.63 37.2623 332.858 37.2623 334.43C37.2623 336.002 37.5966 337.24 38.2652 338.144C38.9518 339.029 39.9005 339.472 41.1111 339.472ZM55.8447 341.64C54.4714 341.64 53.4595 341.324 52.809 340.691C52.1585 340.059 51.8333 339.074 51.8333 337.737V323.833H54.7063V337.52C54.7063 338.189 54.8509 338.65 55.14 338.902C55.4291 339.155 55.8718 339.282 56.4681 339.282H58.528V341.64H55.8447ZM49.6379 329.579V327.221H58.528V329.579H49.6379ZM73.8233 346.031C72.6849 346.031 71.6821 345.859 70.8148 345.516C69.9474 345.173 69.2337 344.685 68.6735 344.052C68.1134 343.438 67.7339 342.715 67.5352 341.884L70.5166 341.694C70.7154 342.29 71.0587 342.76 71.5466 343.104C72.0525 343.465 72.8114 343.646 73.8233 343.646C75.0159 343.646 75.9284 343.393 76.5608 342.887C77.2113 342.381 77.5366 341.613 77.5366 340.583V338.496C77.1932 339.237 76.6421 339.824 75.8832 340.258C75.1243 340.691 74.275 340.908 73.3354 340.908C72.1248 340.908 71.0497 340.61 70.1101 340.014C69.1705 339.417 68.4386 338.595 67.9146 337.547C67.3906 336.499 67.1286 335.289 67.1286 333.915C67.1286 332.524 67.3816 331.304 67.8875 330.256C68.4115 329.208 69.1343 328.386 70.0558 327.79C70.9955 327.194 72.0525 326.895 73.227 326.895C74.257 326.895 75.1604 327.13 75.9374 327.6C76.7325 328.07 77.3017 328.702 77.645 329.497V327.221H80.4096V340.502C80.4096 341.694 80.1385 342.697 79.5965 343.51C79.0724 344.341 78.3135 344.965 77.3197 345.38C76.344 345.814 75.1785 346.031 73.8233 346.031ZM73.7962 338.469C74.9165 338.469 75.8109 338.062 76.4795 337.249C77.1661 336.436 77.5185 335.316 77.5366 333.888C77.5546 332.949 77.4101 332.145 77.1029 331.476C76.7957 330.789 76.353 330.265 75.7748 329.904C75.2146 329.524 74.5551 329.335 73.7962 329.335C72.6217 329.335 71.7092 329.75 71.0587 330.582C70.4263 331.395 70.1101 332.497 70.1101 333.888C70.1101 335.298 70.4353 336.418 71.0858 337.249C71.7544 338.062 72.6578 338.469 73.7962 338.469ZM90.1577 341.965C88.7483 341.965 87.5286 341.658 86.4987 341.044C85.4868 340.429 84.7008 339.553 84.1406 338.415C83.5985 337.276 83.3275 335.948 83.3275 334.43C83.3275 332.912 83.5985 331.593 84.1406 330.473C84.7008 329.335 85.4868 328.458 86.4987 327.844C87.5105 327.212 88.7031 326.895 90.0764 326.895C91.3774 326.895 92.5248 327.203 93.5186 327.817C94.5124 328.413 95.2804 329.281 95.8224 330.419C96.3826 331.557 96.6627 332.931 96.6627 334.539V335.271H86.3089C86.3812 336.68 86.7516 337.737 87.4202 338.442C88.1068 339.146 89.0284 339.499 90.1848 339.499C91.0341 339.499 91.7388 339.3 92.2989 338.902C92.8591 338.505 93.2476 337.972 93.4644 337.303L96.4458 337.493C96.0664 338.83 95.3165 339.914 94.1962 340.746C93.094 341.559 91.7478 341.965 90.1577 341.965ZM86.3089 333.102H93.627C93.5367 331.819 93.1662 330.871 92.5157 330.256C91.8833 329.642 91.0702 329.335 90.0764 329.335C89.0464 329.335 88.1972 329.66 87.5286 330.311C86.8781 330.943 86.4716 331.874 86.3089 333.102ZM104.574 341.64C103.2 341.64 102.188 341.324 101.538 340.691C100.887 340.059 100.562 339.074 100.562 337.737V323.833H103.435V337.52C103.435 338.189 103.58 338.65 103.869 338.902C104.158 339.155 104.601 339.282 105.197 339.282H107.257V341.64H104.574ZM98.3668 329.579V327.221H107.257V329.579H98.3668ZM115.321 341.965C113.965 341.965 112.818 341.757 111.878 341.342C110.957 340.926 110.243 340.357 109.737 339.634C109.231 338.893 108.942 338.044 108.87 337.087L111.824 336.951C111.969 337.746 112.312 338.378 112.854 338.848C113.396 339.318 114.218 339.553 115.321 339.553C116.224 339.553 116.938 339.408 117.462 339.119C117.986 338.83 118.248 338.369 118.248 337.737C118.248 337.394 118.157 337.105 117.977 336.87C117.814 336.617 117.489 336.409 117.001 336.246C116.513 336.066 115.79 335.894 114.833 335.731C113.405 335.46 112.285 335.144 111.472 334.783C110.659 334.421 110.08 333.961 109.737 333.4C109.394 332.84 109.222 332.163 109.222 331.368C109.222 330.049 109.71 328.973 110.686 328.142C111.68 327.311 113.107 326.895 114.968 326.895C116.215 326.895 117.263 327.112 118.112 327.546C118.962 327.961 119.621 328.531 120.091 329.253C120.579 329.958 120.886 330.753 121.012 331.639L118.058 331.801C117.968 331.295 117.787 330.862 117.516 330.5C117.263 330.121 116.92 329.832 116.486 329.633C116.052 329.416 115.537 329.308 114.941 329.308C114.02 329.308 113.333 329.488 112.881 329.85C112.429 330.211 112.204 330.681 112.204 331.259C112.204 331.693 112.303 332.045 112.502 332.316C112.719 332.587 113.062 332.813 113.532 332.994C114.002 333.156 114.625 333.301 115.402 333.427C116.902 333.68 118.076 333.997 118.925 334.376C119.775 334.737 120.371 335.189 120.714 335.731C121.058 336.273 121.229 336.933 121.229 337.71C121.229 338.613 120.976 339.381 120.47 340.014C119.964 340.646 119.269 341.134 118.383 341.477C117.498 341.803 116.477 341.965 115.321 341.965ZM136.521 341.64C135.148 341.64 134.136 341.324 133.486 340.691C132.835 340.059 132.51 339.074 132.51 337.737V323.833H135.383V337.52C135.383 338.189 135.528 338.65 135.817 338.902C136.106 339.155 136.549 339.282 137.145 339.282H139.205V341.64H136.521ZM130.315 329.579V327.221H139.205V329.579H130.315ZM142.241 341.64V327.221H144.871L144.979 331.042L144.735 330.961C144.934 329.66 145.331 328.711 145.928 328.115C146.542 327.519 147.364 327.221 148.394 327.221H149.776V329.796H148.394C147.671 329.796 147.066 329.913 146.578 330.148C146.09 330.383 145.72 330.744 145.467 331.232C145.232 331.72 145.114 332.352 145.114 333.129V341.64H142.241ZM155.915 341.965C154.415 341.965 153.213 341.622 152.31 340.935C151.424 340.249 150.982 339.282 150.982 338.035C150.982 336.788 151.352 335.822 152.093 335.135C152.852 334.43 154.017 333.924 155.589 333.617L160.549 332.669C160.549 331.548 160.287 330.717 159.763 330.175C159.239 329.615 158.462 329.335 157.432 329.335C156.511 329.335 155.788 329.543 155.264 329.958C154.74 330.356 154.379 330.952 154.18 331.747L151.226 331.557C151.497 330.112 152.165 328.973 153.231 328.142C154.315 327.311 155.716 326.895 157.432 326.895C159.384 326.895 160.866 327.419 161.877 328.467C162.907 329.497 163.422 330.952 163.422 332.831V338.442C163.422 338.785 163.477 339.029 163.585 339.174C163.711 339.3 163.91 339.363 164.181 339.363H164.696V341.64C164.606 341.658 164.461 341.676 164.263 341.694C164.064 341.712 163.856 341.721 163.639 341.721C163.025 341.721 162.492 341.622 162.04 341.423C161.606 341.224 161.281 340.899 161.064 340.447C160.847 339.978 160.739 339.354 160.739 338.577L161.037 338.713C160.893 339.345 160.576 339.905 160.089 340.393C159.619 340.881 159.013 341.27 158.273 341.559C157.55 341.83 156.764 341.965 155.915 341.965ZM156.375 339.688C157.243 339.688 157.983 339.526 158.598 339.201C159.212 338.857 159.691 338.388 160.034 337.791C160.378 337.195 160.549 336.517 160.549 335.758V334.837L156.321 335.65C155.454 335.813 154.839 336.075 154.478 336.436C154.135 336.779 153.963 337.222 153.963 337.764C153.963 338.378 154.171 338.857 154.586 339.201C155.02 339.526 155.616 339.688 156.375 339.688ZM166.99 341.64V327.221H169.863V341.64H166.99ZM166.936 325.134V322.261H169.917V325.134H166.936ZM174.163 341.64V327.221H176.792L176.9 331.069L176.548 330.88C176.711 329.94 177.018 329.181 177.469 328.603C177.921 328.025 178.472 327.6 179.123 327.329C179.773 327.04 180.478 326.895 181.237 326.895C182.321 326.895 183.215 327.139 183.92 327.627C184.643 328.097 185.185 328.748 185.546 329.579C185.926 330.392 186.116 331.322 186.116 332.37V341.64H183.243V333.238C183.243 332.388 183.152 331.675 182.972 331.097C182.791 330.518 182.493 330.076 182.077 329.768C181.662 329.461 181.119 329.308 180.451 329.308C179.439 329.308 178.617 329.642 177.984 330.311C177.352 330.979 177.036 331.955 177.036 333.238V341.64H174.163ZM195.794 341.965C194.385 341.965 193.165 341.658 192.135 341.044C191.124 340.429 190.338 339.553 189.777 338.415C189.235 337.276 188.964 335.948 188.964 334.43C188.964 332.912 189.235 331.593 189.777 330.473C190.338 329.335 191.124 328.458 192.135 327.844C193.147 327.212 194.34 326.895 195.713 326.895C197.014 326.895 198.162 327.203 199.155 327.817C200.149 328.413 200.917 329.281 201.459 330.419C202.019 331.557 202.299 332.931 202.299 334.539V335.271H191.946C192.018 336.68 192.388 337.737 193.057 338.442C193.744 339.146 194.665 339.499 195.822 339.499C196.671 339.499 197.376 339.3 197.936 338.902C198.496 338.505 198.884 337.972 199.101 337.303L202.083 337.493C201.703 338.83 200.953 339.914 199.833 340.746C198.731 341.559 197.385 341.965 195.794 341.965ZM191.946 333.102H199.264C199.173 331.819 198.803 330.871 198.153 330.256C197.52 329.642 196.707 329.335 195.713 329.335C194.683 329.335 193.834 329.66 193.165 330.311C192.515 330.943 192.108 331.874 191.946 333.102ZM210.333 341.965C209.105 341.965 208.029 341.658 207.108 341.044C206.204 340.429 205.509 339.562 205.021 338.442C204.551 337.303 204.316 335.966 204.316 334.43C204.316 332.894 204.56 331.566 205.048 330.446C205.536 329.308 206.231 328.431 207.135 327.817C208.038 327.203 209.105 326.895 210.333 326.895C211.327 326.895 212.212 327.103 212.989 327.519C213.766 327.934 214.354 328.513 214.751 329.253V322.396H217.624V341.64H214.941L214.86 339.472C214.462 340.249 213.857 340.863 213.044 341.315C212.249 341.748 211.345 341.965 210.333 341.965ZM211.092 339.472C211.869 339.472 212.529 339.273 213.071 338.875C213.613 338.478 214.028 337.9 214.318 337.141C214.607 336.382 214.751 335.478 214.751 334.43C214.751 333.346 214.607 332.434 214.318 331.693C214.028 330.934 213.613 330.365 213.071 329.985C212.529 329.588 211.869 329.389 211.092 329.389C209.936 329.389 209.014 329.841 208.328 330.744C207.641 331.63 207.298 332.858 207.298 334.43C207.298 335.984 207.641 337.213 208.328 338.116C209.014 339.02 209.936 339.472 211.092 339.472ZM234.227 341.965C232.854 341.965 231.652 341.658 230.622 341.044C229.592 340.429 228.797 339.553 228.237 338.415C227.677 337.276 227.397 335.948 227.397 334.43C227.397 332.894 227.677 331.566 228.237 330.446C228.797 329.326 229.592 328.458 230.622 327.844C231.652 327.212 232.854 326.895 234.227 326.895C235.6 326.895 236.802 327.212 237.832 327.844C238.862 328.458 239.657 329.326 240.217 330.446C240.777 331.566 241.057 332.894 241.057 334.43C241.057 335.948 240.777 337.276 240.217 338.415C239.657 339.553 238.862 340.429 237.832 341.044C236.802 341.658 235.6 341.965 234.227 341.965ZM234.227 339.472C235.456 339.472 236.404 339.029 237.073 338.144C237.742 337.24 238.076 336.002 238.076 334.43C238.076 332.858 237.742 331.63 237.073 330.744C236.404 329.841 235.456 329.389 234.227 329.389C233.016 329.389 232.068 329.841 231.381 330.744C230.713 331.63 230.378 332.858 230.378 334.43C230.378 336.002 230.713 337.24 231.381 338.144C232.068 339.029 233.016 339.472 234.227 339.472ZM243.961 341.64V327.221H246.59L246.698 331.069L246.346 330.88C246.509 329.94 246.816 329.181 247.268 328.603C247.719 328.025 248.27 327.6 248.921 327.329C249.571 327.04 250.276 326.895 251.035 326.895C252.119 326.895 253.014 327.139 253.718 327.627C254.441 328.097 254.983 328.748 255.345 329.579C255.724 330.392 255.914 331.322 255.914 332.37V341.64H253.041V333.238C253.041 332.388 252.95 331.675 252.77 331.097C252.589 330.518 252.291 330.076 251.875 329.768C251.46 329.461 250.918 329.308 250.249 329.308C249.237 329.308 248.415 329.642 247.783 330.311C247.15 330.979 246.834 331.955 246.834 333.238V341.64H243.961ZM267.378 345.706V343.348H269.14C269.628 343.348 269.989 343.275 270.224 343.131C270.459 342.986 270.64 342.742 270.766 342.399L271.227 341.206H270.333L265.129 327.221H268.164L272.121 338.55L275.889 327.221H278.952L273.206 343.32C272.917 344.152 272.483 344.757 271.905 345.136C271.344 345.516 270.558 345.706 269.547 345.706H267.378ZM286.741 341.965C285.368 341.965 284.166 341.658 283.136 341.044C282.106 340.429 281.311 339.553 280.751 338.415C280.191 337.276 279.911 335.948 279.911 334.43C279.911 332.894 280.191 331.566 280.751 330.446C281.311 329.326 282.106 328.458 283.136 327.844C284.166 327.212 285.368 326.895 286.741 326.895C288.114 326.895 289.316 327.212 290.346 327.844C291.376 328.458 292.171 329.326 292.731 330.446C293.291 331.566 293.571 332.894 293.571 334.43C293.571 335.948 293.291 337.276 292.731 338.415C292.171 339.553 291.376 340.429 290.346 341.044C289.316 341.658 288.114 341.965 286.741 341.965ZM286.741 339.472C287.97 339.472 288.918 339.029 289.587 338.144C290.256 337.24 290.59 336.002 290.59 334.43C290.59 332.858 290.256 331.63 289.587 330.744C288.918 329.841 287.97 329.389 286.741 329.389C285.53 329.389 284.582 329.841 283.895 330.744C283.227 331.63 282.892 332.858 282.892 334.43C282.892 336.002 283.227 337.24 283.895 338.144C284.582 339.029 285.53 339.472 286.741 339.472ZM301.218 341.965C299.772 341.965 298.616 341.486 297.749 340.529C296.899 339.553 296.475 338.207 296.475 336.49V327.221H299.348V335.758C299.348 337.059 299.574 338.017 300.025 338.631C300.477 339.246 301.164 339.553 302.085 339.553C303.133 339.553 303.946 339.219 304.525 338.55C305.121 337.863 305.419 336.906 305.419 335.677V327.221H308.292V341.64H305.609L305.555 337.873L305.961 338.035C305.708 339.3 305.175 340.276 304.362 340.962C303.549 341.631 302.501 341.965 301.218 341.965ZM312.356 341.64V327.221H314.985L315.094 331.042L314.85 330.961C315.048 329.66 315.446 328.711 316.042 328.115C316.657 327.519 317.479 327.221 318.509 327.221H319.891V329.796H318.509C317.786 329.796 317.181 329.913 316.693 330.148C316.205 330.383 315.834 330.744 315.581 331.232C315.347 331.72 315.229 332.352 315.229 333.129V341.64H312.356ZM126.843 372.965C125.47 372.965 124.269 372.658 123.239 372.044C122.209 371.429 121.414 370.553 120.853 369.415C120.293 368.276 120.013 366.948 120.013 365.43C120.013 363.912 120.293 362.593 120.853 361.473C121.414 360.335 122.209 359.458 123.239 358.844C124.269 358.212 125.47 357.895 126.843 357.895C128.018 357.895 129.057 358.103 129.96 358.519C130.882 358.916 131.623 359.504 132.183 360.281C132.761 361.058 133.132 362.006 133.294 363.126L130.286 363.289C130.141 362.349 129.762 361.636 129.147 361.148C128.533 360.642 127.765 360.389 126.843 360.389C125.633 360.389 124.684 360.841 123.997 361.744C123.329 362.63 122.995 363.858 122.995 365.43C122.995 367.002 123.329 368.24 123.997 369.144C124.684 370.029 125.633 370.472 126.843 370.472C127.765 370.472 128.533 370.219 129.147 369.713C129.762 369.189 130.141 368.403 130.286 367.355L133.294 367.517C133.132 368.62 132.761 369.577 132.183 370.39C131.623 371.203 130.882 371.836 129.96 372.288C129.057 372.739 128.018 372.965 126.843 372.965ZM141.851 372.965C140.478 372.965 139.276 372.658 138.246 372.044C137.216 371.429 136.421 370.553 135.861 369.415C135.301 368.276 135.021 366.948 135.021 365.43C135.021 363.894 135.301 362.566 135.861 361.446C136.421 360.326 137.216 359.458 138.246 358.844C139.276 358.212 140.478 357.895 141.851 357.895C143.224 357.895 144.426 358.212 145.456 358.844C146.486 359.458 147.281 360.326 147.841 361.446C148.401 362.566 148.681 363.894 148.681 365.43C148.681 366.948 148.401 368.276 147.841 369.415C147.281 370.553 146.486 371.429 145.456 372.044C144.426 372.658 143.224 372.965 141.851 372.965ZM141.851 370.472C143.08 370.472 144.029 370.029 144.697 369.144C145.366 368.24 145.7 367.002 145.7 365.43C145.7 363.858 145.366 362.63 144.697 361.744C144.029 360.841 143.08 360.389 141.851 360.389C140.641 360.389 139.692 360.841 139.005 361.744C138.337 362.63 138.002 363.858 138.002 365.43C138.002 367.002 138.337 368.24 139.005 369.144C139.692 370.029 140.641 370.472 141.851 370.472ZM151.585 372.64V358.221H154.214L154.322 362.069L153.97 361.88C154.133 360.94 154.44 360.181 154.892 359.603C155.343 359.025 155.894 358.6 156.545 358.329C157.195 358.04 157.9 357.895 158.659 357.895C159.743 357.895 160.638 358.139 161.342 358.627C162.065 359.097 162.607 359.748 162.969 360.579C163.348 361.392 163.538 362.322 163.538 363.37V372.64H160.665V364.238C160.665 363.388 160.574 362.675 160.394 362.097C160.213 361.518 159.915 361.076 159.499 360.768C159.084 360.461 158.542 360.308 157.873 360.308C156.861 360.308 156.039 360.642 155.407 361.311C154.774 361.979 154.458 362.955 154.458 364.238V372.64H151.585ZM172.095 372.64C170.722 372.64 169.71 372.324 169.06 371.691C168.409 371.059 168.084 370.074 168.084 368.737V354.833H170.957V368.52C170.957 369.189 171.102 369.65 171.391 369.902C171.68 370.155 172.123 370.282 172.719 370.282H174.779V372.64H172.095ZM165.889 360.579V358.221H174.779V360.579H165.889ZM183.222 372.965C181.812 372.965 180.593 372.658 179.563 372.044C178.551 371.429 177.765 370.553 177.205 369.415C176.663 368.276 176.392 366.948 176.392 365.43C176.392 363.912 176.663 362.593 177.205 361.473C177.765 360.335 178.551 359.458 179.563 358.844C180.575 358.212 181.767 357.895 183.141 357.895C184.442 357.895 185.589 358.203 186.583 358.817C187.577 359.413 188.344 360.281 188.887 361.419C189.447 362.557 189.727 363.931 189.727 365.539V366.271H179.373C179.445 367.68 179.816 368.737 180.484 369.442C181.171 370.146 182.092 370.499 183.249 370.499C184.098 370.499 184.803 370.3 185.363 369.902C185.923 369.505 186.312 368.972 186.529 368.303L189.51 368.493C189.13 369.83 188.381 370.914 187.26 371.746C186.158 372.559 184.812 372.965 183.222 372.965ZM179.373 364.102H186.691C186.601 362.819 186.23 361.871 185.58 361.256C184.947 360.642 184.134 360.335 183.141 360.335C182.111 360.335 181.261 360.66 180.593 361.311C179.942 361.943 179.536 362.874 179.373 364.102ZM192.638 372.64V358.221H195.267L195.375 362.069L195.023 361.88C195.186 360.94 195.493 360.181 195.945 359.603C196.396 359.025 196.947 358.6 197.598 358.329C198.248 358.04 198.953 357.895 199.712 357.895C200.796 357.895 201.691 358.139 202.395 358.627C203.118 359.097 203.66 359.748 204.022 360.579C204.401 361.392 204.591 362.322 204.591 363.37V372.64H201.718V364.238C201.718 363.388 201.627 362.675 201.447 362.097C201.266 361.518 200.968 361.076 200.552 360.768C200.137 360.461 199.595 360.308 198.926 360.308C197.914 360.308 197.092 360.642 196.46 361.311C195.827 361.979 195.511 362.955 195.511 364.238V372.64H192.638ZM213.148 372.64C211.775 372.64 210.763 372.324 210.113 371.691C209.462 371.059 209.137 370.074 209.137 368.737V354.833H212.01V368.52C212.01 369.189 212.155 369.65 212.444 369.902C212.733 370.155 213.176 370.282 213.772 370.282H215.832V372.64H213.148ZM206.942 360.579V358.221H215.832V360.579H206.942Z" fill="black"/>
<defs>
<filter id="filter0_d_109_1487" x="110.204" y="0.616742" width="117.76" height="117.758" filterUnits="userSpaceOnUse" color-interpolation-filters="sRGB">
<feFlood flood-opacity="0" result="BackgroundImageFix"/>
<feColorMatrix in="SourceAlpha" type="matrix" values="0 0 0 0 0 0 0 0 0 0 0 0 0 0 0 0 0 0 127 0" result="hardAlpha"/>
<feMorphology radius="1.30843" operator="erode" in="SourceAlpha" result="effect1_dropShadow_109_1487"/>
<feOffset dx="1" dy="2"/>
<feGaussianBlur stdDeviation="3.92528"/>
<feComposite in2="hardAlpha" operator="out"/>
<feColorMatrix type="matrix" values="0 0 0 0 0 0 0 0 0 0 0 0 0 0 0 0 0 0 0.12 0"/>
<feBlend mode="normal" in2="BackgroundImageFix" result="effect1_dropShadow_109_1487"/>
<feBlend mode="normal" in="SourceGraphic" in2="effect1_dropShadow_109_1487" result="shape"/>
</filter>
<filter id="filter1_d_109_1487" x="183.458" y="60.4579" width="117.76" height="117.758" filterUnits="userSpaceOnUse" color-interpolation-filters="sRGB">
<feFlood flood-opacity="0" result="BackgroundImageFix"/>
<feColorMatrix in="SourceAlpha" type="matrix" values="0 0 0 0 0 0 0 0 0 0 0 0 0 0 0 0 0 0 127 0" result="hardAlpha"/>
<feMorphology radius="1.30843" operator="erode" in="SourceAlpha" result="effect1_dropShadow_109_1487"/>
<feOffset dx="1" dy="2"/>
<feGaussianBlur stdDeviation="3.92528"/>
<feComposite in2="hardAlpha" operator="out"/>
<feColorMatrix type="matrix" values="0 0 0 0 0 0 0 0 0 0 0 0 0 0 0 0 0 0 0.12 0"/>
<feBlend mode="normal" in2="BackgroundImageFix" result="effect1_dropShadow_109_1487"/>
<feBlend mode="normal" in="SourceGraphic" in2="effect1_dropShadow_109_1487" result="shape"/>
</filter>
<filter id="filter2_d_109_1487" x="109.458" y="138.207" width="117.76" height="117.758" filterUnits="userSpaceOnUse" color-interpolation-filters="sRGB">
<feFlood flood-opacity="0" result="BackgroundImageFix"/>
<feColorMatrix in="SourceAlpha" type="matrix" values="0 0 0 0 0 0 0 0 0 0 0 0 0 0 0 0 0 0 127 0" result="hardAlpha"/>
<feMorphology radius="1.30843" operator="erode" in="SourceAlpha" result="effect1_dropShadow_109_1487"/>
<feOffset dx="1" dy="2"/>
<feGaussianBlur stdDeviation="3.92528"/>
<feComposite in2="hardAlpha" operator="out"/>
<feColorMatrix type="matrix" values="0 0 0 0 0 0 0 0 0 0 0 0 0 0 0 0 0 0 0.12 0"/>
<feBlend mode="normal" in2="BackgroundImageFix" result="effect1_dropShadow_109_1487"/>
<feBlend mode="normal" in="SourceGraphic" in2="effect1_dropShadow_109_1487" result="shape"/>
</filter>
<filter id="filter3_d_109_1487" x="38.1297" y="60.4768" width="117.76" height="117.758" filterUnits="userSpaceOnUse" color-interpolation-filters="sRGB">
<feFlood flood-opacity="0" result="BackgroundImageFix"/>
<feColorMatrix in="SourceAlpha" type="matrix" values="0 0 0 0 0 0 0 0 0 0 0 0 0 0 0 0 0 0 127 0" result="hardAlpha"/>
<feMorphology radius="1.30843" operator="erode" in="SourceAlpha" result="effect1_dropShadow_109_1487"/>
<feOffset dx="1" dy="2"/>
<feGaussianBlur stdDeviation="3.92528"/>
<feComposite in2="hardAlpha" operator="out"/>
<feColorMatrix type="matrix" values="0 0 0 0 0 0 0 0 0 0 0 0 0 0 0 0 0 0 0.12 0"/>
<feBlend mode="normal" in2="BackgroundImageFix" result="effect1_dropShadow_109_1487"/>
<feBlend mode="normal" in="SourceGraphic" in2="effect1_dropShadow_109_1487" result="shape"/>
</filter>
<filter id="filter4_dd_109_1487" x="81.525" y="38.2358" width="172.169" height="172.169" filterUnits="userSpaceOnUse" color-interpolation-filters="sRGB">
<feFlood flood-opacity="0" result="BackgroundImageFix"/>
<feColorMatrix in="SourceAlpha" type="matrix" values="0 0 0 0 0 0 0 0 0 0 0 0 0 0 0 0 0 0 127 0" result="hardAlpha"/>
<feOffset dy="3.31094"/>
<feGaussianBlur stdDeviation="3.31094"/>
<feComposite in2="hardAlpha" operator="out"/>
<feColorMatrix type="matrix" values="0 0 0 0 0 0 0 0 0 0 0 0 0 0 0 0 0 0 0.1 0"/>
<feBlend mode="normal" in2="BackgroundImageFix" result="effect1_dropShadow_109_1487"/>
<feColorMatrix in="SourceAlpha" type="matrix" values="0 0 0 0 0 0 0 0 0 0 0 0 0 0 0 0 0 0 127 0" result="hardAlpha"/>
<feOffset dy="6.62187"/>
<feGaussianBlur stdDeviation="4.9664"/>
<feComposite in2="hardAlpha" operator="out"/>
<feColorMatrix type="matrix" values="0 0 0 0 0 0 0 0 0 0 0 0 0 0 0 0 0 0 0.1 0"/>
<feBlend mode="normal" in2="effect1_dropShadow_109_1487" result="effect2_dropShadow_109_1487"/>
<feBlend mode="normal" in="SourceGraphic" in2="effect2_dropShadow_109_1487" result="shape"/>
</filter>
<linearGradient id="paint0_linear_109_1487" x1="167.609" y1="58.1014" x2="167.609" y2="190.539" gradientUnits="userSpaceOnUse">
<stop stop-color="white" stop-opacity="0.8"/>
<stop offset="1" stop-color="#E6E6E6" stop-opacity="0.8"/>
</linearGradient>
<linearGradient id="paint1_linear_109_1487" x1="101.561" y1="58.2724" x2="233.758" y2="190.469" gradientUnits="userSpaceOnUse">
<stop stop-color="white"/>
<stop offset="1" stop-color="#CFCFCF" stop-opacity="0.5"/>
</linearGradient>
<linearGradient id="paint2_linear_109_1487" x1="129.195" y1="86.2529" x2="205.071" y2="162.128" gradientUnits="userSpaceOnUse">
<stop stop-color="#83D5FC"/>
<stop offset="1" stop-color="#0578AE"/>
</linearGradient>
<linearGradient id="paint3_linear_109_1487" x1="142.473" y1="86.2529" x2="208.749" y2="148.742" gradientUnits="userSpaceOnUse">
<stop stop-color="#83D5FC"/>
<stop offset="1" stop-color="#0578AE"/>
</linearGradient>
<clipPath id="clip0_109_1487">
<rect width="47.226" height="47.226" fill="white" transform="translate(144.496 33.9085)"/>
</clipPath>
<clipPath id="clip1_109_1487">
<rect width="59.895" height="53.24" fill="white" transform="translate(137.227 171.499)"/>
</clipPath>
<clipPath id="clip2_109_1487">
<rect width="50.2436" height="35.3275" fill="white" transform="translate(70.9297 99.9102)"/>
</clipPath>
</defs>
</svg>
