<svg width="419" height="157" viewBox="0 0 419 157" fill="none" xmlns="http://www.w3.org/2000/svg">
<path d="M97.4389 29.7442C97.3737 32.4399 97.1926 35.1316 96.8962 37.8118C96.8033 38.7094 96.4868 39.5694 95.9755 40.3131C95.4642 41.0567 94.7746 41.6602 93.9697 42.0683C93.171 42.4543 92.291 42.6422 91.4043 42.616C90.5175 42.5898 89.6502 42.3503 88.8757 41.9177C86.6266 40.707 83.1229 38.6556 78.1763 35.3181C74.061 32.5421 71.3822 30.3119 69.6413 28.615C68.1734 27.1877 67.3233 25.3089 67.3233 23.3076C67.3233 21.3064 68.1734 19.4307 69.6445 18.0035C71.3822 16.3096 74.061 14.0763 78.1763 11.2972C83.1229 7.9597 86.6266 5.91143 88.8757 4.70066C89.6502 4.26813 90.5175 4.02862 91.4043 4.00241C92.291 3.9762 93.171 4.16407 93.9697 4.5501C95.6165 5.36878 96.6735 6.96537 96.8962 8.80662C97.0531 10.0989 97.2036 11.8084 97.3228 14.0543C111.04 14.299 121.385 14.7821 128.69 15.2463C140.346 15.996 149.872 24.738 150.967 36.6888C151.723 44.9604 152.425 57.0587 152.425 73.495C152.425 89.9314 151.723 102.033 150.967 110.301C149.869 122.252 140.346 130.997 128.687 131.744C119.173 132.352 104.49 132.989 83.9165 133.083L65.9432 148.488C56.784 156.336 42.6405 149.83 42.6405 137.773V132.45C37.1513 132.233 32.5341 131.985 28.7386 131.744C17.0795 130.997 7.55328 122.252 6.45857 110.301C5.70262 102.033 5 89.9314 5 73.495C5 57.0587 5.70262 44.9604 6.45857 36.6888C7.55642 24.738 17.0795 15.996 28.7386 15.2494C35.9051 14.8024 43.0788 14.4803 50.2565 14.2833C51.2859 14.2537 52.311 14.427 53.2734 14.7936C54.2358 15.1601 55.1165 15.7126 55.8654 16.4195C56.6142 17.1264 57.2165 17.9739 57.6378 18.9136C58.0592 19.8533 58.2913 20.8667 58.321 21.8961C58.3506 22.9255 58.1772 23.9506 57.8107 24.913C57.4442 25.8754 56.8917 26.7562 56.1848 27.505C55.4779 28.2539 54.6304 28.8562 53.6907 29.2775C52.751 29.6988 51.7375 29.9309 50.7082 29.9606C43.7135 30.1512 36.7228 30.4649 29.7392 30.9016C25.4733 31.1745 22.4401 34.1763 22.0794 38.1192C21.3674 45.8857 20.6836 57.5041 20.6836 73.495C20.6836 89.486 21.3674 101.107 22.0794 108.874C22.4401 112.814 25.4702 115.819 29.7392 116.092C34.9901 116.427 41.9348 116.775 50.7082 117.033C52.7474 117.091 54.6836 117.943 56.1055 119.405C57.5275 120.868 58.3233 122.828 58.3241 124.868V134.363L75.9022 119.294C77.3194 118.079 79.1234 117.41 80.99 117.406C102.79 117.365 118.075 116.706 127.686 116.092C131.952 115.819 134.985 112.817 135.349 108.874C136.058 101.107 136.742 89.4891 136.742 73.495C136.742 57.5041 136.058 45.8857 135.349 38.1192C134.985 34.1763 131.955 31.1745 127.686 30.9016C120.707 30.4531 110.729 29.9826 97.4389 29.7442Z" fill="black"/>
<path d="M97.4389 29.7442C97.3737 32.4399 97.1926 35.1316 96.8962 37.8118C96.8033 38.7094 96.4868 39.5694 95.9755 40.3131C95.4642 41.0567 94.7746 41.6602 93.9697 42.0683C93.171 42.4543 92.291 42.6422 91.4043 42.616C90.5175 42.5898 89.6502 42.3503 88.8757 41.9177C86.6266 40.707 83.1229 38.6556 78.1763 35.3181C74.061 32.5421 71.3822 30.3119 69.6413 28.615C68.1734 27.1877 67.3233 25.3089 67.3233 23.3076C67.3233 21.3064 68.1734 19.4307 69.6445 18.0035C71.3822 16.3096 74.061 14.0763 78.1763 11.2972C83.1229 7.9597 86.6266 5.91143 88.8757 4.70066C89.6502 4.26813 90.5175 4.02862 91.4043 4.00241C92.291 3.9762 93.171 4.16407 93.9697 4.5501C95.6165 5.36878 96.6735 6.96537 96.8962 8.80662C97.0531 10.0989 97.2036 11.8084 97.3228 14.0543C111.04 14.299 121.385 14.7821 128.69 15.2463C140.346 15.996 149.872 24.738 150.967 36.6888C151.723 44.9604 152.425 57.0587 152.425 73.495C152.425 89.9314 151.723 102.033 150.967 110.301C149.869 122.252 140.346 130.997 128.687 131.744C119.173 132.352 104.49 132.989 83.9165 133.083L65.9432 148.488C56.784 156.336 42.6405 149.83 42.6405 137.773V132.45C37.1513 132.233 32.5341 131.985 28.7386 131.744C17.0795 130.997 7.55328 122.252 6.45857 110.301C5.70262 102.033 5 89.9314 5 73.495C5 57.0587 5.70262 44.9604 6.45857 36.6888C7.55642 24.738 17.0795 15.996 28.7386 15.2494C35.9051 14.8024 43.0788 14.4803 50.2565 14.2833C51.2859 14.2537 52.311 14.427 53.2734 14.7936C54.2358 15.1601 55.1165 15.7126 55.8654 16.4195C56.6142 17.1264 57.2165 17.9739 57.6378 18.9136C58.0592 19.8533 58.2913 20.8667 58.321 21.8961C58.3506 22.9255 58.1772 23.9506 57.8107 24.913C57.4442 25.8754 56.8917 26.7562 56.1848 27.505C55.4779 28.2539 54.6304 28.8562 53.6907 29.2775C52.751 29.6988 51.7375 29.9309 50.7082 29.9606C43.7135 30.1512 36.7228 30.4649 29.7392 30.9016C25.4733 31.1745 22.4401 34.1763 22.0794 38.1192C21.3674 45.8857 20.6836 57.5041 20.6836 73.495C20.6836 89.486 21.3674 101.107 22.0794 108.874C22.4401 112.814 25.4702 115.819 29.7392 116.092C34.9901 116.427 41.9348 116.775 50.7082 117.033C52.7474 117.091 54.6836 117.943 56.1055 119.405C57.5275 120.868 58.3233 122.828 58.3241 124.868V134.363L75.9022 119.294C77.3194 118.079 79.1234 117.41 80.99 117.406C102.79 117.365 118.075 116.706 127.686 116.092C131.952 115.819 134.985 112.817 135.349 108.874C136.058 101.107 136.742 89.4891 136.742 73.495C136.742 57.5041 136.058 45.8857 135.349 38.1192C134.985 34.1763 131.955 31.1745 127.686 30.9016C120.707 30.4531 110.729 29.9826 97.4389 29.7442Z" fill="url(#paint0_radial_44_1403)"/>
<path d="M45.5468 65C42.2192 65 39.0279 66.3219 36.6749 68.6749C34.3219 71.0279 33 74.2192 33 77.5468C33 80.8745 34.3219 84.0658 36.6749 86.4188C39.0279 88.7718 42.2192 90.0937 45.5468 90.0937C48.8745 90.0937 52.0658 88.7718 54.4188 86.4188C56.7718 84.0658 58.0937 80.8745 58.0937 77.5468C58.0937 74.2192 56.7718 71.0279 54.4188 68.6749C52.0658 66.3219 48.8745 65 45.5468 65ZM78.4823 65C75.1547 65 71.9633 66.3219 69.6104 68.6749C67.2574 71.0279 65.9355 74.2192 65.9355 77.5468C65.9355 80.8745 67.2574 84.0658 69.6104 86.4188C71.9633 88.7718 75.1547 90.0937 78.4823 90.0937C81.8099 90.0937 85.0013 88.7718 87.3543 86.4188C89.7073 84.0658 91.0292 80.8745 91.0292 77.5468C91.0292 74.2192 89.7073 71.0279 87.3543 68.6749C85.0013 66.3219 81.8099 65 78.4823 65ZM111.418 65C108.09 65 104.899 66.3219 102.546 68.6749C100.193 71.0279 98.8709 74.2192 98.8709 77.5468C98.8709 80.8745 100.193 84.0658 102.546 86.4188C104.899 88.7718 108.09 90.0937 111.418 90.0937C114.745 90.0937 117.937 88.7718 120.29 86.4188C122.643 84.0658 123.965 80.8745 123.965 77.5468C123.965 74.2192 122.643 71.0279 120.29 68.6749C117.937 66.3219 114.745 65 111.418 65Z" fill="url(#paint1_radial_44_1403)"/>
<path d="M45.5468 65C42.2192 65 39.0279 66.3219 36.6749 68.6749C34.3219 71.0279 33 74.2192 33 77.5468C33 80.8745 34.3219 84.0658 36.6749 86.4188C39.0279 88.7718 42.2192 90.0937 45.5468 90.0937C48.8745 90.0937 52.0658 88.7718 54.4188 86.4188C56.7718 84.0658 58.0937 80.8745 58.0937 77.5468C58.0937 74.2192 56.7718 71.0279 54.4188 68.6749C52.0658 66.3219 48.8745 65 45.5468 65ZM78.4823 65C75.1547 65 71.9633 66.3219 69.6104 68.6749C67.2574 71.0279 65.9355 74.2192 65.9355 77.5468C65.9355 80.8745 67.2574 84.0658 69.6104 86.4188C71.9633 88.7718 75.1547 90.0937 78.4823 90.0937C81.8099 90.0937 85.0013 88.7718 87.3543 86.4188C89.7073 84.0658 91.0292 80.8745 91.0292 77.5468C91.0292 74.2192 89.7073 71.0279 87.3543 68.6749C85.0013 66.3219 81.8099 65 78.4823 65ZM111.418 65C108.09 65 104.899 66.3219 102.546 68.6749C100.193 71.0279 98.8709 74.2192 98.8709 77.5468C98.8709 80.8745 100.193 84.0658 102.546 86.4188C104.899 88.7718 108.09 90.0937 111.418 90.0937C114.745 90.0937 117.937 88.7718 120.29 86.4188C122.643 84.0658 123.965 80.8745 123.965 77.5468C123.965 74.2192 122.643 71.0279 120.29 68.6749C117.937 66.3219 114.745 65 111.418 65Z" fill="url(#paint2_radial_44_1403)"/>
<path d="M198.6 38.5915H213.956C217.17 38.5915 219.581 37.8773 221.188 36.4488C222.795 35.0203 223.599 32.699 223.599 29.485C223.599 26.3899 222.795 24.1579 221.188 22.789C219.581 21.3605 217.17 20.6462 213.956 20.6462H198.6V38.5915ZM184.583 9.75407H218.956C221.813 9.75407 224.372 10.2302 226.634 11.1826C228.955 12.0754 230.919 13.3253 232.527 14.9323C234.193 16.5394 235.443 18.4142 236.276 20.557C237.169 22.6402 237.616 24.9019 237.616 27.3422C237.616 31.092 236.812 34.3358 235.205 37.0738C233.657 39.8117 231.098 41.8949 227.527 43.3234V43.5019C229.253 43.9781 230.681 44.7221 231.812 45.7339C232.943 46.6862 233.866 47.8469 234.58 49.2158C235.294 50.5253 235.8 51.9835 236.098 53.5906C236.455 55.1976 236.693 56.8046 236.812 58.4117C236.871 59.4235 236.931 60.6139 236.991 61.9829C237.05 63.3518 237.139 64.7506 237.258 66.179C237.437 67.6075 237.675 68.9765 237.973 70.2859C238.33 71.5358 238.836 72.6072 239.49 73.5H225.473C224.7 71.4763 224.223 69.0658 224.045 66.2683C223.866 63.4709 223.599 60.7925 223.241 58.2331C222.765 54.9 221.753 52.4597 220.206 50.9122C218.658 49.3646 216.129 48.5909 212.617 48.5909H198.6V73.5H184.583V9.75407ZM278.745 45.4661C278.15 42.252 277.078 39.8117 275.531 38.1451C274.043 36.4786 271.751 35.6453 268.656 35.6453C266.633 35.6453 264.936 36.0024 263.567 36.7166C262.258 37.3714 261.187 38.2046 260.353 39.2165C259.58 40.2283 259.014 41.2997 258.657 42.4306C258.359 43.5614 258.181 44.5733 258.121 45.4661H278.745ZM258.121 53.5013C258.3 57.6082 259.341 60.5842 261.246 62.4293C263.151 64.2744 265.889 65.197 269.46 65.197C272.019 65.197 274.221 64.572 276.067 63.3221C277.912 62.0126 279.043 60.6437 279.459 59.2152H290.619C288.834 64.7506 286.096 68.7086 282.405 71.0894C278.715 73.4702 274.251 74.6606 269.013 74.6606C265.383 74.6606 262.109 74.0952 259.193 72.9643C256.276 71.7739 253.806 70.1074 251.782 67.9646C249.759 65.8219 248.181 63.2626 247.051 60.2866C245.979 57.3106 245.444 54.037 245.444 50.4658C245.444 47.0136 246.009 43.7995 247.14 40.8235C248.271 37.8475 249.878 35.2882 251.961 33.1454C254.044 30.9432 256.514 29.2171 259.371 27.9672C262.288 26.7173 265.502 26.0923 269.013 26.0923C272.942 26.0923 276.364 26.8661 279.281 28.4136C282.197 29.9016 284.578 31.9253 286.423 34.4846C288.328 37.044 289.697 39.9605 290.53 43.2341C291.363 46.5077 291.661 49.9301 291.423 53.5013H258.121ZM322.244 65.197C324.327 65.197 326.053 64.7803 327.422 63.947C328.851 63.1138 329.981 62.0424 330.815 60.733C331.708 59.364 332.333 57.7867 332.69 56.0011C333.047 54.2155 333.225 52.4002 333.225 50.555C333.225 48.7099 333.017 46.8946 332.6 45.109C332.243 43.3234 331.618 41.7461 330.725 40.3771C329.833 38.9486 328.672 37.8178 327.244 36.9845C325.875 36.0917 324.178 35.6453 322.155 35.6453C320.071 35.6453 318.316 36.0917 316.887 36.9845C315.518 37.8178 314.387 38.9189 313.494 40.2878C312.661 41.6568 312.066 43.2341 311.709 45.0197C311.352 46.8053 311.173 48.6504 311.173 50.555C311.173 52.4002 311.352 54.2155 311.709 56.0011C312.125 57.7867 312.75 59.364 313.584 60.733C314.477 62.0424 315.637 63.1138 317.066 63.947C318.494 64.7803 320.22 65.197 322.244 65.197ZM298.942 27.3422H310.995V33.2347H311.173C312.721 30.7349 314.685 28.9195 317.066 27.7886C319.446 26.6578 322.065 26.0923 324.922 26.0923C328.553 26.0923 331.678 26.7768 334.297 28.1458C336.916 29.5147 339.088 31.3301 340.814 33.5918C342.54 35.8536 343.82 38.5022 344.653 41.5378C345.486 44.5138 345.903 47.6386 345.903 50.9122C345.903 54.0072 345.486 56.9832 344.653 59.8402C343.82 62.6971 342.54 65.2267 340.814 67.429C339.148 69.6312 337.035 71.387 334.475 72.6965C331.975 74.0059 329.029 74.6606 325.637 74.6606C322.78 74.6606 320.131 74.0952 317.691 72.9643C315.31 71.7739 313.346 70.0478 311.798 67.7861H311.62V89.6597H298.942V27.3422ZM353.878 9.75407H366.556V73.5H353.878V9.75407ZM399.305 79.2139C397.936 82.9637 396.031 85.6421 393.591 87.2491C391.151 88.8562 387.758 89.6597 383.413 89.6597C382.104 89.6597 380.794 89.6002 379.485 89.4811C378.235 89.4216 376.955 89.3323 375.646 89.2133V78.7675C376.836 78.8866 378.056 79.0056 379.306 79.1246C380.556 79.2437 381.806 79.2734 383.056 79.2139C384.723 79.0354 385.943 78.3806 386.717 77.2498C387.55 76.1189 387.967 74.869 387.967 73.5C387.967 72.4882 387.788 71.5358 387.431 70.643L371.271 27.3422H384.752L395.198 58.9474H395.377L405.465 27.3422H418.59L399.305 79.2139Z" fill="#272727"/>
<path d="M184.583 87.7541H229.402V99.539H198.6V114.27H225.295V125.162H198.6V151.5H184.583V87.7541ZM235.631 119.538C235.81 116.562 236.554 114.092 237.863 112.128C239.173 110.163 240.839 108.586 242.863 107.396C244.886 106.205 247.148 105.372 249.648 104.896C252.207 104.36 254.767 104.092 257.326 104.092C259.647 104.092 261.998 104.271 264.379 104.628C266.76 104.926 268.933 105.551 270.897 106.503C272.861 107.455 274.468 108.794 275.718 110.52C276.968 112.187 277.593 114.419 277.593 117.216V141.233C277.593 143.316 277.712 145.31 277.95 147.215C278.188 149.119 278.605 150.548 279.2 151.5H266.343C266.105 150.786 265.897 150.072 265.718 149.357C265.599 148.584 265.51 147.81 265.451 147.036C263.427 149.119 261.046 150.577 258.308 151.411C255.57 152.244 252.773 152.661 249.916 152.661C247.714 152.661 245.66 152.393 243.756 151.857C241.851 151.321 240.184 150.488 238.756 149.357C237.327 148.226 236.197 146.798 235.363 145.072C234.59 143.346 234.203 141.292 234.203 138.912C234.203 136.293 234.649 134.15 235.542 132.483C236.494 130.757 237.685 129.388 239.113 128.376C240.601 127.365 242.268 126.621 244.113 126.144C246.017 125.609 247.922 125.192 249.827 124.895C251.731 124.597 253.606 124.359 255.451 124.18C257.296 124.002 258.933 123.734 260.362 123.377C261.79 123.02 262.921 122.514 263.754 121.859C264.588 121.145 264.974 120.133 264.915 118.824C264.915 117.455 264.677 116.383 264.201 115.609C263.784 114.776 263.189 114.151 262.415 113.735C261.701 113.258 260.838 112.961 259.826 112.842C258.874 112.663 257.832 112.574 256.701 112.574C254.201 112.574 252.237 113.11 250.809 114.181C249.38 115.252 248.547 117.038 248.309 119.538H235.631ZM264.915 128.912C264.379 129.388 263.695 129.775 262.862 130.073C262.088 130.311 261.225 130.519 260.272 130.698C259.38 130.876 258.427 131.025 257.415 131.144C256.404 131.263 255.392 131.412 254.38 131.591C253.428 131.769 252.475 132.007 251.523 132.305C250.63 132.602 249.827 133.019 249.112 133.555C248.458 134.031 247.922 134.656 247.505 135.43C247.089 136.203 246.88 137.185 246.88 138.376C246.88 139.507 247.089 140.459 247.505 141.233C247.922 142.007 248.487 142.632 249.202 143.108C249.916 143.524 250.749 143.822 251.702 144C252.654 144.179 253.636 144.268 254.648 144.268C257.148 144.268 259.082 143.852 260.451 143.018C261.82 142.185 262.832 141.203 263.486 140.072C264.141 138.882 264.528 137.691 264.647 136.501C264.826 135.311 264.915 134.358 264.915 133.644V128.912ZM287.433 105.342H299.486V111.77H299.754C301.361 109.092 303.444 107.158 306.003 105.967C308.563 104.717 311.182 104.092 313.86 104.092C317.253 104.092 320.02 104.568 322.163 105.521C324.365 106.414 326.091 107.693 327.341 109.36C328.591 110.967 329.454 112.961 329.93 115.342C330.466 117.663 330.734 120.252 330.734 123.109V151.5H318.056V125.43C318.056 121.621 317.461 118.794 316.27 116.949C315.08 115.044 312.967 114.092 309.932 114.092C306.479 114.092 303.98 115.133 302.432 117.216C300.885 119.24 300.111 122.603 300.111 127.305V151.5H287.433V105.342Z" fill="#272727"/>
<path d="M184.583 87.7541H229.402V99.539H198.6V114.27H225.295V125.162H198.6V151.5H184.583V87.7541ZM235.631 119.538C235.81 116.562 236.554 114.092 237.863 112.128C239.173 110.163 240.839 108.586 242.863 107.396C244.886 106.205 247.148 105.372 249.648 104.896C252.207 104.36 254.767 104.092 257.326 104.092C259.647 104.092 261.998 104.271 264.379 104.628C266.76 104.926 268.933 105.551 270.897 106.503C272.861 107.455 274.468 108.794 275.718 110.52C276.968 112.187 277.593 114.419 277.593 117.216V141.233C277.593 143.316 277.712 145.31 277.95 147.215C278.188 149.119 278.605 150.548 279.2 151.5H266.343C266.105 150.786 265.897 150.072 265.718 149.357C265.599 148.584 265.51 147.81 265.451 147.036C263.427 149.119 261.046 150.577 258.308 151.411C255.57 152.244 252.773 152.661 249.916 152.661C247.714 152.661 245.66 152.393 243.756 151.857C241.851 151.321 240.184 150.488 238.756 149.357C237.327 148.226 236.197 146.798 235.363 145.072C234.59 143.346 234.203 141.292 234.203 138.912C234.203 136.293 234.649 134.15 235.542 132.483C236.494 130.757 237.685 129.388 239.113 128.376C240.601 127.365 242.268 126.621 244.113 126.144C246.017 125.609 247.922 125.192 249.827 124.895C251.731 124.597 253.606 124.359 255.451 124.18C257.296 124.002 258.933 123.734 260.362 123.377C261.79 123.02 262.921 122.514 263.754 121.859C264.588 121.145 264.974 120.133 264.915 118.824C264.915 117.455 264.677 116.383 264.201 115.609C263.784 114.776 263.189 114.151 262.415 113.735C261.701 113.258 260.838 112.961 259.826 112.842C258.874 112.663 257.832 112.574 256.701 112.574C254.201 112.574 252.237 113.11 250.809 114.181C249.38 115.252 248.547 117.038 248.309 119.538H235.631ZM264.915 128.912C264.379 129.388 263.695 129.775 262.862 130.073C262.088 130.311 261.225 130.519 260.272 130.698C259.38 130.876 258.427 131.025 257.415 131.144C256.404 131.263 255.392 131.412 254.38 131.591C253.428 131.769 252.475 132.007 251.523 132.305C250.63 132.602 249.827 133.019 249.112 133.555C248.458 134.031 247.922 134.656 247.505 135.43C247.089 136.203 246.88 137.185 246.88 138.376C246.88 139.507 247.089 140.459 247.505 141.233C247.922 142.007 248.487 142.632 249.202 143.108C249.916 143.524 250.749 143.822 251.702 144C252.654 144.179 253.636 144.268 254.648 144.268C257.148 144.268 259.082 143.852 260.451 143.018C261.82 142.185 262.832 141.203 263.486 140.072C264.141 138.882 264.528 137.691 264.647 136.501C264.826 135.311 264.915 134.358 264.915 133.644V128.912ZM287.433 105.342H299.486V111.77H299.754C301.361 109.092 303.444 107.158 306.003 105.967C308.563 104.717 311.182 104.092 313.86 104.092C317.253 104.092 320.02 104.568 322.163 105.521C324.365 106.414 326.091 107.693 327.341 109.36C328.591 110.967 329.454 112.961 329.93 115.342C330.466 117.663 330.734 120.252 330.734 123.109V151.5H318.056V125.43C318.056 121.621 317.461 118.794 316.27 116.949C315.08 115.044 312.967 114.092 309.932 114.092C306.479 114.092 303.98 115.133 302.432 117.216C300.885 119.24 300.111 122.603 300.111 127.305V151.5H287.433V105.342Z" fill="url(#paint3_radial_44_1403)"/>
<path d="M184.583 87.7541H229.402V99.539H198.6V114.27H225.295V125.162H198.6V151.5H184.583V87.7541ZM235.631 119.538C235.81 116.562 236.554 114.092 237.863 112.128C239.173 110.163 240.839 108.586 242.863 107.396C244.886 106.205 247.148 105.372 249.648 104.896C252.207 104.36 254.767 104.092 257.326 104.092C259.647 104.092 261.998 104.271 264.379 104.628C266.76 104.926 268.933 105.551 270.897 106.503C272.861 107.455 274.468 108.794 275.718 110.52C276.968 112.187 277.593 114.419 277.593 117.216V141.233C277.593 143.316 277.712 145.31 277.95 147.215C278.188 149.119 278.605 150.548 279.2 151.5H266.343C266.105 150.786 265.897 150.072 265.718 149.357C265.599 148.584 265.51 147.81 265.451 147.036C263.427 149.119 261.046 150.577 258.308 151.411C255.57 152.244 252.773 152.661 249.916 152.661C247.714 152.661 245.66 152.393 243.756 151.857C241.851 151.321 240.184 150.488 238.756 149.357C237.327 148.226 236.197 146.798 235.363 145.072C234.59 143.346 234.203 141.292 234.203 138.912C234.203 136.293 234.649 134.15 235.542 132.483C236.494 130.757 237.685 129.388 239.113 128.376C240.601 127.365 242.268 126.621 244.113 126.144C246.017 125.609 247.922 125.192 249.827 124.895C251.731 124.597 253.606 124.359 255.451 124.18C257.296 124.002 258.933 123.734 260.362 123.377C261.79 123.02 262.921 122.514 263.754 121.859C264.588 121.145 264.974 120.133 264.915 118.824C264.915 117.455 264.677 116.383 264.201 115.609C263.784 114.776 263.189 114.151 262.415 113.735C261.701 113.258 260.838 112.961 259.826 112.842C258.874 112.663 257.832 112.574 256.701 112.574C254.201 112.574 252.237 113.11 250.809 114.181C249.38 115.252 248.547 117.038 248.309 119.538H235.631ZM264.915 128.912C264.379 129.388 263.695 129.775 262.862 130.073C262.088 130.311 261.225 130.519 260.272 130.698C259.38 130.876 258.427 131.025 257.415 131.144C256.404 131.263 255.392 131.412 254.38 131.591C253.428 131.769 252.475 132.007 251.523 132.305C250.63 132.602 249.827 133.019 249.112 133.555C248.458 134.031 247.922 134.656 247.505 135.43C247.089 136.203 246.88 137.185 246.88 138.376C246.88 139.507 247.089 140.459 247.505 141.233C247.922 142.007 248.487 142.632 249.202 143.108C249.916 143.524 250.749 143.822 251.702 144C252.654 144.179 253.636 144.268 254.648 144.268C257.148 144.268 259.082 143.852 260.451 143.018C261.82 142.185 262.832 141.203 263.486 140.072C264.141 138.882 264.528 137.691 264.647 136.501C264.826 135.311 264.915 134.358 264.915 133.644V128.912ZM287.433 105.342H299.486V111.77H299.754C301.361 109.092 303.444 107.158 306.003 105.967C308.563 104.717 311.182 104.092 313.86 104.092C317.253 104.092 320.02 104.568 322.163 105.521C324.365 106.414 326.091 107.693 327.341 109.36C328.591 110.967 329.454 112.961 329.93 115.342C330.466 117.663 330.734 120.252 330.734 123.109V151.5H318.056V125.43C318.056 121.621 317.461 118.794 316.27 116.949C315.08 115.044 312.967 114.092 309.932 114.092C306.479 114.092 303.98 115.133 302.432 117.216C300.885 119.24 300.111 122.603 300.111 127.305V151.5H287.433V105.342Z" fill="url(#paint4_radial_44_1403)"/>
<defs>
<radialGradient id="paint0_radial_44_1403" cx="0" cy="0" r="1" gradientUnits="userSpaceOnUse" gradientTransform="translate(44.1599 163.305) rotate(-90) scale(146.593 135.893)">
<stop offset="0.197784" stop-color="#1FB4F9"/>
<stop offset="0.533654" stop-color="#56D1F6"/>
<stop offset="0.942308" stop-color="#3EBEFA"/>
</radialGradient>
<radialGradient id="paint1_radial_44_1403" cx="0" cy="0" r="1" gradientUnits="userSpaceOnUse" gradientTransform="translate(57.1625 92.0264) rotate(-90) scale(24.8697 83.8491)">
<stop offset="0.0384615" stop-color="#5571FF"/>
<stop offset="0.403846" stop-color="#55FFFF"/>
<stop offset="0.677885" stop-color="#3EABFF"/>
<stop offset="1" stop-color="#6737C8"/>
</radialGradient>
<radialGradient id="paint2_radial_44_1403" cx="0" cy="0" r="1" gradientUnits="userSpaceOnUse" gradientTransform="translate(57.1625 92.0264) rotate(-90) scale(24.8697 83.8491)">
<stop offset="0.197784" stop-color="#1FB4F9"/>
<stop offset="0.533654" stop-color="#56D1F6"/>
<stop offset="0.942308" stop-color="#3EBEFA"/>
</radialGradient>
<radialGradient id="paint3_radial_44_1403" cx="0" cy="0" r="1" gradientUnits="userSpaceOnUse" gradientTransform="translate(242.173 168.515) rotate(-90) scale(154.608 221.227)">
<stop offset="0.0384615" stop-color="#5571FF"/>
<stop offset="0.403846" stop-color="#55FFFF"/>
<stop offset="0.677885" stop-color="#3EABFF"/>
<stop offset="1" stop-color="#6737C8"/>
</radialGradient>
<radialGradient id="paint4_radial_44_1403" cx="0" cy="0" r="1" gradientUnits="userSpaceOnUse" gradientTransform="translate(242.173 168.515) rotate(-90) scale(154.608 221.227)">
<stop offset="0.197784" stop-color="#1FB4F9"/>
<stop offset="0.533654" stop-color="#56D1F6"/>
<stop offset="0.942308" stop-color="#3EBEFA"/>
</radialGradient>
</defs>
</svg>
