<svg width="97" height="94" viewBox="0 0 97 94" fill="none" xmlns="http://www.w3.org/2000/svg">
<g opacity="0.75">
<mask id="mask0_137_1172" style="mask-type:luminance" maskUnits="userSpaceOnUse" x="0" y="-8" width="97" height="97">
<line x1="18" y1="2.18557e-08" x2="18" y2="80" stroke="white"/>
<line x1="36" y1="2.18557e-08" x2="36" y2="80" stroke="white"/>
<line x1="54" y1="2.18557e-08" x2="54" y2="80" stroke="white"/>
<line x1="72" y1="2.18557e-08" x2="72" y2="80" stroke="white"/>
<line x1="90" y1="2.18557e-08" x2="90" y2="80" stroke="white"/>
<g clip-path="url(#clip0_137_1172)">
<line x1="97" y1="10.5" x2="-4.37114e-08" y2="10.5" stroke="white"/>
<line x1="97" y1="28.5" x2="-4.37114e-08" y2="28.5" stroke="white"/>
<line x1="97" y1="46.5" x2="-4.37114e-08" y2="46.5" stroke="white"/>
<line x1="97" y1="64.5" x2="-4.37114e-08" y2="64.5" stroke="white"/>
<line x1="97" y1="82.5001" x2="-4.37114e-08" y2="82.5001" stroke="white"/>
</g>
</mask>
<g mask="url(#mask0_137_1172)">
<line x1="10.5" y1="2.18557e-08" x2="10.5" y2="80" stroke="#333333"/>
<line x1="31.5" y1="2.18557e-08" x2="31.5" y2="80" stroke="#333333"/>
<line x1="52.5" y1="2.18557e-08" x2="52.5" y2="80" stroke="#333333"/>
<line x1="73.5" y1="2.18557e-08" x2="73.5" y2="80" stroke="#333333"/>
<line x1="94.5" y1="2.18557e-08" x2="94.5" y2="80" stroke="#333333"/>
<line x1="97" y1="3.5" x2="-4.37114e-08" y2="3.49999" stroke="#333333"/>
<line x1="97" y1="21.5" x2="-4.37114e-08" y2="21.5" stroke="#333333"/>
<line x1="97" y1="39.5" x2="-4.37114e-08" y2="39.5" stroke="#333333"/>
<line x1="97" y1="57.5" x2="-4.37114e-08" y2="57.5" stroke="#333333"/>
<line x1="97" y1="75.5" x2="-4.37114e-08" y2="75.5" stroke="#333333"/>
</g>
</g>
<g clip-path="url(#clip1_137_1172)">
<g clip-path="url(#clip2_137_1172)">
<path fill-rule="evenodd" clip-rule="evenodd" d="M14.6016 20.8H53.0016V59.2H14.6016V20.8ZM14.6016 20.8V59.2H53.0016V20.8H14.6016ZM43.4016 39.754C43.4016 44.917 39.183 49.1056 33.9756 49.1056C32.3226 49.1056 30.7716 48.6838 29.4186 47.9404L24.2016 49.6L25.9032 44.5822C25.0168 43.1278 24.5489 41.4571 24.5508 39.754C24.5508 34.588 28.7694 30.4 33.975 30.4C39.1836 30.4 43.4016 34.588 43.4016 39.754ZM33.9756 31.8904C29.6064 31.8904 26.0508 35.4184 26.0508 39.754C26.0508 41.4742 26.6136 43.066 27.5604 44.362L26.571 47.2822L29.6154 46.3162C30.911 47.1664 32.4276 47.6179 33.9774 47.6146C38.346 47.6146 41.9016 44.0896 41.9016 39.754C41.9016 35.4184 38.346 31.8904 33.9756 31.8904ZM38.7354 41.908C38.6766 41.812 38.5242 41.7532 38.292 41.638C38.0628 41.5258 36.9258 40.9702 36.7146 40.8928C36.5016 40.8178 36.3468 40.7782 36.1944 41.008C36.0396 41.2378 35.5968 41.7532 35.4636 41.908C35.3274 42.0604 35.1936 42.079 34.962 41.9638C34.7298 41.8492 33.987 41.608 33.1032 40.8274C32.4162 40.2202 31.9524 39.4702 31.8192 39.2404C31.6854 39.0112 31.8048 38.8864 31.9194 38.7724C32.025 38.6686 32.1516 38.5048 32.2662 38.371C32.3838 38.2372 32.421 38.1412 32.4984 37.9888C32.5758 37.8346 32.5362 37.7008 32.4774 37.5862C32.421 37.471 31.9572 36.3442 31.7646 35.8846C31.572 35.425 31.3806 35.5024 31.2468 35.5024C31.1112 35.5024 30.9564 35.4838 30.804 35.4838C30.687 35.4859 30.5718 35.5124 30.4657 35.5615C30.3596 35.6107 30.2649 35.6815 30.1878 35.7694C29.9742 35.9992 29.379 36.5548 29.379 37.6822C29.379 38.8096 30.2064 39.8992 30.321 40.0516C30.4386 40.2064 31.9194 42.5944 34.2678 43.5136C36.6162 44.4316 36.6162 44.125 37.0404 44.0872C37.4646 44.0476 38.4072 43.5322 38.6016 42.9976C38.7936 42.4612 38.7936 42.0016 38.7354 41.908Z" fill="white"/>
<path fill-rule="evenodd" clip-rule="evenodd" d="M14.6016 20.8V59.2H53.0016V20.8H14.6016ZM43.4016 39.754C43.4016 44.917 39.183 49.1056 33.9756 49.1056C32.3226 49.1056 30.7716 48.6838 29.4186 47.9404L24.2016 49.6L25.9032 44.5822C25.0168 43.1278 24.5489 41.4571 24.5508 39.754C24.5508 34.588 28.7694 30.4 33.975 30.4C39.1836 30.4 43.4016 34.588 43.4016 39.754ZM33.9756 31.8904C29.6064 31.8904 26.0508 35.4184 26.0508 39.754C26.0508 41.4742 26.6136 43.066 27.5604 44.362L26.571 47.2822L29.6154 46.3162C30.911 47.1664 32.4276 47.6179 33.9774 47.6146C38.346 47.6146 41.9016 44.0896 41.9016 39.754C41.9016 35.4184 38.346 31.8904 33.9756 31.8904ZM38.7354 41.908C38.6766 41.812 38.5242 41.7532 38.292 41.638C38.0628 41.5258 36.9258 40.9702 36.7146 40.8928C36.5016 40.8178 36.3468 40.7782 36.1944 41.008C36.0396 41.2378 35.5968 41.7532 35.4636 41.908C35.3274 42.0604 35.1936 42.079 34.962 41.9638C34.7298 41.8492 33.987 41.608 33.1032 40.8274C32.4162 40.2202 31.9524 39.4702 31.8192 39.2404C31.6854 39.0112 31.8048 38.8864 31.9194 38.7724C32.025 38.6686 32.1516 38.5048 32.2662 38.371C32.3838 38.2372 32.421 38.1412 32.4984 37.9888C32.5758 37.8346 32.5362 37.7008 32.4774 37.5862C32.421 37.471 31.9572 36.3442 31.7646 35.8846C31.572 35.425 31.3806 35.5024 31.2468 35.5024C31.1112 35.5024 30.9564 35.4838 30.804 35.4838C30.687 35.4859 30.5718 35.5124 30.4657 35.5615C30.3596 35.6107 30.2649 35.6815 30.1878 35.7694C29.9742 35.9992 29.379 36.5548 29.379 37.6822C29.379 38.8096 30.2064 39.8992 30.321 40.0516C30.4386 40.2064 31.9194 42.5944 34.2678 43.5136C36.6162 44.4316 36.6162 44.125 37.0404 44.0872C37.4646 44.0476 38.4072 43.5322 38.6016 42.9976C38.7936 42.4612 38.7936 42.0016 38.7354 41.908Z" fill="#25D366"/>
</g>
</g>
<g clip-path="url(#clip3_137_1172)">
<g clip-path="url(#clip4_137_1172)">
<path fill-rule="evenodd" clip-rule="evenodd" d="M45 20.8H83.4V59.2H45V20.8ZM45 20.8V59.2H83.4V20.8H45ZM52.1322 40.8862C54.3702 39.6532 56.8686 38.6242 59.2032 37.588C63.2202 35.8936 67.2516 34.2298 71.325 32.68C72.1194 32.416 73.542 32.158 73.683 33.3322C73.605 34.996 73.2912 36.6484 73.0758 38.3008C72.5274 41.9338 71.8944 45.5572 71.2782 49.1806C71.0646 50.3854 69.5532 51.0106 68.5854 50.2372C66.2628 48.6694 63.9186 47.113 61.6266 45.508C60.8742 44.7436 61.5702 43.6468 62.2428 43.1008C64.1556 41.2138 66.1878 39.6112 68.0016 37.6282C68.4912 36.4444 67.0452 37.4404 66.5676 37.7482C63.9468 39.5524 61.3896 41.4694 58.6266 43.0564C57.2154 43.8346 55.5702 43.1686 54.1596 42.7354C52.8936 42.2128 51.0396 41.6854 52.1316 40.8862" fill="white"/>
<path fill-rule="evenodd" clip-rule="evenodd" d="M45 20.8V59.2H83.4V20.8H45ZM52.1322 40.8862C54.3702 39.6532 56.8686 38.6242 59.2032 37.588C63.2202 35.8936 67.2516 34.2298 71.325 32.68C72.1194 32.416 73.542 32.158 73.683 33.3322C73.605 34.996 73.2912 36.6484 73.0758 38.3008C72.5274 41.9338 71.8944 45.5572 71.2782 49.1806C71.0646 50.3854 69.5532 51.0106 68.5854 50.2372C66.2628 48.6694 63.9186 47.113 61.6266 45.508C60.8742 44.7436 61.5702 43.6468 62.2428 43.1008C64.1556 41.2138 66.1878 39.6112 68.0016 37.6282C68.4912 36.4444 67.0452 37.4404 66.5676 37.7482C63.9468 39.5524 61.3896 41.4694 58.6266 43.0564C57.2154 43.8346 55.5702 43.1686 54.1596 42.7354C52.8936 42.2128 51.0396 41.6854 52.1316 40.8862" fill="#49A9E9"/>
</g>
</g>
<defs>
<clipPath id="clip0_137_1172">
<rect y="-8" width="97" height="97" rx="48.5" fill="white"/>
</clipPath>
<clipPath id="clip1_137_1172">
<rect width="38.4" height="38.4" fill="white" transform="translate(14.6016 20.8)"/>
</clipPath>
<clipPath id="clip2_137_1172">
<rect x="14.6016" y="20.8" width="38.4" height="38.4" rx="19.2" fill="white"/>
</clipPath>
<clipPath id="clip3_137_1172">
<rect width="38.4" height="38.4" fill="white" transform="translate(45 20.8)"/>
</clipPath>
<clipPath id="clip4_137_1172">
<rect x="45" y="20.8" width="38.4" height="38.4" rx="19.2" fill="white"/>
</clipPath>
</defs>
</svg>
